<?xml version="1.0" encoding="utf-8"?>
<!-- Generator: Adobe Illustrator 25.2.3, SVG Export Plug-In . SVG Version: 6.00 Build 0)  -->
<svg version="1.1" id="Capa_1" xmlns="http://www.w3.org/2000/svg" xmlns:xlink="http://www.w3.org/1999/xlink" x="0px" y="0px"
	 viewBox="0 0 800 800" style="enable-background:new 0 0 800 800;" xml:space="preserve">
<style type="text/css">
	.st0{fill:#FFFFFF;stroke:#211915;stroke-miterlimit:10;}
	.st1{fill:#C0854B;}
	.st2{fill:none;stroke:#BD9B6D;stroke-width:0.5;stroke-miterlimit:10;}
	.st3{fill:none;stroke:#211915;stroke-miterlimit:10;}
	.st4{fill:none;stroke:#594E41;stroke-width:0.25;stroke-miterlimit:10;}
	.st5{fill:none;stroke:#211915;stroke-width:0.5;stroke-miterlimit:10;}
	.st6{fill:#FFFFFF;}
</style>
<g>
	<path class="st0" d="M214.8,282.7c0,0-17.8-20.9-27.4-25.5c-9.6-4.6-28.6-11.9-61.4-17.6c-32.8-5.7-41.9-7.9-41.9-7.9
		s-21.4-10.5-30.5-0.9c-9.1,9.5-13.6,7.7-18.6,49.2s38.9,60.9,38.9,60.9l35,9c0,0-4,7.4-4,21.7c0,0,0.4,4.5,6.3,17.6
		c5.9,13.1,6.6,42.3,12.9,52.6c6.3,10.3,21.2,46,32,53.2c0,0,0.4,4.7,2.6,10.5c2.2,5.8,3.3,8.8,11.1,14.8s2.9,0.7,8.9,7.3
		c6.1,6.5,1.1,11.8,15,14.7s15.4-16.9,12.5-19.8c-2.9-2.9,22.8-87.2,22.8-87.2l-16-55.5C213,379.8,239.8,341.6,214.8,282.7z"/>
	<path class="st0" d="M606.6,289.9c0,0,14.5-26.8,21.1-28.5c6.6-1.8,30.4-3.5,41.6-1.5s26.4,3.9,42.4,7.1l48.4,9.7
		c0,0,8.9,17.5,2.3,34.7s-15,35-16.5,37.1c-1.5,2-6.4,11.3-21,15.1c-14.6,3.8-19.6,3.9-20.1,6.9c-0.5,3,2.2,11.8-7.7,19.7
		c0,0-4.3,3-7.9,17.8l-4.3,13.5l-1.4,7c0,0,0.5,9.6-1.6,14.2c-2.1,4.6-14.5,25.7-14.5,25.7s-0.4,11.7-3.1,15.4s-8,10.9-11.8,18.6
		c-3.8,7.6-10.7,19.9-13.7,24.1c-3,4.2-7.5,8.5-9,8.7c-1.5,0.1-5.8,13.7-9.9,17.4c-4.1,3.8-6,6.9-20.4,0.8c0,0-6.4-3.7-6-14.2
		s14.4-28.2,14.4-28.2s0.8-100.1,6.9-109.9C620.9,391.3,600.6,291.5,606.6,289.9z"/>
	<path class="st0" d="M705,368.7c2.7-0.7,9.4-2.5,14.9-3.9c10.2-2.6,11.7-2.8,14.2-4.2c5.3-2.9,8.2-7,11.4-11.4
		c2.7-3.8,4.6-7.8,8.2-15.6c2.7-5.9,5-11,7.5-18.1c2.6-7.6,3.8-11.3,4.2-15.6c0.4-4.4,0.3-12.7-5.2-23.1l-15.6-3.2"/>
	<path class="st1" d="M650.3,397c-1.3-3.7-0.4-4.4-4.6-8.3c-5-4.6-6.5-5-8.5-7.5c-1.1-1.4-4.5-12.8-3.2-28.1
		c0.8-9.4,1.8-5.5,1.9-11.1c0.1-6-0.6-12.5-6.4-23.4c-2.8-5.5-6.3-12.3-10.9-18.7c-4.6-6.5-11.7-12.2-19-20.1
		c-2.2-2.4-10.4-9.3-11.6-10.6c-0.7,1-12.3-13.5-12.5-11.6c-0.2,2.2-17.1-13.7-16.7-12.9c0.3,0.6-1.4-2.1-8.1-5.8
		c0.7,0.4-2.4,0.2-3.3-2.3c-4-2.4-7.1-4.4-10.9-7.4c-4.5-3.5-6.4-2.4-11.2-5.7c0.2,1.7,0.6,0.8-3.3-1.4c-0.1-0.1-1.3-0.5-1.5-0.6
		c-2.5-1-3.7-1.4-4.2-1.6c-0.2-0.1-0.6-0.2-1.7-0.6c-8.4-3.1-1.5-1.6-8.4-3.1c-5.7-1.2,2.8,1.1-9.8-2.7c-12.4-2.3,0-1.5-20.9-4.8
		c-11.3-1.8-5.1-0.5-9.6-1.7c-7-1-0.9-0.1-7-1c-6.3-0.9,1.6,0.2-5.4-0.7c-6.3-0.8-0.9-0.1-8.1-0.8c-6-0.6-1.9-0.2-8.2-0.6
		c-6.2-0.4-1.1-0.5-8.6-0.5c-4.5,0-1.7,0.1-10.3,0c-13,0.5-3.3-1.3-21,0.8c-17.2,2-10.8,1-14.5,1.5c-10.1,1.9,2.7,0.6-19.2,3.3
		l-11.9,5.6c-5.2,2.4-13.1,6.9-13.6,6.4c-7.5,4.4-26.9,12.1-37,18.4c3.8,2.8,3,8.3,3,8.3c-7.3-4.9-33.4-5.2-34.2-6.1
		c-21,9.5-1.3,0.8-6,3c-11.4,5.4-1.7-1-16.5,8.5c-1-1.5-8.4,5.4-21.1,16c-5,4.1-6.8,7.9-11.2,13.5c-3.2,4-6.3,7.5-13.5,14.8
		c-0.7,0.7-16.5,25.5-21.9,34.6c2.3,7.3,8.5,10.2,8.2,28.8c-2.2,3.8-1.6,4.7-4.3,7.4c-0.7-0.5-5,4.4-5.7,3.8c-1-0.8-5.9,4-6,2.7
		c0,0-6.3,1.5-6.3,1.5c-1.9-2-2.2,3.9-2,7.9c0.6,8.6,0,16.1,0,19.1c0,1.9,0,2.7,0,4.4c0,1.5,0,1.9,0,2.3c0,1.1,0,2.4,0.1,4
		c0,0,0,1.2,0.1,2.3c0.3,5.2,1.3,13.3,1.4,14.3c0.7,2.3,1.2,8.8,2.5,13.4c1.4,5,2.5,6.2,3.8,10.3c2.3,7.3,3.4,11,3.9,11.8
		c1.3,2.2,1.9,1,4.9,5.1c3.5,4.7,2.7,4.3,8,12.2c2.4,3.6,3.8,5.5,4.2,8.6c0.3,2.1,0.5,3.1,0,4.4c-0.3,0.9-1.5,2.4-1.4,3.6
		c0.1,0.8,1.1,0.6,1.4,0.9c1.1,1.5,1.9,3.3,3,4.9c2,2.6,4.1,5.8,5.2,7.5c3.4,5.1,3.2,6.2,5.7,9.2c1.9,2.2,3.8,3.8,5.1,4.7
		c1.8,1.6,2,0.1,3.8,1.7c0.7,0.4,3.7,2,4.4,2.4l13.2,6.8c4.2,1.2,8,4.3,10.5,5.1c7.2,2.2,11,5,13.7,6c4.1,1.6,5.6,1.7,6.6,2.3
		c1.8,1,2.6,1,4.4,1.9c2.2,1.1,2.8,1.3,5.2,2.2c1.7,0.6,4.5,1.3,7.4,2.7c4.2,1.4,7.1,2.7,9,3c0.7,0.1,1.8,0.4,3.9,1.2
		c1.4,0.6,2.3,0.6,3.4,1c2.2,1,3.4,1.5,6.4,1.9c2,0.3,3.1,1.1,6.2,1.7c2.7,0.6,6,1,12,3.1c6.7,2.3,7.1,1.6,9.6,2.2
		c3,0.7,3.7,0.7,7.9,1.6c3.1,0.7,5.4,0.7,8.3,1.6c7.8,2.2,9,0.7,15.4,2.4c3.7,1,6.2,0.9,8.8,1.5c4.4,1,8.7,0.7,11.8,1.2
		c1.9,0.3,6,0.1,9.3,0.4c2,0.2,6,0.5,10.1,0.6c4.4,0.1,4.7,0.6,7.3,0.5c2.4-0.1,3.9,0.1,5.3,0c3.3-0.3,8,0.1,10.1,0
		c11.6-0.8,11.5-0.9,17.6-1.3c4.5-0.3,12.9-0.8,19.9-1.5c6-0.5,5.7-0.7,15.2-1.6c3.1-0.3,5.8-0.5,9.6-1.1c2.9-0.4,5.1-0.9,7.1-1.2
		c5.3-1,8-1.5,10-2.2c2.9-1,5.7,0.1,9.7-2.2c3.1-0.4,6.2-1.7,10.1-2.9c6.7-1.9,5.8-2,8.1-2.5c1.7-0.4,2.6,0.2,4-0.5
		c1.9-1,3.1-1.6,4.1-1.4c1.5,0.4,3.9-1.4,11-3.9c3.6-1.3,8.2-4.2,12.7-5.1c3.9-0.8,5-2.3,7.2-3.3c3.5-1.5,8.4-3.9,10.5-5.2
		c2.5-1,3.4-1.6,6.4-3.4c2.7-1.7,4.2-3.4,4.6-3.8c1.7-1.5,1.8-1.5,3.7-4.4c0,0,3.1-2.8,6.2-6.3c1.3-1.5,4.9-6.1,6.9-9.1
		c1.6-2.3,3.2-5.5,5.3-11.2c1-2.5,2.7-8,3.3-9.9c7-23.2,12.9-41.1,17.7-50.8c4.5-9.3,5.2-12.6,9.4-22.2c0.2-0.4,2.1-6.8,3.6-14.3
		C650.7,405.5,651.5,400.6,650.3,397"/>
	<path class="st2" d="M650.3,397c-1.3-3.7-0.4-4.4-4.6-8.3c-5-4.6-6.5-5-8.5-7.5c-1.1-1.4-4.5-12.8-3.2-28.1
		c0.8-9.4,1.8-5.5,1.9-11.1c0.1-6-0.6-12.5-6.4-23.4c-2.8-5.5-6.3-12.3-10.9-18.7c-4.6-6.5-11.7-12.2-19-20.1
		c-2.2-2.4-10.4-9.3-11.6-10.6c-0.7,1-12.3-13.5-12.5-11.6c-0.2,2.2-17.1-13.7-16.7-12.9c0.3,0.6-1.4-2.1-8.1-5.8
		c0.7,0.4-2.4,0.2-3.3-2.3c-4-2.4-7.1-4.4-10.9-7.4c-4.5-3.5-6.4-2.4-11.2-5.7c0.2,1.7,0.6,0.8-3.3-1.4c-0.1-0.1-1.3-0.5-1.5-0.6
		c-2.5-1-3.7-1.4-4.2-1.6c-0.2-0.1-0.6-0.2-1.7-0.6c-8.4-3.1-1.5-1.6-8.4-3.1c-5.7-1.2,2.8,1.1-9.8-2.7c-12.4-2.3,0-1.5-20.9-4.8
		c-11.3-1.8-5.1-0.5-9.6-1.7c-7-1-0.9-0.1-7-1c-6.3-0.9,1.6,0.2-5.4-0.7c-6.3-0.8-0.9-0.1-8.1-0.8c-6-0.6-1.9-0.2-8.2-0.6
		c-6.2-0.4-1.1-0.5-8.6-0.5c-4.5,0-1.7,0.1-10.3,0c-13,0.5-3.3-1.3-21,0.8c-17.2,2-10.8,1-14.5,1.5c-10.1,1.9,2.7,0.6-19.2,3.3
		l-11.9,5.6c-5.2,2.4-13.1,6.9-13.6,6.4c-7.5,4.4-26.9,12.1-37,18.4c3.8,2.8,3,8.3,3,8.3c-7.3-4.9-33.4-5.2-34.2-6.1
		c-21,9.5-1.3,0.8-6,3c-11.4,5.4-1.7-1-16.5,8.5c-1-1.5-8.4,5.4-21.1,16c-5,4.1-6.8,7.9-11.2,13.5c-3.2,4-6.3,7.5-13.5,14.8
		c-0.7,0.7-16.5,25.5-21.9,34.6c2.3,7.3,8.5,10.2,8.2,28.8c-2.2,3.8-1.6,4.7-4.3,7.4c-0.7-0.5-5,4.4-5.7,3.8c-1-0.8-5.9,4-6,2.7
		c0,0-6.3,1.5-6.3,1.5c-1.9-2-2.2,3.9-2,7.9c0.6,8.6,0,16.1,0,19.1c0,1.9,0,2.7,0,4.4c0,1.5,0,1.9,0,2.3c0,1.1,0,2.4,0.1,4
		c0,0,0,1.2,0.1,2.3c0.3,5.2,1.3,13.3,1.4,14.3c0.7,2.3,1.2,8.8,2.5,13.4c1.4,5,2.5,6.2,3.8,10.3c2.3,7.3,3.4,11,3.9,11.8
		c1.3,2.2,1.9,1,4.9,5.1c3.5,4.7,2.7,4.3,8,12.2c2.4,3.6,3.8,5.5,4.2,8.6c0.3,2.1,0.5,3.1,0,4.4c-0.3,0.9-1.5,2.4-1.4,3.6
		c0.1,0.8,1.1,0.6,1.4,0.9c1.1,1.5,1.9,3.3,3,4.9c2,2.6,4.1,5.8,5.2,7.5c3.4,5.1,3.2,6.2,5.7,9.2c1.9,2.2,3.8,3.8,5.1,4.7
		c1.8,1.6,2,0.1,3.8,1.7c0.7,0.4,3.7,2,4.4,2.4l13.2,6.8c4.2,1.2,8,4.3,10.5,5.1c7.2,2.2,11,5,13.7,6c4.1,1.6,5.6,1.7,6.6,2.3
		c1.8,1,2.6,1,4.4,1.9c2.2,1.1,2.8,1.3,5.2,2.2c1.7,0.6,4.5,1.3,7.4,2.7c4.2,1.4,7.1,2.7,9,3c0.7,0.1,1.8,0.4,3.9,1.2
		c1.4,0.6,2.3,0.6,3.4,1c2.2,1,3.4,1.5,6.4,1.9c2,0.3,3.1,1.1,6.2,1.7c2.7,0.6,6,1,12,3.1c6.7,2.3,7.1,1.6,9.6,2.2
		c3,0.7,3.7,0.7,7.9,1.6c3.1,0.7,5.4,0.7,8.3,1.6c7.8,2.2,9,0.7,15.4,2.4c3.7,1,6.2,0.9,8.8,1.5c4.4,1,8.7,0.7,11.8,1.2
		c1.9,0.3,6,0.1,9.3,0.4c2,0.2,6,0.5,10.1,0.6c4.4,0.1,4.7,0.6,7.3,0.5c2.4-0.1,3.9,0.1,5.3,0c3.3-0.3,8,0.1,10.1,0
		c11.6-0.8,11.5-0.9,17.6-1.3c4.5-0.3,12.9-0.8,19.9-1.5c6-0.5,5.7-0.7,15.2-1.6c3.1-0.3,5.8-0.5,9.6-1.1c2.9-0.4,5.1-0.9,7.1-1.2
		c5.3-1,8-1.5,10-2.2c2.9-1,5.7,0.1,9.7-2.2c3.1-0.4,6.2-1.7,10.1-2.9c6.7-1.9,5.8-2,8.1-2.5c1.7-0.4,2.6,0.2,4-0.5
		c1.9-1,3.1-1.6,4.1-1.4c1.5,0.4,3.9-1.4,11-3.9c3.6-1.3,8.2-4.2,12.7-5.1c3.9-0.8,5-2.3,7.2-3.3c3.5-1.5,8.4-3.9,10.5-5.2
		c2.5-1,3.4-1.6,6.4-3.4c2.7-1.7,4.2-3.4,4.6-3.8c1.7-1.5,1.8-1.5,3.7-4.4c0,0,3.1-2.8,6.2-6.3c1.3-1.5,4.9-6.1,6.9-9.1
		c1.6-2.3,3.2-5.5,5.3-11.2c1-2.5,2.7-8,3.3-9.9c7-23.2,12.9-41.1,17.7-50.8c4.5-9.3,5.2-12.6,9.4-22.2c0.2-0.4,2.1-6.8,3.6-14.3
		C650.7,405.5,651.5,400.6,650.3,397z"/>
	<path class="st3" d="M659,275.9c4,0,9.9,0.8,15.4,4.5c3.7,2.4,6.2,5.5,7,6.5c3.5,4.3,3.3,6.4,6.5,9.9c3.5,4,5.2,3,7.9,6
		c4.3,4.5,4.4,10.9,4.5,21.4c0.1,7.4-0.8,8.6-0.5,17.4c0.2,5.5,0.7,8.9,1,10.4c1,6.2,2.1,7.6,3,11.9c1,4.8,2.6,12.9-1,19.9
		c-3,5.8-7.1,5.8-10.4,13.4c-0.7,1.7-0.7,2-2,7c-3.6,13.6-5.1,14.6-6.5,21.9c-1.6,8.4,0.1,8.6-1.5,14.9c-1,4.2-2.4,6.3-8.4,16.4
		c-7.1,11.9-10.6,17.8-11.4,19.4c-5.6,10.3-5.8,12.4-9.9,17.4c-3.3,4-4.8,4.6-7,8.4c-3.4,6.1-2.4,9.4-5.5,12.4
		c-2.8,2.7-7.7,4.6-12.4,3c-5.2-1.8-10.6-14-10.8-14.7"/>
	<path class="st3" d="M135,385.7c1.5-0.2,3.8-0.2,6.5,0.5c4.1,1.1,6.7,3.4,8.4,5c2.9,2.6,4.4,5.1,7,9.4c1.4,2.4,3.6,6.4,5.4,10.6"/>
	<path class="st3" d="M690.3,307.9c-1.2,4.9-2.8,8.5-4,10.9c-1.7,3.3-2.8,4.6-3.7,7.9c-0.7,2.3-0.8,4.2-1,7.9
		c-0.4,5.8,0.2,5.9-0.2,9.4c-0.7,5-2.3,8.6-2.7,9.4c-1.5,3.1-1.9,2.4-4.2,6.7c-1.4,2.6-1.3,2.8-4.2,8.9c-1.5,3-1.7,3.3-2.2,4.7
		c-1.4,3.5-1.5,4.9-2.2,7c-1.3,3.3-3.9,6.3-6.2,7.7c-6.2,3.7-17.4-0.3-22.4-7.4c-2.9-4.2-3-9.8-3.2-20.9c-0.1-5.4-0.2-8.1,0.5-11.2
		c1.4-6.5,3.9-8.3,6.2-17.4c0.5-2.1,0.3-1.5,1.5-6.7c0.9-3.9,1.4-5.5,1.2-7.9c-0.1-1.8-0.4-3.3-0.7-4.2"/>
	<path class="st3" d="M640.7,331.8c-0.8-4.6-4-12.6-5-14.9c-2.1-5.3-4-7.2-5.7-12.2c-1.4-4-1.8-7.5-2-9.7"/>
	<path class="st3" d="M760.1,276.7c-2.4-0.8-32.5-6.4-37-7.5c-5.4-1.3-9.5-1.9-11.4-2.2c-12.2-1.9-12.6-2.7-24.8-4.7
		c-7.1-1.2-16.8-2.5-28.3-3.2c-0.3,0-7.4-0.4-16.9,0c-9.4,0.4-12.2,1.3-14.7,2.7c-3.4,2-5.3,4.5-8.4,8.4
		c-3.1,3.9-9.1,15.6-10.4,18.3"/>
	<path class="st3" d="M668.1,467c-0.8,5.1-2.4,14.5-3.9,16.8c-1.2,1.9-2,2.7-4.7,6.7c-0.3,0.4-2.2,3.2-4,6.2
		c-3.9,6.5-3.9,8-7.5,14.2c-2.6,4.4-2.4,3.3-5.5,8.4c-4.2,7.1-4.1,8.6-7,11.4c-3.3,3.4-4.6,2.5-7.5,6c-1.9,2.2-1.8,3.1-4.7,8.9
		c-3,5.9-4.4,8.8-6.2,9.9c-4.8,3.1-11,0.9-12.9,0.2c-1.9-0.7-7-2.4-8.9-7.2c-0.6-1.4-1.9-8.5-2-9.4"/>
	<path class="st3" d="M532.8,226.9c28.6,18.3,72.3,51.8,91.8,81c5.9,9.8,9.8,21.5,12.3,34.1"/>
	<path class="st3" d="M645.9,462.3c-1.2-0.2-4.3-0.5-7.6,1c-2.6,1.2-10.4,9-11.2,10"/>
	<path class="st3" d="M668.1,430.9c-2.2-0.8-6.4-2-11.6-1.3c-3.6,0.5-13,5.4-14.8,6.3"/>
	<path class="st3" d="M665,391.6c-1.9,1-5.3,3.1-8.2,7c-2.4,3.3-6.1,8.9-6.6,10.9"/>
	<path class="st3" d="M164.4,440.4c1.8,1.1-2-13.3-1.5-15.5"/>
	<path class="st3" d="M631,461.2c0.3,3.7,0.3,3.7,0.7,7.5"/>
	<path class="st3" d="M160.5,407.5c0.4-1.7,1.6-9.2,2-10.9"/>
	<path class="st3" d="M644.8,434.3c0.2-2.2,0.3-4.3,0.5-6.5"/>
	<path class="st3" d="M109.2,349.9c-0.1,0-0.2,0-0.3,0c-21.6-3.7-46.7-9.4-61.5-27c-16.7-19.8-14.7-54.1-5.8-76.7
		c5.7-14.6,16.2-21,31.8-17.6"/>
	<path class="st3" d="M171.4,323.2c-2.4-2.3-4.9-4.1-7.1-5.6"/>
	<path class="st3" d="M131.5,311.2c-1.2,5-1.7,9.3-2,12.4c-0.4,4.8-0.6,7.4,0,10.9c0.3,1.9,1.1,6.1,4,10.4c2.1,3.3,2.9,2.8,7.5,7.9
		c0.8,1,2.3,2.6,4,4.9c0.8,1.1,1.6,2.2,2.5,3.6c3.2,4.8,2.8,5.6,5,7.9c1.1,1.1,3.9,4.1,8.5,5.5c6.7,1.9,12.5-1,14.4-2
		c2.1-1.1,7.3-3.8,9.9-9.9c2.2-5.1,1.2-9.7,0-15.4c-0.5-2.3-2-8.6-6.5-15.5c-0.7-1.1-1.5-2.2-2.4-3.4c-1.6-2-3.2-3.7-4.8-5.3"/>
	<path class="st3" d="M130,356.4c1.5-0.4,3.8-0.8,6.5-0.5c1.5,0.2,7.4,1.5,8.4,1.9"/>
	<path class="st3" d="M160.8,298.1c1.6,1.3,3.7,3.4,5.6,6.3c2.2,3.4,3.1,6.5,3.7,8.3c0.4,1.5,0.8,3,0.8,3.2c0,0.1,0,0.2,0.1,0.3
		c0.2,1.6,0.4,6.2,0.5,7.1v0"/>
	<path class="st3" d="M170.9,316.1C170.9,316.1,170.9,316.1,170.9,316.1c1.5,0.5,7.1,1.1,9.4,0.6c3.9-0.8,6-4,8.1-7.2
		c1.6-2.5,2.4-4.5,3.7-8.2c1.2-3.4,2.1-6.2,2.6-8.2"/>
	<path class="st3" d="M73.4,228.5c43.8,15,113.7,8.5,140.9,53.8"/>
	<path class="st3" d="M162.9,424.9c-1.2-16.6-0.5-33,0.3-49.5"/>
	<path class="st3" d="M216.1,280.3c14.6-20.4,30.6-29.1,53.1-38.9"/>
	<path class="st3" d="M178.9,331.7c3.5-6.3,8.3-13.7,13.7-21.3c7.1-10.1,15.1-20.3,21.7-28.1c0.6-0.7,1.2-1.4,1.8-2.1"/>
	<path class="st3" d="M155.4,261c-2.4,2.2-5.8,5.5-9.9,9.4c-10.5,10.2-12.1,12.3-12.9,13.4c-3.6,5-4.8,10-7.5,19.4
		c-1.2,4.1-1.4,5.5-2.5,9.9c-2.1,8.6-4,15.4-7,22.8c-2.8,7-4.9,10.1-6.7,13.8c-1,2.2-1.9,4.5-2.7,8c-0.9,3.6-1.7,6.9-1.5,11.4
		c0.3,7.9,3.3,11.6,6.5,19.9c1.6,4.2,0.9,3.5,5,21.9c3.3,15,5,22.5,6.5,26.8c3,8.7,6.3,15,11.9,25.8c4.7,8.9,7,13.4,9.4,16.9
		c2.5,3.5,5.6,8.7,11.3,13.8c0.2,0.2,0.4,0.4,0.8,0.7c3.2,2.7,11.3,9.6,20.7,9.4c1.4,0,10.6-0.2,13.9-6c4.7-8.1-5.9-21.3-11.9-28.8
		c-4.4-5.5-9.4-11.6-16.9-12.9c-5.9-1.1-11.8,0.6-11.8,0.6c-1.9,0.6-3.5,1.3-4.6,1.9"/>
	<path class="st3" d="M155.3,494.4c0,0,3.5,12.2,4.6,14.7c1.5,3.5,2.3,4.8,4,6.6c1.2,1.3,2.8,2.4,6,4.6c2.7,1.9,3.9,2.5,6,4.3
		c1.3,1.2,2.1,1.9,3,3c2.1,2.7,1.9,4.4,3.3,7c1.8,3.1,4.4,4.8,5.3,5.3c1.1,0.7,6.6,4.1,12.3,1.7c6.1-2.6,7.5-9.1,7.5-9.4
		c0.5-2.8,0-8.2-0.4-9.4"/>
	<path class="st3" d="M129.5,428.4c0.8-1.1,3.3-4.2,7.5-5c2.9-0.6,5.2,0.2,7.5,1c3.4,1.2,5.7,2.9,8.4,5c1.8,1.4,11.9,11.8,14.5,14.7
		"/>
	<path class="st3" d="M629.8,466.2c0.2,2.5,0.2,2.5,0.4,5"/>
	<path class="st4" d="M238.8,535.2c1.2-5.7,2.5-11.5,4-17.4"/>
	<path class="st3" d="M299.6,239.2c18.7-7.9,42.5-21.8,62.2-29.3c58.3-12.5,124.4-5.3,171,16.9"/>
	<path class="st3" d="M214.9,281.4c14.6-20.3,31.8-30.2,54.3-40"/>
	<path class="st3" d="M177.7,332.9c8.5-15.5,25.5-38,37.2-51.4v0"/>
	<path class="st3" d="M329.9,270.5c-11.3-22.3-37.7-28.4-60.7-29.1"/>
	<path class="st5" d="M329.9,270.5c0.3,1.5-0.2,6.5,0,8.8c0.2,1.8,0.2,3,0.3,4.8c0.2,3.8,0.3,5.7,0,7.9c-0.2,1.6-0.5,4.1-0.7,4.9"/>
	<path class="st5" d="M299.6,239.3c0.2,0,2.2,1.9,3,3c1,1.2,0.7,5.3,0.6,5.4"/>
	<path class="st5" d="M391.7,235.8c-0.1,2,0.1,8.1-0.2,11.8c-0.3,3.4-0.4,3.6-0.5,5.6c-0.5,7.3,0.3,11.8-0.2,11.9
		c-0.4,0.1-1.2-3-2-5.8c-0.5-1.8-1-3.8-1.5-6.6c-0.4-2.5-0.6-4.7-1-9.1c-0.1-0.8-0.1-1.5-0.2-2"/>
	<path class="st5" d="M423,266.4c-0.8,2.4-4.8,8.6-5.8,12.7c-1.5,6-2.3,8.9-2.5,13.1c-0.2,3.6,0.2,5.2-0.2,11.4
		c-0.1,2-0.2,3.7-0.3,4.8"/>
	<path class="st4" d="M423.9,274.2c-1.6,4.9-2.7,8.9-3.5,12c-1.5,5.7-1.7,7.3-1.7,8.2c-0.3,3.1,0,4.6,0,9.5c0,3-0.1,5.4-0.2,7"/>
	<path class="st4" d="M428.1,271.5c-0.6,1-2.3,8.5-2.7,10.5c-0.7,3.1-0.1,4.9,0,8.5c0,1.5-0.1,1.1-0.7,7.5c-0.3,3.1-0.7,7.2-1,12
		c-0.1,2.7-0.2,4.8-0.2,6.2"/>
	<path class="st4" d="M430.6,280.7c1,5.3,0.7,9.4,0.2,12.2c-0.6,3.5-1.3,4.3-2,9.2c-0.6,4-0.4,5.2-1,9c-0.6,3.6-1.4,6.4-2,8.2"/>
	<path class="st4" d="M434.6,279.6c0.1,3.9,0.3,8.9,0,11.1c-0.3,2-0.5,2.4-1.2,6.7c-0.8,4.7-0.7,4.7-1.2,7.5c-1,5-1.5,5.7-2.2,9.7
		c-0.4,1.9-0.8,4.7-1,8.2"/>
	<path class="st4" d="M438.3,284.4c-0.1,3.8-0.4,6.9-0.7,9c-0.3,2.1-0.5,2.4-1.5,7.7c-0.5,2.4-1,5-1.5,8.2c-0.7,4.3-0.7,5-1.2,8.2
		c-0.4,2.3-1,5.7-2,9.7"/>
	<path class="st4" d="M442.8,283.7c-0.5,1.5-1.9,8.6-2.5,11.4c-0.6,2.9-0.5,3.5-1,6.2c-1,5-1.7,4.8-2.2,8.5
		c-0.6,3.8,0.2,4.2-0.5,8.5c-0.4,2.4-0.7,2.9-1.2,5.5c-0.6,3.3-0.7,6-0.7,7.7"/>
	<path class="st4" d="M444.6,291.4c0,3.3-0.4,6-0.7,8c-0.9,4.7-1.8,5.6-2.5,10.2c-0.6,4.1,0,4.2-0.7,7.7c-0.9,4.7-1.9,4.2-2.5,8
		c-0.3,2.1,0,2.6,0,10.5c0,1.5,0,2.7,0,3.5"/>
	<path class="st4" d="M447.3,289.5c-0.5,3.1-1.2,11.9-2,16.8c-0.8,5.3-1.6,10.1-2.2,15.7c-0.6,5-1.3,11.7-1.7,19.7"/>
	<path class="st4" d="M450.3,295.9c0,0.9,0.1,2.2,0,3.7c-0.2,5.3-1.4,8.3-2.2,12c-1.2,5.1-0.1,3.6-1.7,15.5c-0.6,4.3-1,6.1-1.5,10.7
		c-0.4,3.4-0.6,6.1-0.7,8"/>
	<path class="st4" d="M453.4,297.7c-0.5,5-1.1,13.4-1.7,16.2c-1,5.3-1.8,7.2-2.5,12.5c-0.6,4.4-0.2,4-0.7,7.5
		c-0.7,4.3-1.6,6.4-1.5,10.2c0,1.9,0.3,3.5,0.5,4.5"/>
	<path class="st4" d="M456,305.1c-0.6,7.2-1.5,13-2.2,16.9c-1.1,5.8-2,8.8-2.7,14.5c-0.7,5.5-0.8,10-0.7,13"/>
	<path class="st4" d="M460.4,308.5c-0.3,6-3.8,18.7-4.4,22.1c-0.8,4.9-1.5,7-2.2,11.7c-0.8,5.6-1,10.2-1,13.2"/>
	<path class="st4" d="M461,318.8c-0.7,5.5-1.3,10.2-1.7,13.7c-0.7,5.1-1.2,8.7-2,13.5c-0.8,4.5-1.5,8.1-2,10.7"/>
	<path class="st4" d="M464,319.3c-0.5,2.5-1.8,13.6-2.4,17.9c-1.4,9-2.3,16.9-2.2,17c0.1,0,0.6-4.3,0.7-4.2c0.1,0-0.3,3.9-1.2,12.7"
		/>
	<path class="st4" d="M465.5,332.8c-1.1,5.5-2,11.5-2.7,17.9c-0.7,5.8-1,11.3-1.2,16.4"/>
	<path class="st4" d="M469.7,326.2c-0.5,4.5-1.1,13.8-1.5,18.6c-0.5,5.5-0.9,10.9-1.2,16.2"/>
	<path class="st4" d="M471.2,342.8c0.1,3.7,0.1,7.6,0,11.7c-0.3,8.8-1.1,16.9-2.2,24.2"/>
	<path class="st4" d="M477.5,349.5c-0.2,2.9-0.5,12.3-0.7,15.2c-0.4,8.5-0.3,9.5-0.7,18"/>
	<path class="st4" d="M479.7,362.7c-0.5,5.3-0.7,11.1-0.7,17.2c0,6.4-0.2,6.9,0.3,12.4"/>
	<path class="st4" d="M483.9,362.7c-0.1,5,0.1,18,0,23.2c0,5.6,0,11.2,0,16.7"/>
	<path class="st4" d="M473.2,352.5c-0.3,9.9-0.7,19.8-1,29.7"/>
	<path class="st4" d="M488.4,380.4c-0.8,4.5-1.4,9.8-1.5,15.7c-0.1,4.5,0.1,8.6,0.5,12.2"/>
	<path class="st4" d="M493.2,384.7c-0.2,5-1.8,20.8-2,25.8c0.2,1.7,0.5,3.5,0.7,5.2"/>
	<path class="st4" d="M494.7,419.3c0.6-5.2,1.2-10.5,1.7-15.7"/>
	<line class="st4" x1="394" y1="242.6" x2="399.2" y2="236.1"/>
	<path class="st4" d="M403.7,236.8c-3.4,3.8-6.8,7.6-10.2,11.5"/>
	<path class="st4" d="M396.5,251.5c3.5-5.5,7-11,10.5-16.5"/>
	<path class="st4" d="M393.7,261.5c5.7-9,11.5-17.9,17.2-26.9"/>
	<path class="st4" d="M396.5,263c6.4-9.8,12.8-19.6,19.2-29.4"/>
	<path class="st4" d="M401.3,262.7c6.8-10.9,14-22.3,20.8-33.2"/>
	<path class="st4" d="M403.2,266c6.4-10.6,12.8-21.1,19.2-31.7"/>
	<path class="st4" d="M407.9,265c6-9.9,12-19.8,17.9-29.7"/>
	<path class="st4" d="M413.3,264c5.4-9.7,16.4-28.3,21.8-38"/>
	<path class="st4" d="M416.9,266c5.4-10.1,10.8-20.1,16.2-30.2"/>
	<path class="st4" d="M420.9,264.5c5-9.3,12.6-23.5,17.6-32.8"/>
	<path class="st4" d="M429.1,259.5c3.4-7.5,6.8-15,10.2-22.4"/>
	<path class="st4" d="M433.1,260.3c3.2-7.5,9.6-22.1,12.8-29.6"/>
	<path class="st4" d="M446.3,237.8c-2.7,7.6-5.5,15.1-8.2,22.7"/>
	<path class="st4" d="M453.4,228c-2.3,6.7-8.3,24-10.6,30.7"/>
	<path class="st4" d="M456.2,234.2c-2.7,6.1-8.2,18.9-10.9,25.1"/>
	<path class="st4" d="M461.7,231.7c-3.1,7.2-9.1,21.4-12.2,28.6"/>
	<path class="st4" d="M467,228.9c-3.1,7.2-10.1,23.8-13.2,31.1"/>
	<path class="st4" d="M466.5,237.8c-2.9,7.1-5.8,14.3-8.7,21.4"/>
	<path class="st4" d="M471.3,233.5c-2.9,7.2-7.6,19-10.6,26.2"/>
	<path class="st4" d="M472.5,238.8c-2.6,7.2-5.2,14.5-7.7,21.7"/>
	<line class="st4" x1="476" y1="239.6" x2="467.7" y2="261.3"/>
	<path class="st4" d="M482.1,234.3c-3.1,7.6-8.1,20-11.1,27.7"/>
	<path class="st4" d="M484.9,239.3c-3.2,7.3-6.5,14.6-9.7,21.9"/>
	<path class="st4" d="M490.4,237.1c-3.4,7.5-7.8,17.2-11.2,24.7"/>
	<path class="st4" d="M493.2,239.8c-3.7,7.3-7.3,14.6-11,21.9"/>
	<path class="st4" d="M498.7,237.8c-3.7,7.3-9,17.6-12.7,24.9"/>
	<path class="st4" d="M501.1,241.3c-3.7,6.8-7.3,13.6-11,20.4"/>
	<path class="st4" d="M505.7,241.7c-3.6,6.1-8.5,14.6-12.1,20.8"/>
	<path class="st4" d="M506.1,246.8c-3.7,6.6-5.5,9.9-9.2,16.5"/>
	<path class="st4" d="M509.2,248.3c-3.4,6.1-4.9,8.8-8.3,15"/>
	<path class="st4" d="M512,250c-3.2,4.9-4.4,6.9-7.6,11.8"/>
	<path class="st4" d="M514.7,250.9c-2.7,5.2-4.4,8.2-7.1,13.3"/>
	<path class="st4" d="M517.8,252.4c-2.7,4.9-3.7,6.6-6.5,11.5"/>
	<path class="st4" d="M521.2,251.9c-2.2,4.2-4.4,8.1-6.6,12.3"/>
	<path class="st4" d="M521.9,256.8c-2.2,3.6-2.2,3.6-4.3,7.1"/>
	<line class="st4" x1="528.1" y1="255.3" x2="521.6" y2="265.2"/>
	<path class="st4" d="M533.7,255.5c-1,1.1-4.1,3.8-5.1,5c-1.5,1.8-2.8,3.5-4,5.2"/>
	<line class="st4" x1="534" y1="259.3" x2="528.1" y2="266.5"/>
	<path class="st4" d="M537.8,259c-2,2.7-4,5.5-6,8.2"/>
	<path class="st4" d="M540,260.3c-1.2,2.3-2.3,4.7-3.5,7"/>
	<path class="st4" d="M543.3,260.8c-1.4,2.1-2.8,4.2-4.2,6.2"/>
	<path class="st4" d="M546.3,262c-1.7,1.9-3.3,3.8-5,5.7"/>
	<path class="st4" d="M549.7,263c-1.8,1.7-3.7,3.5-5.5,5.2"/>
	<path class="st4" d="M554.5,263.7c-2.2,1.6-4.3,3.2-6.5,4.7"/>
	<path class="st4" d="M557,265c-1.7,1.6-3.5,3.2-5.2,4.7"/>
	<path class="st4" d="M560.5,266.7c-2,1.2-4,2.5-6,3.7"/>
	<path class="st4" d="M563.7,268.5c-1.7,1-3.5,2-5.2,3"/>
	<path class="st4" d="M387.2,265.2c-1.7-3.9-3.6-9.6-4.3-16.6c-0.6-5.5-0.2-10.3,0.3-14"/>
	<path class="st4" d="M380.2,231.7c0,3.6,0,9.5,0.2,13.3c0.3,7,0.9,13.6,1.7,19.8"/>
	<path class="st4" d="M377.3,233.3c-0.6,3.3-0.9,6.3-1,8.8c-0.1,2-0.3,7,0.3,13.5c0.3,3.3,0.8,6.2,1.3,8.6"/>
	<path class="st4" d="M372.7,229.7c0.4,7.1,1.4,16.8,1.8,23.9c0.2,3.2,0.3,6.4,0.5,9.6"/>
	<path class="st4" d="M370.2,231.7c-0.1,3.9-0.1,8.2,0.2,12.6c0.3,6.2,1,11.9,1.8,17.1"/>
	<path class="st4" d="M367.4,230.7c-0.2,4.4-0.2,8.1-0.2,10.8c0,3.7,0,6.2,0.3,9.6c0.3,3.3,0.7,6.1,1,8"/>
	<path class="st4" d="M363.6,227.5c0.1,1.6,0.3,6.2,0.5,9.2c0.3,5.8,0.2,8.3,0.5,13.1c0.1,2.2,0.4,5.4,0.8,9.3"/>
	<path class="st4" d="M359.9,228.9c0.1,2.1,0.2,5,0.3,8.5c0.2,4,0.3,6.4,0.7,9.5c0.3,2.4,0.7,5.7,1.5,9.6"/>
	<path class="st4" d="M355.6,226.3c0.3,3.1,0.7,9,1,12.2c0.5,4.9,1.1,9.7,1.7,14.5"/>
	<path class="st4" d="M351.9,227.7c0.2,3.3,0.5,5.9,0.7,7.6c0.4,3.6,0.8,5.5,1.5,10.6c0.4,2.8,0.7,5.1,0.8,6.5"/>
	<path class="st4" d="M348.8,227c-0.4,4.6-0.1,8.3,0.2,10.8c0.3,2,0.6,3.6,1.5,9.6c0.3,1.9,0.5,3.5,0.7,4.5"/>
	<path class="st4" d="M345.3,227.7c0.1,3.5,0.3,7.2,0.7,11.1c0.4,3.8,0.9,7.4,1.5,10.6"/>
	<path class="st4" d="M342,229.7c0.5,2.3,0.9,4.2,1.2,5.7c0.8,4.1,1.2,7.3,1.5,10c0.2,1.8,0.4,3.3,0.5,4.3"/>
	<path class="st4" d="M338.1,228c0.5,3.9,1.1,7,1.5,9.1c0.5,2.5,1,5.1,1.5,9c0.2,1.3,0.3,2.4,0.3,3.2"/>
	<path class="st4" d="M335.6,230.2c0.5,3.8,1.2,7.7,2,11.8c0.5,2.6,1.1,5.2,1.7,7.6"/>
	<path class="st4" d="M331.8,229.5c0.4,3,0.9,6.2,1.7,9.6c0.9,3.9,1.9,7.4,3,10.5"/>
	<path class="st4" d="M328.5,230.3c0.3,2.5,0.6,4.7,1,6.3c0.5,2.4,0.9,3.6,1.7,6.5c0.6,2.4,1,4.5,1.3,6.1"/>
	<path class="st4" d="M324,232.8c0.5,2.4,1.1,4.4,1.5,5.7c1,3.1,1.9,4.7,3,8.3c0.4,1.3,0.7,2.5,0.8,3.2"/>
	<path class="st4" d="M321.4,234.2c0.6,2.3,1.2,4.7,1.8,7.1c0.7,2.8,1.5,5.4,2.3,8"/>
	<path class="st4" d="M317.9,236.5c0.5,1.7,1,3.6,1.7,5.5c0.8,2.5,1.7,4.7,2.7,6.8"/>
	<path class="st4" d="M315.2,237c0.3,1.4,0.7,2.9,1.2,4.5c0.8,2.6,1.7,4.9,2.7,7"/>
	<path class="st4" d="M313.2,239.7c0.2,1.3,0.6,2.9,1.3,4.7c0.6,1.6,1.3,2.9,2,4"/>
	<path class="st4" d="M309.6,238.5c0.3,1.6,0.8,3.6,1.7,5.7c0.6,1.6,1.3,3,2,4.2"/>
	<path class="st4" d="M307.4,240.8c0.6,1.3,1.1,2.5,1.7,3.8c0.6,1.3,1.1,2.7,1.7,4"/>
	<path class="st4" d="M304.7,241.5c0.9,1.8,1.8,3.5,2.7,5.3"/>
	<path class="st4" d="M327.7,275.4c0.3,1.9,0.6,4.4,0.7,7.5c0,1.2,0.1,2.7,0,4.7c-0.1,2.1-0.4,4.9-1.2,8.3"/>
	<path class="st4" d="M324.4,272.2c-0.2,3.3,0.5,10.5,0.5,12.9c-0.1,4.6-0.2,8.3-0.2,10.8c0,0.8,0,1.5,0,2"/>
	<path class="st4" d="M321.7,278.4c0,3.7-0.2,7.6-0.5,11.6c-0.2,3-0.5,6-0.8,8.8"/>
	<path class="st4" d="M318.1,274.2c-0.1,3.2-0.1,12.5-0.4,16.1c-0.4,3.8-0.9,7.3-1.5,10.6"/>
	<path class="st4" d="M314.4,284.3c-0.3,3.9-0.8,8-1.3,12.3c-0.4,2.6-0.7,5.2-1.2,7.6"/>
	<path class="st4" d="M313.2,278.8c-1.2,3.8-4.1,13.5-4.5,19.2c-0.2,2.7-0.1,5.2,0,7.5"/>
	<path class="st4" d="M306.9,286.2c-0.2,4.6-0.4,9.2-0.7,14c-0.1,2.4-0.3,4.8-0.5,7.1"/>
	<path class="st4" d="M304.7,283.7c-0.3,4.5-1.7,13.5-1.8,15.9c-0.1,1.8-0.1,3.7-0.3,6.3c-0.2,2.4-0.5,4.4-0.7,5.7"/>
	<path class="st4" d="M299.1,290.8c-0.1,3.9-0.3,7.8-0.5,11.8c-0.2,3.6-0.4,7.2-0.7,10.6"/>
	<path class="st4" d="M296,287.6c0.1,3.6,0,12.9-0.5,17.4c-0.4,3.5-1,6.8-1.7,9.6"/>
	<path class="st4" d="M292.3,293.7c0.8,4.6,0.6,8.3,0.2,10.8c-0.4,2.6-1,3.9-1.7,7.6c-0.6,3.4-0.9,6.2-1,8.1"/>
	<path class="st4" d="M288.5,287.6c0.3,6,0.3,17.2,0,20.2c-0.3,3-0.8,6.1-1,7c-0.4,2.4-0.8,4.4-1.2,6"/>
	<path class="st4" d="M286.1,296.3c0.3,6.1-0.2,10.6-0.8,13.6c-0.3,1.3-0.8,3.9-1.5,8c-0.4,2.3-0.7,4.2-0.8,5.5"/>
	<path class="st4" d="M283,292.5c0.8,5.3-0.2,15-1,17.6c-1.1,3.6-2.8,5.9-3.2,10.3c-0.2,2.6,0.1,4.8,0.3,6.1"/>
	<path class="st4" d="M276.3,327.9c-0.1-1.7-0.2-4.1,0-7.1c0.2-2.9,0.6-5,1-6.8c0.5-2.8,1.2-7,1.8-12.3"/>
	<path class="st4" d="M276.2,298c-1.3,3.9-2.2,14.6-2.5,16.9c-0.4,2.7-0.5,5.2-0.7,10c-0.1,2.2-0.1,4-0.2,5.3"/>
	<path class="st4" d="M269.5,332.2c-0.5-4.4-0.3-7.9,0-10.3c0.4-2.9,1-5.7,1.7-8.3c0.4-1.9,0.9-3.4,1.2-4.5"/>
	<path class="st4" d="M267.7,311.6c-0.7,2.4-1.3,9.6-1.7,12.8c-0.5,4.1-0.4,7.7-0.2,10.6"/>
	<path class="st4" d="M263.7,320.9c0.1,2.5,0,4.5-0.2,5.8c-0.2,2.4-0.6,4-0.8,7.3c-0.1,1.2-0.1,2.2-0.2,2.8"/>
	<path class="st4" d="M259.6,322.8c0.1,2.2,0.6,7,0.4,9.7c-0.2,2.6-0.6,4.9-1,7"/>
	<path class="st4" d="M257.4,327.6c0.3,2.6,0.2,4.6,0,6c-0.2,1.3-0.5,2.5-0.7,4.7c-0.1,1.3-0.2,2.3-0.2,3"/>
	<path class="st4" d="M254.9,328.9c-0.4,1.8-0.8,6.5-1,9c-0.1,1.7-0.1,3.3,0,4.7"/>
	<path class="st4" d="M251.4,334.4c0.1,1.6,0.1,3.3,0,5.2c-0.1,1.8-0.2,3.4-0.3,5"/>
	<path class="st4" d="M248.6,335.7c-0.3,1.8-0.6,6.2-0.8,8.1c-0.2,1.7-0.4,3.3-0.5,4.8"/>
	<path class="st4" d="M245.4,341.3c-0.2,1.5-0.5,3-0.7,4.5c-0.2,1.7-0.5,3.3-0.7,5"/>
	<path class="st4" d="M241.4,346.5c-0.4,1.7-0.8,3.6-1,5.7c-0.1,0.9-0.1,1.8-0.2,2.7"/>
	<path class="st5" d="M346.3,346.2c-1.1-1-15.2,9-25.2,25.2c-6.6,10.6-8.9,20-11.3,29.8c-6.6,27.3-4.7,50.3-4,50.3
		c0.6,0,1.2-15.4,6-41.3c1.6-8.6,2.8-13.7,5.5-19.9c2.4-5.5,4.7-8.9,12.9-20.6C345.1,348.6,346.7,346.6,346.3,346.2z"/>
	<path class="st5" d="M510.1,305c0.2-0.5,4.3,0.9,11.5,3.2c4.1,1.3,8.3,2.8,10.9,3.8c12.6,4.9,25.4,9.8,37.3,20.4
		c3,2.7,14.3,13.2,21.4,30.8c6.5,16.2,5.2,31.6,5.5,33.3c0.8,5.6-2.8-11.2-9-25.7c-8.5-19.9-8-23-15-30.4c-3.8-4-11.5-9.2-26.2-17.5
		C527.7,312.3,509.8,305.9,510.1,305z"/>
	<path class="st4" d="M174.3,384.7c-2.4,2-4.8,4-7.2,6"/>
	<path class="st4" d="M178.3,388.7c-1.6,0.7-3.6,1.8-5.7,3.5c-3.7,3.1-5.6,6.6-6.5,8.7"/>
	<path class="st4" d="M166.2,412c0.7-1.6,1.7-3.8,3.5-6.1c2-2.6,3.9-4.2,5.5-5.5"/>
	<path class="st4" d="M164.9,430.7c0.4-2.3,3.8-13,5.6-16.3c4.6-8.1,12.3-11.3,14.9-12.3"/>
	<path class="st4" d="M170.7,433.5c1.2-2.8,2.9-6.6,5.6-11c0.1-0.2,0.8-1.3,1.5-2.4c1.9-2.9,5.2-7.5,10.8-13.2"/>
	<path class="st4" d="M172.4,443.8c1.1-3.5,2.7-7.5,5.1-11.8c5.5-9.5,12.6-15.5,17.4-18.9"/>
	<path class="st4" d="M174,462.6c2-6.4,6.5-18.5,8.6-21.5c2.9-4.3,5.9-7.3,10.6-12.1c3-3,5.6-5.4,7.5-7.1"/>
	<path class="st4" d="M187.3,477c0.6-6.3,2.7-12.1,4.5-14.7c3-4.4,2.2-8,8.9-14.1c3.7-3.3,10.5-4,12.3-6"/>
	<path class="st4" d="M181.5,466.8c0.5-3.1,1.6-7.7,4.5-12.6c2.8-4.6,2.8-9.6,8.8-15.6c2.6-2.6,6-5.9,13.6-8.9"/>
	<path class="st4" d="M195.7,485c1.2-4.4,3.1-9.8,6.3-15.6c4.7-8.6,10.3-14.6,14.6-18.5"/>
	<path class="st4" d="M200.5,513.3c-0.2-10.4,4.1-23.7,6.5-27.9c1.2-2.1,2.3-3.5,8.9-11.9c4-5.1,7.5-9.4,10.3-12.9"/>
	<path class="st4" d="M214.1,528.7c0-5.2,0.2-21.1,3.1-29.1c1.3-3.6,3.8-10.1,9.6-16.9c3-3.5,6-6,8.3-7.6"/>
	<path class="st4" d="M223.8,530.7c0.6-6.6,2-15.1,5.3-24.5c3.6-10.5,8.3-18.7,12.3-24.5"/>
	<path class="st4" d="M249.7,543.3c3.6-9.4,10.3-27,12.6-40.1c1-5.8,1.6-11.4,2-16.6"/>
	<path class="st4" d="M272.5,523.3c1.6-6.2,3.8-20.1,5.3-26.7"/>
	<path class="st4" d="M279.2,549.2c1.8-7.7,3.6-15.6,5.3-23.5c2.3-10.7,4.5-21.3,6.6-31.8"/>
	<path class="st4" d="M289.6,559.1c2.5-6.4,4.6-18.3,6.8-25.8c3.8-13.3,2.7-5.5,4.1-16.6"/>
	<path class="st4" d="M313.9,498.6c-2.2,12.8-5.1,26.3-8.7,40.4c-1.7,6.5-3.4,12.8-5.2,18.9"/>
	<path class="st4" d="M327.9,504.4c-0.7,9.8-1.6,14.6-4.4,27c-2.6,11.6-8.3,26.4-11.6,35.1"/>
	<path class="st4" d="M344.4,500.9c-2.1,11-4.3,22.2-6.6,33.4c-2.1,10-4.2,20-6.3,29.8"/>
	<path class="st4" d="M356.7,514.6c-1,8.1-0.1,1.2-1.3,9.5c-2.1,14.7-8,37.1-10.5,51.1"/>
	<path class="st4" d="M371.9,503.2c-0.1,10.7-0.7,22.3-2,34.8c-1.4,13.1-3.4,25.2-5.6,36.1"/>
	<path class="st4" d="M389.8,516.8c0.7,10.1,0.2,10.5-1,23.8c-1.2,13.2-6.6,29.9-9.1,39.6"/>
	<path class="st4" d="M406.6,505.5c-0.8,8.9-1.8,18.1-3,27.5c-1.9,14.8-4.1,28.9-6.6,42.4"/>
	<path class="st4" d="M422.3,516c0.2,6.8,0,5-0.5,12.7c-1.2,18.3-6.9,40.7-10.8,53.8"/>
	<path class="st4" d="M434.8,506.2c1.4,8.5,2.4,18.7,2.3,30.1c-0.1,15.1-2.2,28.1-4.6,38.4"/>
	<path class="st4" d="M451,517.8c1.4,7.2,0.3,0.2,0.7,9.3c0.8,18.3-1.7,33.9-4.6,45.7"/>
	<path class="st4" d="M463.3,498.9c1.6,8.3,2.8,18.1,3,29.1c0.3,18.3-4.4,40.4-7.5,52"/>
	<path class="st4" d="M485.9,506.9c2.9,7.2,1.9,6.5,3.2,18.5c1.9,17.5-0.8,31.9-3.3,41.1"/>
	<path class="st4" d="M498.4,492c2.6,10.8,4.8,23.1,6.3,36.8c1.3,12.4,0.4,34.5,0.3,44.7"/>
	<path class="st4" d="M519.2,500.9c1.5,7.9,0.2,4.2,2.3,13.9c3.8,17.3,3.7,32.5,2.7,43.7"/>
	<path class="st4" d="M530.2,480.7c3.5,7,7.2,16.1,9.6,27.2c3.9,17.9,0,44.9-1.5,55"/>
	<path class="st4" d="M549.7,479.7c4.2,6.7,6.6,12.3,9.6,26.2c3.6,16.6,2.2,30.7,0.7,39.1"/>
	<path class="st4" d="M556,470.1c4.5,7.7,9.8,18.5,13.6,32.1c4,14.5,4.8,27.2,4.6,36.4"/>
	<path class="st4" d="M578.2,493.3c3.7,13.9,10.6,39.6,7.9,50.8"/>
	<path class="st4" d="M580.5,458.5c2.2,7.1,4.3,14.5,6.3,22.2c4.1,16.1,7.1,31.4,9.3,45.7"/>
	<path class="st4" d="M596.1,465.5c3,7,2.9,12,4.6,26.5c0.4,3.8,2.7,26.5,3.9,33.8"/>
	<path class="st4" d="M596.4,448.9c5.6,5.4,8.2,10.6,9.6,14.2c0.5,1.2,1.4,3.8,3.6,17.9c0.7,4.5,1.3,8.3,1.7,10.9"/>
	<path class="st4" d="M608.6,444.9c2.1,2.7,4.6,6.4,6.6,11.3c3.1,7.4,3.6,14,3.6,18.2"/>
	<path class="st4" d="M614.9,439.3c1.8,2.3,4.3,6.1,6,11.3c1.2,3.9,1.6,7.4,1.7,9.9"/>
	<path class="st4" d="M627.5,427.4c0.8,0.3,2.8,1.2,4.3,3.3c2.3,3.3,1.5,7,1.3,7.6"/>
	<path class="st4" d="M632.2,422.4c1.3,1.8,2.6,3.5,4,5.3"/>
	<path class="st4" d="M220.9,510.2c-5,1.8-9.9,3.5-14.9,5.3"/>
	<path class="st4" d="M195.8,506.3c5.4-2.1,10.7-4.3,16.1-6.4"/>
	<path class="st4" d="M197,493.9c6.6-2.8,13.2-5.5,19.9-8.3"/>
	<path class="st4" d="M190.4,479.7c7.5-2.8,15-5.5,22.5-8.3"/>
	<path class="st4" d="M181.3,461.2c4-1,7.9-2,11.9-3"/>
	<path class="st4" d="M184.1,446.6c4.9-1.9,9.7-3.8,14.6-5.6"/>
	<line class="st4" x1="170.9" y1="438" x2="180.5" y2="434.7"/>
	<path class="st4" d="M185.1,427c7-1.9,13.9-3.8,20.9-5.6"/>
	<path class="st4" d="M178.1,411.5c5.4-1.2,10.8-2.4,16.2-3.6"/>
	<path class="st4" d="M166.6,403.4c4.1-0.7,8.2-1.3,12.3-2"/>
	<path class="st4" d="M174,395.1c2.9-0.7,5.8-1.3,8.8-2"/>
	<path class="st4" d="M371.9,568.4c7.6-3.3,15.3-10,22.9-13.3"/>
	<path class="st4" d="M407.6,564c5.8-4,12.9-7,18.6-11"/>
	<path class="st4" d="M420.4,572.3c13-8,29.9-20.3,42.8-28.3"/>
	<path class="st4" d="M463.5,564.7c9.9-7.8,26.8-15.5,36.7-23.3"/>
	<path class="st4" d="M514.7,527.4c11.4-8.5,22.8-17.1,34.2-25.6"/>
	<path class="st4" d="M513.1,552.7c8.4-6.2,28.2-20.8,36.7-27"/>
	<path class="st4" d="M553.1,515.3c6.3-5.5,19.8-14,26.2-19.5"/>
	<path class="st4" d="M570.6,489.6c8.2-5.9,16.4-11.7,24.6-17.6"/>
	<path class="st4" d="M552.7,541.4c9.2-6.9,18.4-13.7,27.6-20.6"/>
	<line class="st4" x1="596.6" y1="502.6" x2="616.8" y2="483"/>
	<path class="st4" d="M588.9,465c6.2-5,12.4-10,18.6-15"/>
	<path class="st4" d="M603.9,473.3c5.4-5.2,10.9-10.4,16.3-15.6"/>
	<path class="st4" d="M622.8,444.4c2.5-3.1,5.1-6.2,7.6-9.3"/>
	<path class="st4" d="M344.8,308c-0.4,11.3,2.6,11.3,8.5,15.5"/>
	<path class="st4" d="M333.8,310c1,6.9,1.8,17.3,11,22.9"/>
	<path class="st4" d="M311.9,321.4c1.3,7.4,0,13.6,12.5,20.9"/>
	<path class="st4" d="M289,333.4c1.7,10.9,4.7,21.3,17.9,27.4"/>
	<path class="st4" d="M269.5,352.8c3.3,8.1,1.2,14.5,21.9,24.9"/>
	<path class="st4" d="M467.9,279.6c1,5.6-0.8,9-4,11.5"/>
	<path class="st4" d="M485.9,295c0,12.5-2,11.9-7,16"/>
	<path class="st4" d="M492.9,307.5c-1.7,11.8-4.4,13.3-10.5,17.4"/>
	<path class="st4" d="M513.3,315.5c-4.1,17.9-7.6,19.9-14.5,24.4"/>
	<path class="st4" d="M531.7,327.4c-2.6,25.1-4.5,21.6-19.4,35.9"/>
	<path class="st4" d="M549.2,346.9c-7.9,26.3-9.2,24.4-21.9,34.9"/>
	<path class="st4" d="M570.6,371.3c-9,20.9-14.7,21-29.4,28.9"/>
	<path class="st4" d="M302.4,257.1c-4,3.9-4,7.1-4,11"/>
	<path class="st4" d="M279.5,257.1c-6.6,5.9-5,14.3-5,20.4"/>
	<path class="st4" d="M256.1,263.1c-7.5,12.3-4.8,21.4-4.6,30.2"/>
	<path class="st4" d="M232.2,281.6c-10.1,12.8-5.6,24.3-4.5,33.4"/>
	<path class="st4" d="M369.2,337.4c4.6,2,7.9,1.8,15.5-2"/>
	<path class="st4" d="M362.8,363.8c10,1.5,22.1,1.5,32.4-7"/>
	<path class="st4" d="M360.8,389.7c11.1,2.7,23,4.2,42.9-6"/>
	<path class="st4" d="M364.3,416.2c13.8,3.1,25.4,3.1,37.9-7"/>
	<path class="st4" d="M505.8,277.1c1.8,4.5,0.2,4.6-1,7.5"/>
	<path class="st4" d="M531.7,281.1c3,10,1,8.5-2.5,14.5"/>
	<path class="st4" d="M554.2,289.5c0.3,6.4,1.7,10-4.5,17.4"/>
	<path class="st4" d="M577.6,294c0.5,6.9,3.2,13.8-3,20.9"/>
	<path class="st3" d="M527.7,271c17.3-0.6,35.5,3.5,53.1,9.4c0-9.8-11.7-11.7-17.6-15.6c-17.6-7.8-33.7-8-49.3-17.7
		c-3.9-2-4.7-7-26.9-12.4c-26.6-6.5-21.4-11.1-51.8-8.7c-9.7,0.8-35.9,11.5-45.7,9.5c-19.5-7.8-41-13.7-60.5-5.9
		c-9.8,2-19.5,7.8-29.3,9.6"/>
	<path class="st3" d="M232.8,363.8c-0.5-2.9,3.5-11,5.5-15.3c1.5-3.1,1.3-2.1,4.4-5.2c0.2-0.2,0.4-3.4,8.5-13.4
		c11-13.7,11-12.5,13.1-15.1c7.6-9.4,2.1-12,6.6-16.7c4.4-4.7,12.7-12.4,21.4-15.7c4.5-1.7,7-1.8,12.6-4c17.4-6.9,23.2-6.1,25.2-7.8
		"/>
	<path class="st3" d="M232.8,363.8c6.3-5.3,10.3-11.1,16.1-15c25.4-15.6,46.9-35.1,74.2-46.9c17.6-5.9,35.1-9.8,54.7-7.8
		c5.9,2,15.6,2,17.6,13.7c2,15.6,6.1,16.9,17.9,26.6c2,2,23.8,19.5,26.2,21c24.2,15.3,4.4,1.4,25.4,20
		c12.7,11.2,24.3,41.7,30.1,49.5l3.9-2c3.9-27.3-9.8-52.7-21.5-78.1c-2-3.9,0-5.9-2-9.8c-5.9-11.7-11.7-23.4-17.6-35.1
		c-7.8-15.6-21.5-21.5-33.2-31.2c-2-2,0-5.9,2-5.9c33.2-2,68.3,2,101.2,8.2"/>
	<path class="st3" d="M648.3,389.1c8,22.3-3.9,39.4-12.2,59.3c-8.7,21-14.2,43.4-22.2,64.7c-3.9,10.2-15.6,20.3-22.8,28.7"/>
	<path class="st3" d="M208.6,525.2c-6.7-8.5-12.5-17.5-18-26.8"/>
	<path class="st3" d="M175.3,465.5c-4.1-8.4-11.1-31.4-12.4-40.7"/>
	<path class="st4" d="M132.5,383.1c2.3-0.5,6.6-1.1,11.4,0.3c5.3,1.6,8.5,4.8,10.5,6.7c3.4,3.4,5.2,7,6.2,9.5"/>
	<path class="st4" d="M132.2,379.7c1.9-0.3,5.3-0.6,8.6-0.3c2.1,0.2,5.4,0.6,9.1,2.2c4.5,2,7.5,5.1,9.2,7.2"/>
	<path class="st4" d="M131.1,376c1.7,0,4.9,0,7.7,0.3c2.9,0.3,6.6,0.7,10.6,2.1c2.6,0.9,6.8,2.8,11.2,6.7"/>
	<path class="st4" d="M129.1,372.6c2.7-0.1,7.6-0.1,12.2,0.5c2.5,0.3,5,0.6,8,1.5c2.7,0.8,6.8,2.4,11.3,5.8"/>
	<path class="st4" d="M127,369.2c4-0.4,11.5-0.9,17.7,0.8c2.1,0.6,3.9,1.3,5.6,2"/>
	<path class="st4" d="M127.5,365.7c4.3-0.7,11.1-1,17.6,1.2c1.3,0.4,2.4,0.9,3.5,1.4"/>
	<path class="st4" d="M128.6,362.9c2.7-0.4,8.2-0.8,12.8,0.3c1.9,0.4,3.6,1,5.1,1.7"/>
	<path class="st4" d="M129.1,360.4c1.6-0.1,5.6-1,7.7-0.8c3.2,0.3,5.9,1,8,1.7"/>
	<path class="st4" d="M125.4,354.2c2-0.5,6.3-1.4,9.4-1.3c1.6,0.1,3.1,0.3,4.3,0.6"/>
	<path class="st4" d="M128.6,350.3c0.7-0.2,2.8-0.4,3.9-0.4c1.2,0,2.2,0.1,3,0.2"/>
	<line class="st4" x1="130" y1="347.2" x2="132.9" y2="347.2"/>
	<path class="st4" d="M136.7,420.6c4.8-0.6,10,0.1,11.8,0.8c5.3,2,8.6,5.8,10.6,8.1c1,1.2,1.7,2.2,2.2,2.9"/>
	<path class="st4" d="M137.6,417.4c2.2-0.1,8.1-0.4,12.1,1.1c6.2,2.4,9.7,6.6,11,8.6"/>
	<path class="st4" d="M138.9,413.2c2.7,0,9.4,0.3,14.9,3.4c3.2,1.8,5.5,4,6.9,5.7"/>
	<path class="st4" d="M139.1,409.7c3.4,0.7,8.8,0.7,12.8,2.2c3.1,1.1,5.9,2.3,8.4,3.5"/>
	<path class="st4" d="M138.7,406.2c1.8-0.3,7.9,0,11,0.7c5.7,1.3,7.7,3.8,9.2,5.3"/>
	<path class="st4" d="M137.9,401.6c2.2,0,6.9,0.2,10.2,1.1c4,1,7.1,2.6,9.3,3.9"/>
	<path class="st4" d="M137.2,397.5c2.2,0,6.2,0.2,9.6,1c3.5,0.8,6.3,2.1,8.3,3.2"/>
	<path class="st4" d="M135.8,393.6c2-0.1,6-0.5,9,0.1c2.4,0.5,4.5,1.3,6.1,2"/>
	<path class="st4" d="M134.2,388.9c2.8,0.4,7.3,1,10.1,1.4"/>
	<path class="st4" d="M149.8,454.2c2.1-0.5,6.2-1.4,9.8-1.1c4,0.3,7.2,1.4,9.3,2.3"/>
	<path class="st4" d="M149,450.4c2.2-0.1,5.5-1.1,8.2-0.9c4,0.3,7.4,1.1,10.2,1.9"/>
	<path class="st4" d="M148,446.3c1.9-0.1,5.5-0.8,7.9-0.6c4.4,0.5,8.1,1.7,10.8,2.8"/>
	<path class="st4" d="M147,442.7c2.1-0.2,5.7-0.6,8.6-0.2c3.7,0.5,6.8,1.5,9.1,2.4"/>
	<path class="st4" d="M145.7,438.6c2-0.1,5.2,0,7.6,0.3c2.8,0.3,5.3,0.8,7.4,1.3"/>
	<path class="st4" d="M144.8,435.4c0.9-0.1,2.8-0.7,3.9-0.7c3.3,0,6,0.7,7.9,1.4"/>
	<path class="st4" d="M143.8,432.2c1.1-0.1,3.2-0.4,4.7-0.4c2,0.1,3.7,0.4,5.1,0.7"/>
	<path class="st4" d="M142.7,429.9c0.8-0.2,2.7-0.7,4.2-0.7c1.5,0,2.8,0.4,3.7,0.7"/>
	<path class="st4" d="M140.2,427.2c1.3,0,3.6,0,4.9,0"/>
	<path class="st4" d="M173,501.8c1.4,0.2,5.8,0.3,9.1-1c5-2,7.2-6.3,7.6-7.3"/>
	<path class="st4" d="M171.3,498.1c1.4,0.2,6.6,0.8,10.4-1.1c4.5-2.2,6.4-6.1,7-7.2"/>
	<path class="st4" d="M170.5,495.3c1.6-0.2,6.3-0.6,8.7-1.7c4.5-2,7.1-5.2,8.3-6.9"/>
	<path class="st4" d="M169.6,492.4c2.7-0.3,7.7-1.2,12-3.7c2.1-1.2,3.8-2.5,5.1-3.7"/>
	<path class="st4" d="M168.9,489.2c2.8-1.1,6.9-2.7,9.7-3.7c2.3-0.8,4.6-1.7,6.9-2.5"/>
	<path class="st4" d="M168.6,485.7c1.9-1.1,6.6-3.2,9.6-4.1c2-0.6,3.9-1,5.5-1.2"/>
	<path class="st4" d="M166.7,482.3c1.6-1,4.4-2.9,7.1-3.7c2.9-0.9,5.5-1.2,7.4-1.3"/>
	<path class="st4" d="M164.7,479.4c1.7-0.7,4.6-2.9,6.8-3.5c3-0.8,5.7-1.2,8-1.3"/>
	<path class="st4" d="M162.7,475.1c1.1-0.7,4.6-2.3,7.6-2.2c0.7,0,1.4,0.2,2,0.3"/>
	<line class="st4" x1="176.7" y1="472" x2="178" y2="472"/>
	<path class="st4" d="M163.1,458.8c5.8,2.5,10,5.8,13,11"/>
	<path class="st4" d="M188,537.2c1,0.5,3.7,1.4,5.9,1.6c1.4,0.1,4,0.2,6.2-1.2c2.4-1.6,3.2-4.1,3.9-6.2c1.2-4,0.8-7.5,0.2-9.8"/>
	<path class="st4" d="M188,534c1.1,0.2,3.3,1,5.3,0.6c0.8-0.1,3.9-0.8,6.1-2.7c3-2.7,3.9-7.5,2.6-12.3"/>
	<path class="st4" d="M188.3,530.4c1.4-0.5,4-1.3,5.8-2.7c4.7-3.6,6.2-8.5,6.7-10.5"/>
	<path class="st4" d="M187.5,526.3c1.4-0.5,4.5-1.6,6.4-3.3c3.4-3,4.6-6.7,5-8.3"/>
	<path class="st4" d="M186.8,521.8c1.8-1.2,4.8-2.7,6.9-4.7c1.3-1.3,2.5-2.5,3.5-3.7"/>
	<path class="st4" d="M186.1,516.9c1.4-0.7,4.1-2.2,5.8-3.6c1.5-1.2,2.6-2.4,3.6-3.4"/>
	<path class="st4" d="M185.4,512.7c1.1-0.5,4.1-2.1,5.7-4.1c0.9-1,1.4-2.1,1.7-2.9"/>
	<path class="st4" d="M183.6,508c1-0.3,4.2-1.1,5.8-2.7c1-0.9,1.6-1.9,2-2.7"/>
	<path class="st4" d="M171.5,252.8c4.2,1.8,10.4,4.5,15.3,7.6c11,7.1,18.6,15.3,23.6,21.8"/>
	<path class="st4" d="M171.5,255.6c4.6,2.5,9.6,5.6,14.8,9.5c9.2,6.8,16.2,13.9,21.4,20.1"/>
	<path class="st4" d="M168,258.3c4.4,2,10.7,5.2,15.9,8.9c10.1,7.3,16.8,15.5,20.9,21.6"/>
	<path class="st4" d="M165.5,260.5c4.8,3.2,11.1,7.3,16.4,12.1c8.2,7.3,14.4,14.7,19.1,21.1"/>
	<path class="st4" d="M163.2,262.3c-0.5-0.3,9,6.2,13.7,10.4c6.9,6.2,11.3,12.8,14.3,17.8"/>
	<path class="st4" d="M160,266.6c4,2.2,9.9,5.1,14.6,9.1c7.7,6.6,12.7,13.5,16,18.8"/>
	<path class="st4" d="M157.6,271.1c4.1,1.9,10.9,5.4,15.9,9.5c8.1,6.5,13.2,13.6,16.3,18.8"/>
	<path class="st4" d="M154.4,273.6c4.8,2.4,11.7,6.5,17.6,11.3c7.6,6.2,12.9,12.7,16.4,17.8"/>
	<path class="st4" d="M151.1,276.4c4.6,2.5,10.7,5.8,16.1,10.1c8.7,6.9,14.8,14.2,19.1,20.1"/>
	<path class="st4" d="M150.5,280.3c4.7,2.4,11.9,6.5,18,11.9c7.4,6.6,12.1,13.4,15.1,18.4"/>
	<path class="st4" d="M151.7,286.9c4.5,2.9,12.1,7,17.6,12.5c5.1,5.1,9,10.2,11.8,14.5"/>
	<path class="st4" d="M176.8,314c-2.3-3.2-4.7-6.3-7-9.5"/>
	<path class="st4" d="M151.5,296.4c2.3,1.4,7.5,3.9,10.5,7.6c3.9,4.9,5.6,9.9,6.3,12.8"/>
	<path class="st4" d="M149.8,300.3c2.2,1.1,7.1,3.3,10.2,6.5c2.6,2.7,4.3,5.5,5.3,7.5"/>
	<path class="st4" d="M148.2,303.3c4.2,3.3,9.7,7.7,13.9,11"/>
	<path class="st4" d="M147.3,308.7c4.1,2.4,10.1,6,14.2,8.4"/>
	<path class="st4" d="M147.5,313.3c5.3,2.3,11.8,5.1,17,7.3"/>
	<path class="st4" d="M169.1,372.8c3.4-2.4,8.9-6.3,12.4-8.8"/>
	<path class="st4" d="M168.9,368.8c3.8-2.5,10.4-6.8,14.2-9.3"/>
	<path class="st4" d="M171.5,363.3c3-1.8,9.7-5.2,12.8-7"/>
	<path class="st4" d="M173.8,359.2c2.8-1.7,7.2-4.5,10-6.2"/>
	<path class="st4" d="M174.5,355.2c2.5-1.4,6.4-3.9,9-5.3"/>
	<path class="st4" d="M173.3,352c2.2-1.5,6.1-4.1,8.3-5.6"/>
	<path class="st4" d="M171.5,349c2.7-1.4,7.2-3.6,10-5"/>
	<path class="st4" d="M169.7,346.5c2.6-1.1,7.9-3.4,10.5-4.5"/>
	<path class="st4" d="M168,344.5c2.9-1.2,8.2-3.9,11.1-5.1"/>
	<path class="st4" d="M166.1,343.3c0.8-1,3.8-4.9,7.2-6.1c2-0.7,3.8-0.7,5-0.7"/>
	<path class="st4" d="M162.2,340.9c1.1-1.3,4.3-4.9,8.3-6.1c2.2-0.7,4.1-0.7,5.5-0.7"/>
	<path class="st4" d="M153.9,344.7c1.1-1.7,4.7-7.1,8.3-9.5c4.8-3.1,9.6-3.5,11.6-3.5"/>
	<path class="st4" d="M153.8,339.4c1.1-1.2,4.2-5.2,6.1-6.5c4.5-3.1,9.2-3.7,11.6-3.8"/>
	<path class="st4" d="M151.5,335.7c1.1-1.1,3.3-3.6,4.8-4.6c5.3-3.4,10.6-4.4,14-4.7"/>
	<path class="st4" d="M147.3,332.9c1.8-1,5.3-3,7.3-3.9c4.2-2,8.3-3.7,12.1-5.2"/>
	<path class="st4" d="M145.8,329.1c1.3-1.3,5.7-3.7,8.5-5c4.7-2.2,9-2,11.1-1.8"/>
	<path class="st4" d="M145.6,323.6c3.4-0.8,9.6-2.3,13.1-3.2"/>
	<path class="st4" d="M146.8,317.7c1.8,0.2,5.7,0.7,7.5,0.9"/>
	<path class="st4" d="M159,296.7c-1.5-1.2-4.2-3.4-5.7-4.7"/>
	<path class="st4" d="M174.6,322.1c1.4,1.2,2.9,2.3,4.3,3.5"/>
	<path class="st4" d="M175.8,319.6c1.7,1.2,3.3,2.3,5,3.5"/>
	<path class="st4" d="M180.9,319.1c0.5,0.4,1,0.9,1.5,1.3"/>
	<path class="st4" d="M197.1,294.2c0.6,0.9,1.2,1.8,1.8,2.7"/>
	<path class="st4" d="M196.1,296.8c0.6,0.8,1.1,1.6,1.7,2.3"/>
	<path class="st4" d="M195.1,299.5c0.3,0.6,0.6,1.2,0.8,1.8"/>
	<path class="st4" d="M193.9,302c0.2,0.4,0.3,0.9,0.5,1.3"/>
	<path class="st4" d="M182.3,369.5c0.4,0.3,0.8,0.5,1.2,0.8"/>
	<path class="st4" d="M184,368c0.4,0.2,1.6,0.9,2,1.1"/>
	<path class="st4" d="M185.4,366.1c0.7,0.3,2.2,1,3,1.3"/>
	<path class="st4" d="M186.7,364.1c0.9,0.3,2.7,0.8,3.7,1.1"/>
	<path class="st4" d="M187.8,361.5c0.4,0,0.9,0.1,1.4,0.2c1,0.3,1.6,0.9,1.9,1.3"/>
	<path class="st4" d="M188.2,359.2c0.5,0,1-0.1,1.7,0c0.7,0.1,1.2,0.2,1.7,0.3"/>
	<path class="st4" d="M188.1,357.2c0.5-0.2,1.2-0.4,2.1-0.4c0.8,0,2.1,0.3,2.5,0.4"/>
	<path class="st4" d="M187.9,354.8c0.5-0.2,1.2-0.6,2.2-0.7c1-0.1,2.4,0.3,2.9,0.4"/>
	<path class="st4" d="M187.6,351.8c0.5-0.2,1.2-0.5,2.2-0.7c1.3-0.2,3-0.2,3.6-0.1"/>
	<path class="st4" d="M187.3,348.9c0.5-0.3,1.3-0.7,2.4-0.9c1-0.2,2.8-0.2,3.3-0.1"/>
	<path class="st4" d="M186.6,345.9c0.4-0.4,1-0.8,1.7-1.1c1.8-0.8,3.9-0.6,4.8-0.5"/>
	<path class="st4" d="M186.1,342.9c0.4-0.3,1-0.7,1.7-0.9c1.9-0.7,4.4-1,5.3-0.8"/>
	<path class="st4" d="M185.1,340.5c0.7-0.4,1.5-0.9,2.5-1.3c2.1-0.8,4.7-0.9,5.9-0.8"/>
	<path class="st4" d="M184.5,338.2c0.7-0.6,1.9-1.5,3.6-2.1c2.3-0.8,5.1-0.4,6.1-0.2"/>
	<path class="st4" d="M183.5,335.9c0.9-0.8,2.5-1.9,4.7-2.6c2.4-0.8,5.3-0.6,6.6-0.5"/>
	<path class="st4" d="M182.4,333.5c1.1-0.8,2.8-1.8,5.1-2.5c2.9-0.9,6.4-0.9,8-0.8"/>
	<path class="st4" d="M181.9,330.6c1.2-0.5,2.5-1,4-1.5c2.5-0.8,6-1.2,8-1.4"/>
	<path class="st4" d="M184.1,326.8c1.1-0.5,2.5-1,4.3-1.2c1.4-0.2,3.6-0.7,4.6-0.6"/>
	<path class="st4" d="M186.2,323.2c0.7-0.4,1.9-0.8,3.4-0.9c1.1-0.1,2.7,0.3,3.4,0.4"/>
	<path class="st4" d="M188.5,319.7c0.3-0.2,1-0.4,1.8-0.4c0.8,0,2.3,0.3,2.7,0.5"/>
	<path class="st4" d="M190.3,317c0.3-0.1,0.8-0.1,1.4,0c0.4,0.1,1.4,0.5,1.6,0.6"/>
	<path class="st4" d="M191.8,314.5c0.5,0.2,1.5,0.6,2,0.8"/>
	<path class="st4" d="M193.2,312.4c0.4,0.1,1.1,0.7,1.5,0.9"/>
	<path class="st4" d="M194.5,310.8c0.2,0.1,0.8,0.3,1,0.4"/>
	<path class="st4" d="M162.2,248.7c-0.4,0.3-1.2,1.5-1.6,1.8"/>
	<path class="st4" d="M159.4,247.9c-0.3,0.1-0.6,0.3-0.9,0.7c-0.5,0.5-0.8,1.5-0.9,1.8"/>
	<path class="st4" d="M155.6,247c-0.3,0.3-0.6,0.7-0.9,1.2c-0.5,0.8-1,2.1-1.2,2.7"/>
	<path class="st4" d="M151.2,246.3c-0.4,0.2-1.3,0.6-2,1.6c-0.8,1.2-0.9,2.9-0.9,3.4"/>
	<path class="st4" d="M146.5,245.2c-0.4,0.3-0.9,0.8-1.3,1.4c-1.4,1.8-1.6,4.5-1.7,5.5"/>
	<path class="st4" d="M140.6,244.5c-0.5,0.6-1,1.4-1.5,2.3c-1,1.9-1.3,4.4-1.4,5.6"/>
	<path class="st4" d="M136.4,243c-0.4,0.8-0.8,1.7-1.2,2.7c-0.8,2.2-1.4,4.8-1.6,6.5"/>
	<path class="st4" d="M131.7,242.6c-0.5,0.8-1.1,1.7-1.6,2.9c-1,2.3-1.3,5.2-1.4,6.7"/>
	<path class="st4" d="M127.5,241.4c-0.5,1-1,2.2-1.5,3.4c-1,2.8-1.9,6.1-2.1,8.2"/>
	<path class="st4" d="M121.8,240.6c-0.8,1.3-1.6,3-2.2,5c-1,3.3-1.2,7-1.1,9"/>
	<path class="st4" d="M116.2,240c-0.4,0.8-1,1.9-1.7,3.2c-1.1,2.3-1.8,3.7-2.2,5.7c-0.3,1.2-0.6,3.7-0.3,6.1"/>
	<path class="st4" d="M110.7,239.1c-0.5,0.8-1.2,1.9-1.7,3.4c-0.7,1.9-1,3.5-1.2,5.1c-0.2,1.3-0.3,4-0.2,6.1"/>
	<path class="st4" d="M105.1,237.9c-0.7,1.5-1.4,3.3-1.9,5.4c-0.8,3.4-1,7.3-0.9,9.6"/>
	<path class="st4" d="M99.8,236.9c-0.9,1.9-1.8,4.6-2.4,7.8c-0.5,3-0.6,6.9-0.5,9"/>
	<path class="st4" d="M93.9,236c-0.6,0.9-1.3,2.3-1.9,4c-0.4,1.1-0.7,2.4-0.9,4.4c-0.5,4.5,0.3,10,0.6,12.2"/>
	<path class="st4" d="M88.9,234.5c-0.4,1-0.9,2.3-1.5,4c-0.9,2.6-1.6,4.6-2,7c-0.7,3.7-0.5,6.8-0.3,9.2c0.2,2.2,0.3,4.8,0.6,6.1"/>
	<path class="st4" d="M83,233.8c-0.6,1.4-1.3,3.3-1.9,5.6c-0.6,2.6-0.8,4.5-1.1,6.7c-0.5,5.2-0.3,9.1-0.2,10.4
		c0.2,2.1,0.3,5,0.6,6.4"/>
	<path class="st4" d="M78.2,232.3c-0.7,1.5-1.5,3.4-2.2,5.6c-1.1,3.5-1.6,6.3-1.7,7.2c-0.4,2.8-0.4,4.9-0.3,8.3
		c0,2.5,0.5,6.7,0.9,10.6"/>
	<path class="st4" d="M72.5,230.5c-1,2.4-2.2,5.8-3.1,9.9c-0.8,3.7-1,6.6-1.2,9.2c-0.2,3.6-0.3,9.9,0.2,15.6"/>
	<path class="st4" d="M66,229.9c-2.4,3.5-3.5,6.6-4,8.7c-0.3,1.3-1.1,5,0.3,17.1c0.5,3.8,1.4,8,1.8,10.1"/>
	<path class="st4" d="M58,230.7c-0.4,1.3-1,3.2-1.4,5.5c-0.6,3.3-0.6,5.7-0.6,9.6c0,3.2,0,5.9,0.3,9.7c0.3,2.9,1.3,7.8,2.3,12.1"/>
	<path class="st4" d="M50.3,235.6c0.1,4.6,0.3,8.5,0.5,11.3c0.3,4.9,0.6,8,1.4,12.1c0.7,3.6,1.9,7.6,2.6,9.7"/>
	<path class="st4" d="M45.6,242.6c-0.4,3.5-0.3,6.4-0.2,8.5c0.2,4.1,0.8,7.2,1.4,10.9c0.6,3,1.4,6.6,1.9,8.4"/>
	<path class="st4" d="M40.7,254.8c0,2.1,0.1,4.4,0.4,6.9c0.5,3.5,1.6,7.5,2.4,10"/>
	<path class="st4" d="M37.6,267.2c0.2,1,0.3,2,0.6,3.1c0.1,0.6,0.7,2.2,0.9,2.7"/>
	<path class="st4" d="M741.9,311.9c0.7-13-1.6-26.4-8.3-37.7"/>
	<path class="st4" d="M740.6,275.2c5.5,12.6,7.1,26.5,6,40.1"/>
	<path class="st4" d="M745.9,275.9c6,12.7,6.8,27.1,5.3,41"/>
	<path class="st4" d="M751.7,277.6c5.2,13.2,5.7,27.9,3.4,41.8"/>
	<path class="st4" d="M756.4,278.1c1.3,3.6,2.5,8,3.3,13.1c1.2,8,0.9,14.8,0.2,19.9"/>
	<path class="st4" d="M733.4,286.7c2.9,6.5,3.8,13.7,3.8,20.8"/>
	<path class="st4" d="M727.5,273.3c1.8,3.3,4,7.9,5.8,13.5"/>
	<path class="st4" d="M721.1,273.9c4,10.5,6.5,21.6,7.7,32.8"/>
	<path class="st4" d="M713,270.6c5.9,9.9,9.1,21.2,10.5,32.6"/>
	<path class="st4" d="M705.8,268.8c6.2,10.4,9.8,22.2,11.5,34.1"/>
	<path class="st4" d="M698.7,267.8c5.1,9.2,8.7,19.2,11.1,29.4"/>
	<path class="st4" d="M690.4,265.9c4.8,7.9,8.7,16.3,11.5,25.1"/>
	<path class="st4" d="M684.9,265.3c5.8,8.2,9.8,17.6,11.6,27.5"/>
	<path class="st4" d="M679.8,264.3c3.9,6.5,7,13.5,9.2,20.7"/>
	<path class="st4" d="M675.1,263.8c2.4,5.2,4.7,10.5,6.8,15.9"/>
	<path class="st4" d="M669.1,262.6c1.1,1.5,2.4,3.2,3.5,5.3c2,3.7,3.1,7.1,3.7,9.8"/>
	<path class="st4" d="M663.3,261.5c1.1,1,2.4,2.3,3.7,4.2c2.2,3.4,3,6.6,3.3,8.6"/>
	<path class="st4" d="M658.5,261c1.3,1.5,2.8,3.5,4.2,6c1.1,2,1.8,3.9,2.3,5.5"/>
	<path class="st4" d="M653.5,261.1c0.9,1.2,1.9,2.5,2.8,4.2c1.4,2.5,2.4,4.9,3,6.8"/>
	<path class="st4" d="M596.6,540c-0.1,1.3-0.1,4.5,1.9,7.9c0.6,1,2.1,3.2,4.9,4.9c4.2,2.4,8.4,1.8,9.6,1.6"/>
	<path class="st4" d="M616,552.7c-1.4,0.1-3.7,0-6.4-1c-3.4-1.2-5.4-3.3-6.4-4.2c-3.5-3.6-4.7-7.7-5.1-9.7"/>
	<path class="st4" d="M618.2,550.6c-1.3-0.2-2.9-0.6-4.7-1.2c-0.2-0.1-3-1.1-5.4-2.9c-5-3.6-7.2-9.4-7.9-11.1"/>
	<path class="st4" d="M619.4,548.4c-1.6-0.4-3.8-1.2-6.1-2.6c-2.6-1.6-4.2-3.3-5.2-4.5c-1.5-1.6-3.6-4.3-5.2-8.1"/>
	<path class="st4" d="M620.6,545.5c-1.8-0.6-4.4-1.7-7.1-3.9c-1.2-1-3-2.6-4.7-5.1c-1.7-2.5-2.6-4.9-3.1-6.6"/>
	<path class="st4" d="M622.3,542.4c-1.3-0.3-3.4-0.9-5.6-2.4c-2-1.4-3.2-2.8-4.1-4c-1.3-1.7-3.2-4.6-4.5-8.8"/>
	<path class="st4" d="M620.9,538.6c-1.3-0.8-4.8-2.7-6.4-4.5c-3-3.5-3.9-7.2-4.2-9.1"/>
	<path class="st4" d="M621.4,534c-1.4-0.9-4.5-3-6.3-5.2c-2-2.4-3.1-4.8-3.7-6.5"/>
	<path class="st4" d="M622.3,530.9c-1.2-0.7-4.1-2.4-5.7-4.4c-2.1-2.6-2.9-5.2-3.2-6.7"/>
	<path class="st4" d="M624,527.2c-1.2-0.6-4.8-2.5-6.5-4.5c-1.9-2.4-2.7-4.8-3-6.1"/>
	<path class="st4" d="M625.5,524.3c-1.3-0.8-4.4-2.5-6.1-4.3c-1.8-2-2.9-3.9-3.6-5.4"/>
	<path class="st4" d="M627.6,521.9c-1.2-0.5-4.3-2.1-6.1-3.7c-3-2.8-3.9-6.2-4.2-7.6"/>
	<path class="st4" d="M633.6,516.1c-1.5-0.5-4-1.4-5.8-2.6c-4.8-3.2-7.1-7.5-8.1-9.8"/>
	<path class="st4" d="M633,513.7c-5.3-3-9.5-7.3-12.1-12.8"/>
	<path class="st4" d="M632.8,509.8c-4.6-2.9-8.3-7.2-11-11.8"/>
	<path class="st4" d="M634,506.6c-4.8-3.1-8.5-7.7-10.9-12.9"/>
	<path class="st4" d="M628.7,475.1c4.7-5.3,11.6-9.2,18.8-9"/>
	<path class="st4" d="M628.3,477.6c5.8-4.7,11.9-8.1,19.6-7.5"/>
	<path class="st4" d="M628.1,479.4c5.6-3.8,12.4-5.7,19.2-5.5"/>
	<path class="st4" d="M627.9,481.3c5.8-2.7,12.1-3.7,18.5-3.5"/>
	<path class="st4" d="M626.6,483.7c2.3-1,5.4-2,9.2-2.6c4.2-0.6,8.8-0.5,11.5-0.2"/>
	<path class="st4" d="M625.8,486c2.6-0.6,5.7-1.2,9.1-1.6c3.8-0.4,7.7-0.5,10.7-0.3"/>
	<path class="st4" d="M625.2,487.9c3-0.7,7-1.3,11.8-0.9c2.5,0.2,5.4,0.9,7.3,1.4"/>
	<path class="st4" d="M624.2,492.3c3.5,3.8,7.4,7.2,11.5,10.2"/>
	<path class="st4" d="M625,490.9c3.5,2.8,7.3,5.3,11.4,7.2"/>
	<path class="st4" d="M625.9,489.3c3.3,2.6,7.1,4.6,11.1,5.7"/>
	<path class="st4" d="M630.1,489.6c2.6,0.5,5.2,1,7.9,1.5"/>
	<path class="st4" d="M633.2,463.5c5-4.1,11.7-5.1,17.9-3.5"/>
	<path class="st4" d="M633.8,460.4c5.5-3.3,12-4.1,18.2-2.8"/>
	<path class="st4" d="M635.6,456.5c6.1-2.7,12.7-2.9,19.1-0.9"/>
	<path class="st4" d="M637.1,453.1c6.5-2.5,13.1-2.2,19.5,0.3"/>
	<path class="st4" d="M638.5,449.6c1.6-0.5,3.9-1,6.7-1.4c1.9-0.2,3.3-0.4,5-0.3c1.7,0.1,5.8,1.1,9.1,2.9"/>
	<path class="st4" d="M639.9,446.5c3.3-0.3,5.8-0.5,7.5-0.7c3.7-0.4,5.1-0.5,7-0.1c2.2,0.5,4.7,2.2,5.8,3"/>
	<path class="st4" d="M641.4,442.7c2.1-0.2,4.5-0.3,7.2-0.5c4.9-0.3,6.9-0.2,9.1,0.8c1.1,0.5,3.5,2,3.9,2.4"/>
	<path class="st4" d="M643,440.6c2.1-0.8,5.5-1.9,9.8-2c4.2-0.1,8.9,1.6,11,2.3"/>
	<path class="st4" d="M644,437.8c1.9-0.9,4.7-1.8,8.1-2.2c5.5-0.7,11.3,1.4,13.8,2.2"/>
	<path class="st4" d="M653.8,433.7c1.3-0.5,3.8-1.3,7-1c2.4,0.3,5.3,1.7,6.4,2.3"/>
	<path class="st4" d="M648,430c5.4-3,11.6-4.1,17.8-3.3"/>
	<path class="st4" d="M648.5,426.5c5.2-3,11-3.9,16.9-3.2"/>
	<path class="st4" d="M649.5,423.1c5.6-2.3,12-3.5,18-2.3"/>
	<path class="st4" d="M650.8,419.7c5.1-2.2,10.5-2.8,16-2"/>
	<path class="st4" d="M652.1,416.6c5.3-1.8,10.7-2.2,16.2-1.2"/>
	<path class="st4" d="M652.3,413.8c5.5-1.8,11.1-2,16.8-1"/>
	<path class="st4" d="M652.3,411.2c5.9-2.3,12.3-3,18.5-1.5"/>
	<path class="st4" d="M652.9,408.1c5.7-2.6,13-4.3,19.1-2.3"/>
	<path class="st4" d="M655.6,404.2c5.9-0.9,11.5-2.2,17.4-1.1"/>
	<path class="st4" d="M658.6,401.3c5.5-2.2,11.3-2.1,16.9-0.8"/>
	<path class="st4" d="M661.1,397.7c5.2-1.1,10.4-0.7,15.6,0.4"/>
	<path class="st4" d="M665.1,394.2c4.3-1,8.7-0.8,13,0.6"/>
	<path class="st4" d="M667.6,390c1.4-0.3,3-0.6,4.9-0.6c3.1-0.1,6.9,0.9,8.8,1.4"/>
	<path class="st4" d="M653.1,397.2c6.8-8,15.9-12.2,26.4-10.9"/>
	<path class="st4" d="M667.1,384.4c4.7-2.1,9.6-2.1,14.4-0.6"/>
	<path class="st4" d="M669.3,379.6c1.7-0.4,3.9-0.7,6.5-0.6c2.9,0,6.7,0.9,8.5,1.4"/>
	<path class="st4" d="M670.9,376c1.4-0.5,3.3-1.1,5.7-1.2c3.5-0.2,8,1.3,9.6,1.9"/>
	<path class="st4" d="M673.1,372.2c2.4-0.7,6.1-1.3,10.6-0.5c1.6,0.3,4.6,1.7,5.8,2.2"/>
	<path class="st4" d="M674.4,369c5.7-0.9,12.2-1.2,17.8,0.2"/>
	<path class="st4" d="M674.7,366.3c5.7-1.2,11.7-2.2,17.4-1"/>
	<path class="st4" d="M677.1,361.8c5.3-1.3,11-1.9,16.4-0.7"/>
	<path class="st4" d="M679.2,357.8c1.6-0.5,3.5-0.9,5.7-1.1c2.1-0.2,4-0.2,5.6-0.1"/>
	<path class="st4" d="M681.7,353.1c3.6-1.7,7.7-2.2,11.6-1.4"/>
	<path class="st4" d="M682.8,348.5c3.3-0.8,6.7-0.9,10.1-0.5"/>
	<path class="st4" d="M684.3,345.4c1.3-0.4,3-0.7,4.9-0.7c3.2-0.1,5.8,0.4,7.6,1"/>
	<path class="st4" d="M684.5,341.6c1.4-0.4,3.3-0.9,5.5-1c2.7-0.1,5,0.2,6.6,0.6"/>
	<path class="st4" d="M684,337.9c1.4-0.4,3.2-0.8,5.4-1c3.1-0.2,5.7,0.2,7.5,0.6"/>
	<path class="st4" d="M684.2,334.4c1.3-0.4,3-0.8,4.9-1c3.2-0.3,5.9,0.1,7.9,0.5"/>
	<path class="st4" d="M685.1,330.5c1.5-0.5,3.6-1,6.1-1c2.2,0,4.1,0.3,5.5,0.6"/>
	<path class="st4" d="M686,326.3c1.3-0.4,3.2-0.8,5.6-0.7c2.5,0.1,4.5,0.6,5.9,1.1"/>
	<path class="st4" d="M687.6,322.4c1-0.4,2.6-1,4.6-1.1c2.2-0.1,4,0.4,5,0.7"/>
	<path class="st4" d="M689.6,318.5c0.8-0.3,1.8-0.5,3.1-0.6c1.8-0.1,3.3,0.2,4.2,0.5"/>
	<path class="st4" d="M690.9,315.6c1.7-0.2,3.5-0.3,5.2-0.5"/>
	<path class="st4" d="M692.8,312.3c1.2,0,2.5-0.1,3.7-0.1"/>
	<path class="st4" d="M692.8,309.6c1.1-0.3,2.2-0.7,3.2-1"/>
	<path class="st4" d="M660,384.9c-1.2,0.7-3.8,2.9-6.5,2.9c-2.8,0-4.7-1-7.3-2.5c-2.1-1.2-5-3.1-8-6.2"/>
	<path class="st4" d="M657.2,384.4c-1,0.4-3.3,1.3-5.4,1c-2.2-0.3-3.7-1.3-5.2-2.3c-4.2-3.1-7.7-7-9.8-9.6"/>
	<path class="st4" d="M654.6,382.6c-1.8-0.3-5.1-0.9-7.5-2.1c-6.7-3.6-9.5-9.9-10.5-12.2"/>
	<path class="st4" d="M651.8,379.5c-2.1-1.4-6-3-8.4-5.8c-4.6-5.1-6.6-10.3-7.6-13.6"/>
	<path class="st4" d="M645.6,371.8c-1.9-2.8-4.6-6.9-6.4-10.4c-1.1-2.2-2.1-4.4-3-6.5"/>
	<path class="st4" d="M648.2,369.3c-1.1-2.2-3.1-5.7-4.8-8.3c-2.3-3.5-4.7-6.3-6.8-8.6"/>
	<path class="st4" d="M649.4,364.1c-0.9-2-2.9-6.1-5.2-8.8c-2.7-3.3-5.7-5.3-7.7-6.6"/>
	<path class="st4" d="M650.9,358.4c-1.1-1.7-3.9-5.7-6.6-8c-2.5-2.1-5-3.3-6.8-4.1"/>
	<path class="st4" d="M654.6,355.4c-1.3-1.5-5-5-7.5-6.8c-3.5-2.3-6.8-3.4-9.1-4"/>
	<path class="st4" d="M659.1,353.6c-1.6-1.6-4.7-5-7.6-6.6c-4.7-2.7-9.2-3.7-12.1-4.1"/>
	<path class="st4" d="M662.6,348.3c-2-1.3-6-3.9-9.2-5.1c-5.1-1.9-9.7-2.3-12.8-2.3"/>
	<path class="st4" d="M664,344c-2-1.4-6.7-4.4-11.3-5.6c-4.5-1.1-8.4-0.9-10.7-0.6"/>
	<path class="st4" d="M667.1,342.8c-1.4-1.6-6.8-8-14-9.3c-4.3-0.8-7.9-0.1-10,0.5"/>
	<path class="st4" d="M671.9,340.8c-1.7-1.9-5-6-8.6-7.9c-8.1-4.2-15.9-3.3-18.9-2.8"/>
	<path class="st4" d="M674.5,338.9c-1.3-2-4.7-7.3-8.7-9.8c-5.2-3.3-10.2-3.7-12.2-3.8c-3.5-0.2-6.3,0.3-8.2,0.7"/>
	<path class="st4" d="M676.8,331.8c-1.4-2.1-5.9-7.3-11.7-9.9c-8.5-3.8-16.3-1.7-18.4-1"/>
	<path class="st4" d="M679.9,328.9c-2-2.2-6.7-7.7-11.3-10c-9.3-4.5-18.1-3.2-21.4-2.5"/>
	<path class="st4" d="M681.1,321.6c-2.4-2.3-7.3-6.2-14.6-8.3c-8.8-2.6-16.3-1-19.5-0.2"/>
	<path class="st4" d="M684.1,317c-2.1-2.2-5.8-5.6-11.4-7.7c-6.7-2.6-12.5-2.1-17.4-1.7c-4.1,0.4-10.4,1.4-17.6,4.7"/>
	<path class="st4" d="M686.9,311.3c-2.5-1.8-6.1-4.2-10.9-6.1c-2.5-1-8.5-3.3-16.2-3.3c-11.2,0-19.6,4.9-23.3,7.4"/>
	<path class="st4" d="M687.4,305c-1.9-1.1-4.7-2.5-8.1-3.8c-6.7-2.7-15.2-6-25.2-4.9c-3.7,0.4-10.9,1.8-18.8,7.7"/>
	<path class="st4" d="M685.9,300.3c-3.4-2.6-11.2-7.9-22.4-9.1c-15.6-1.7-27.1,5.6-30.2,7.8"/>
	<path class="st4" d="M680.7,291.7c-4.1-1.7-9.5-3.3-16-4c-14.5-1.5-26,2.9-31.7,5.6"/>
	<path class="st4" d="M675.4,284.6c-4.3-1.1-10.4-2.2-17.6-1.9c-9.7,0.4-17.4,3-22.2,5.1"/>
	<path class="st4" d="M665.6,279.7c-3.1-0.7-8.1-1.4-14-0.6c-5.5,0.7-9.8,2.5-12.6,3.9"/>
	<path class="st4" d="M648.9,261c1.1,1.1,2.3,2.5,3.4,4.4c2,3.4,2.7,6.7,2.9,8.7"/>
	<path class="st4" d="M644.4,261.2c1.2,0.8,2.7,1.9,4.1,3.6c3.1,3.8,3.9,7.9,4.1,9.8"/>
	<path class="st4" d="M640,261.6c1,0.9,2.1,2,3.2,3.3c3.1,3.9,4.4,7.8,5.1,10.6"/>
	<path class="st4" d="M634.6,261.9c1.4,0.8,3.3,2,5.1,3.9c3.7,4,4.6,8.5,4.9,10.5"/>
	<path class="st4" d="M630.2,263c1.7,1,4,2.7,6.2,5.2c3,3.4,4.4,6.9,5.2,9.1"/>
	<path class="st4" d="M627.1,264.3c1.2,0.7,2.5,1.6,3.8,2.7c4.7,4.2,6.5,9.3,7.3,12.1"/>
	<path class="st4" d="M624.1,267.3c1.3,0.5,3.1,1.4,4.7,3.2c0.6,0.7,1.2,1.6,2.6,4.5c0.8,1.7,1.7,3.9,2.7,6.7"/>
	<path class="st4" d="M621.2,270.8c1.4,0.6,3.4,1.6,5.2,3.3c4.2,3.9,5,8.9,5.2,10.6"/>
	<path class="st4" d="M618.8,273.9c1.6,0.8,3.9,2.2,6.1,4.7c3.1,3.6,4.1,7.4,4.5,9.3"/>
	<path class="st4" d="M616.3,277.8c1.7,0.6,4.7,2,7.6,5c2.4,2.6,3.6,5.3,4.2,6.9"/>
	<path class="st4" d="M614.8,282.6c2.1,1.5,4.3,3,6.5,4.7c1.8,1.4,3.5,2.8,5.2,4.2"/>
	<path class="st4" d="M612.6,285.7c1.7,0.8,3.8,1.9,5.9,3.5c2.6,1.9,4.6,3.9,6.1,5.6"/>
	<path class="st4" d="M611.8,287.7c4.3,3.3,8.7,7.2,13,12c0.8,0.9,1.5,1.8,2.2,2.7"/>
	<path class="st4" d="M625.5,304.3c1.9,2.7,3.9,5.8,5.7,9.3c3.7,7.2,5.8,13.9,7,19.4"/>
	<path class="st4" d="M625.1,331.4c1.7-0.5,4.6-1.4,6.2-1.9"/>
	<path class="st4" d="M625.8,334.9c1.9-0.7,4.6-1.8,6.4-2.6"/>
	<path class="st4" d="M626.1,337c1.7-0.3,5.2-1,6.9-1.3"/>
	<path class="st4" d="M626.9,340.6c1.9-0.6,4.9-1.2,6.9-1.8"/>
	<path class="st4" d="M626.8,342.9c2.1-0.5,5.6-1,7.7-1.5"/>
	<path class="st4" d="M626.9,346.3c1.5-0.6,4.4-1.1,5.9-1.7"/>
	<path class="st4" d="M626.9,349.6c1.5-0.4,4-0.7,5.5-1.1"/>
	<path class="st4" d="M627.3,352.2c1.1-0.2,3.2-0.5,4.3-0.6"/>
	<path class="st4" d="M627.3,355.3c1-0.2,3.3-0.5,4.3-0.7"/>
	<path class="st4" d="M627.3,358.4c1-0.4,3.4-0.9,4.4-1.3"/>
	<path class="st4" d="M627.6,362.4c1.1-0.4,3.1-0.8,4.2-1.2"/>
	<path class="st4" d="M627.6,367.2c1.2-0.2,3.4-0.7,4.6-1"/>
	<path class="st4" d="M627.6,370.8c1.4-0.5,3.6-1.2,5-1.6"/>
	<path class="st4" d="M627.9,374.7c0.9-0.5,3.2-2.1,4.1-2.5"/>
	<path class="st4" d="M628.7,377.2c0.9-0.4,3-1.3,3.9-1.7"/>
	<path class="st4" d="M630,380.1c0.8-0.3,2.5-0.9,3.4-1.2"/>
	<path class="st4" d="M631.3,382.4c0.7-0.3,2.5-1,3.2-1.2"/>
	<path class="st4" d="M633,384.6c0.5-0.3,2.3-1.4,2.8-1.7"/>
	<path class="st4" d="M635.4,386.8c0.4-0.3,1.5-1.7,1.9-2"/>
	<path class="st4" d="M638.1,388.2c0.2-0.3,1-1.6,1.2-2"/>
	<path class="st4" d="M624.6,328.5c1.5-0.5,3.9-1.4,5.4-2"/>
	<path class="st4" d="M624.1,324.5c1.3-0.4,3.2-0.9,4.5-1.3"/>
	<path class="st4" d="M624,320.9c0.9-0.4,2.8-1.2,3.7-1.6"/>
	<path class="st4" d="M623.7,318c0.5-0.3,2.2-1.4,2.8-1.7"/>
	<path class="st4" d="M623.1,314.8c0.5-0.2,1.8-0.8,2.3-1"/>
	<path class="st4" d="M621.9,312.2c0.6-0.2,1.7-0.7,2.3-1"/>
	<path class="st4" d="M620.5,310.2c0.5-0.4,1.5-1.4,2-1.8"/>
	<path class="st4" d="M618.6,308.2c0.5-0.4,1.8-1.7,2.3-2.1"/>
	<path class="st4" d="M616.6,305.4c0.5-0.6,1.5-1.7,2.1-2.2"/>
	<path class="st4" d="M614.8,301.7c0.4-0.4,1.3-1.4,1.7-1.8"/>
	<path class="st4" d="M613.4,298.9c0.3,0,1.4-0.5,1.7-0.5"/>
	<line class="st4" x1="647.1" y1="390.4" x2="646.3" y2="390.4"/>
	<line class="st4" x1="647.5" y1="394.1" x2="648.1" y2="394.1"/>
	<line class="st4" x1="647.3" y1="395.8" x2="648.4" y2="395.8"/>
	<path class="st4" d="M646.9,397.5c0.5,0,1,0,1.6,0.1"/>
	<path class="st4" d="M647.1,399.2c0.6,0,1.2,0.1,1.9,0.1"/>
	<path class="st4" d="M646.8,401c0.8,0.1,1.6,0.2,2.4,0.3"/>
	<path class="st4" d="M646.4,403.3c0.9,0.1,1.8,0.2,2.7,0.2"/>
	<path class="st4" d="M646.1,404.9c1,0.3,2,0.6,3,0.9"/>
	<path class="st4" d="M645.7,407.1c0.9,0.1,1.9,0.2,2.8,0.2"/>
	<path class="st4" d="M645.4,409.2c1.1,0.1,2.2,0.2,3.3,0.4"/>
	<path class="st4" d="M645,410.9c1.2,0.2,2.4,0.5,3.5,0.7"/>
	<path class="st4" d="M645,412.8c1,0.2,2,0.3,3.1,0.5"/>
	<path class="st4" d="M644.6,414.6c1,0.1,1.9,0.2,2.9,0.4"/>
	<path class="st4" d="M644.1,416.3c1,0.1,2,0.3,2.9,0.4"/>
	<path class="st4" d="M643.6,418.3c1,0.1,2,0.3,3.1,0.4"/>
	<path class="st4" d="M643.1,420.1c0.9,0.3,1.9,0.5,2.8,0.8"/>
	<path class="st4" d="M642.8,421.7c0.8,0.3,1.6,0.6,2.4,0.9"/>
	<path class="st4" d="M642.1,423.7c0.9,0.3,1.8,0.6,2.7,0.9"/>
	<path class="st4" d="M641.4,425.4c0.9,0.3,1.7,0.5,2.6,0.8"/>
	<path class="st4" d="M640.8,426.9c0.9,0.2,1.8,0.5,2.7,0.7"/>
	<path class="st4" d="M640.1,428.7c0.9,0.2,1.8,0.5,2.7,0.7"/>
	<path class="st4" d="M639.4,430.5c0.8,0.2,1.6,0.5,2.4,0.7"/>
	<path class="st4" d="M638.6,432.2c0.8,0.2,1.6,0.4,2.4,0.6"/>
	<path class="st4" d="M638.2,433.6c0.8,0.5,1.6,0.9,2.4,1.4"/>
	<line class="st4" x1="637.7" y1="435.1" x2="639.5" y2="436.3"/>
	<path class="st4" d="M636.8,437.2c0.7,0.2,1.4,0.4,2.1,0.6"/>
	<path class="st4" d="M636.4,439c0.8,0.2,1.6,0.3,2.5,0.5"/>
	<path class="st4" d="M635.9,440.3c0.5,0.1,1,0.3,1.4,0.4"/>
	<path class="st4" d="M635.2,442.4c0.5,0.1,1,0.3,1.4,0.4"/>
	<path class="st4" d="M634.7,444.1c0.5,0.2,0.9,0.4,1.4,0.6"/>
	<path class="st4" d="M634.4,445.6c0.3,0.1,0.6,0.2,0.9,0.4"/>
	<path class="st4" d="M633.6,447.4c0.3,0.1,0.7,0.2,1,0.3"/>
	<line class="st4" x1="632.9" y1="449" x2="634" y2="449.5"/>
	<path class="st4" d="M632.1,450.4c0.4,0.2,0.9,0.4,1.3,0.6"/>
	<path class="st4" d="M630.5,452c0.7,0.2,1.4,0.5,2.1,0.7"/>
	<path class="st4" d="M629.9,453.2c0.7,0.2,1.3,0.5,2,0.7"/>
	<path class="st4" d="M629.2,454.8c0.7,0.4,1.5,0.7,2.2,1.1"/>
	<line class="st4" x1="629.2" y1="456.7" x2="630.9" y2="457.5"/>
	<path class="st4" d="M628.7,458.5c0.5,0.2,1,0.3,1.4,0.5"/>
	<path class="st4" d="M628.6,460c0.4,0.1,0.7,0.2,1.1,0.4"/>
	<path class="st4" d="M628.3,461.9c0.3,0.1,0.7,0.2,1,0.4"/>
	<path class="st4" d="M627.9,463.3c0.3,0.1,0.6,0.2,0.9,0.3"/>
	<path class="st3" d="M208.6,525.2c124.8,73,282.7,73.5,382.4,16.6"/>
	<path class="st6" d="M688.7,190.8c5.3-2.4,4.7-2.2,11.6-4.2c6.8-2,14.3-3.3,14.3-5.4c0-2.1-0.5-3.9-1.4-3.8
		c-0.9,0.1-2.2-5.2-8.5-7.9c-6.3-2.7-11.2-4.1-20.2-4.8c-9-0.7-17.5,3.3-20.7,6c-3.2,2.7-6.7,6.9-6.7,6.9s-4.7,2.5-7.7,1.3
		c-3-1.3-6.5-6.1-6.5-6.1s7.5-1.8,9.4-5.2c1.9-3.3,3.4-9.4,0.7-16.6c-2.7-7.2-1.8-7.4-1.8-7.4s3.8-0.3,4.7-3.1
		c0.9-2.8,1.4-5.1-1.9-7.3c-2.9-2-6.1-1.3-7.9,0.3c-3.6,3.2-2.1,8.7-2.1,8.7l-28.4,14.5c0,0-5.8,0.5-8.4-1.5c-2.6-2-5.4-4.2-2-7.9
		c3.3-3.6,16.1-12,23.6-16.1c7.5-4.2,3.2-7.5,2.3-7.2c-0.9,0.3-5.5-5-12.6-6.5c-7.1-1.5-17.2-0.4-23,1.9
		c-6.6,2.7-14.4,11.6-17.4,14.2c-3,2.7-6.3,4.5-9.2,4.4c-2.9-0.2-10.1-0.6-10.2-3.9c-0.1-3.3,0.9-4.5,9.8-10.1
		c9-5.6,15.4-8.3,17.2-11.1c1.8-2.8,1.3-7-2.8-10.4c-2.6-2.1-5.6-4.4-18.7,0.3c0,0,0.9-4.1-1.1-5.7c-2.1-1.6-4.6-3.9-10.1-3.6
		c-5.5,0.3-9.5,1.4-9.5,1.4s1.4-4.7,2-6c0,0,6.4-3.6,16.7-4.1c10.3-0.5,18.9,1,25.4,4.7c9.9,5.6,16.8,13,19.2,15.5
		c2.4,2.4,4.1,4.8,6.6,3.5c2.5-1.3-5.1-12.3-13.6-17.5c-6.7-4.2-11.8-7.3-24.1-8.4c-11.3-1-20.1-0.1-28.9,1.9c0,0,1-3-0.7-7
		c-1.7-4-4-15.2-20.2-18c-16.2-2.8-27.1,0.5-31.1,4.7c-4,4.2-8,9.2-6,17.3c2,8.1,11.7,15.3,23.3,15.3c11.6,0,25.2-4.5,25.2-4.5
		s-18.2,19.1-26.9,23.1c-8.7,4-7,5.3-5.9,5.9c1.1,0.6,5.9,2.7,11.4-1s23-18.2,23-18.2s7.8-5.1,11.8-5.1s8.4-0.3,9.5,1.7
		c1.1,2-1.8,4.3-7.8,8.7c-6,4.4-24.4,18-24.4,18s-1.4,2.6,2.4,2.5c3.8-0.1,23.9-15.4,29.4-18.6c5.5-3.2,13.8-6,16.7-5.5
		c3,0.5,6.4,3,4.4,4.5c-1.9,1.5-26.3,17.9-26.3,17.9s-3.7,3.6-2.8,6.1c0.9,2.5,1.8,4.5,7.4,6.2c5.5,1.7,10.2,2.9,13,2.1
		c2.7-0.8,5.4-2.1,5.4-2.1s-0.1,4.3,1.9,6.1c2,1.8,7.2,4.6,11.4,4.7c3.3,0.1,8.3-1.3,8.3-1.3s-0.7,2.5,0.9,4.6
		c1.5,2.1,4.8,6.6,9.3,7.1c4.6,0.5,9.7,0.2,14.8-2.4c5.1-2.6,20.5-10.4,20.5-10.4s3,10,3,13.4c0.1,3.4-1.2,8.6-6.1,9.6
		c-4.9,1-9.6,0.6-12.4-3.1c-2-2.7-1.9-5-2.4-6.1c-0.3-0.5-1.3-1.6-1.8-1.5l-2.1,0.4c-0.6,0.2-1.3,2-1.1,2.6c0.2,0.8,0.8,1.5,1.7,3
		c1.8,3,8.3,6.6,11.6,7.1c3.2,0.5,4.7,1,4.7,1s-2-0.2,1.4,2.8c3.4,3,6,4.6,8.4,4.8c2.4,0.2,7.1-0.2,7.1-0.2s-0.8,0.7,0,3
		c0.9,2.4,5.5,8.7,11.3,9.4c5.8,0.7,8.5,0.6,8.5,0.6s-0.8,4.3,1,7.1c1.8,2.7,4.5,5.2,9.1,7.5c4.5,2.3,12.2,3.1,14.6-0.6
		c2.9-4.4-3.5-2.1-5.7-1.2c-2.2,0.9-4.9,0.7-8.7-1.5c-3.3-2-5.8-5.7-5.6-7.6C681.6,195.1,684.9,192.5,688.7,190.8z M540.5,86.2
		c-5.8,5.4-23.1,8.4-34,6.8c-11-1.6-15.2-15.2-7.6-24.4c7-8.4,21.7-8.2,29.5-6.3c7.8,1.9,12.1,7.5,12.8,11
		C541.9,76.9,542.5,84.3,540.5,86.2z M590.6,146.3c-6.9,0.3-10.5-5.2-6.2-11.1c4.3-6,21.1-13.4,29.6-14.5c8.5-1.1,13,3.7,13,3.7
		s-11.7,5.7-17.4,9.3C603.9,137.3,597.5,146,590.6,146.3z M649.6,135.5c1-1.1,2.7-0.9,3.5,0c1.6,1.7-0.1,4.8-3.8,5.9
		C649.3,141.4,648.2,137.1,649.6,135.5z M668.5,190.2c-6.8-1.3-9-7.4-3.5-12.3c5.6-4.8,23.6-8.2,32.2-7.3s11.8,6.6,11.8,6.6
		s-12.7,2.8-19.1,5.1S675.3,191.5,668.5,190.2z"/>
	<path class="st6" d="M161.9,185.6c12.3-6.5,33.9-7.1,53.3-7.2s35.2-0.1,49.5-5c14.3-4.9,33.4-16.1,39.6-24.3
		c6.1-8.2,6.6-6.1,7.1-5.9c0.4,0.2-4.1,9-15,17.4c-10.9,8.4-22,17.5-39.6,20s-25.3,3.2-35.2,2.8c-9.9-0.4-26.2-1.2-35.6,0
		c-9.4,1.2-21.4,4-25.1,5.6c-3.2,1.4-10.9,11.2-11.6,10.5C148.7,199.2,155.8,188.8,161.9,185.6z"/>
	<path class="st6" d="M180.9,126.9c-8-23.1-23.5-22.4-35.8-18c-12.2,4.4-33.6,26.1-34.2,40c-0.6,13.9,11.8,13.1,11.8,13.1
		s-1.1,14.2,0.9,23.9c2,9.7,14.1,23.5,24,24.4c9.9,1,24.7-22.4,29.4-31.3C181.8,170.2,188.9,150,180.9,126.9z M167.1,187.5
		c-4,8.7-14.6,27.1-28.8,13.6c-14.3-13.5-8.8-40.6-8.8-40.6s3.8-2.8,8.4-9.2c4.6-6.4,0.9-11.9,0.9-11.9l8.2-11.9c0,0-3.1,0.2-6,2.2
		c-2.9,2-5.3,5.8-5.3,5.8s-3.9-2-5.5-1.5c-1.6,0.5,3.7,4,3.7,4s-1.5,2.2-4,6.2c-2.5,4.1-5.8,13-5.8,13c-5.3-3.4-6.9-7.5-1.5-19.2
		c5.4-11.7,22.2-28.9,31.5-28c9.3,0.9,14.2,0.3,20.8,19.5C181.6,148.6,171.1,178.9,167.1,187.5z M130.8,156.2c0,0,4.6-12.8,6.4-13.8
		s0,5.6-0.8,7.4C135.6,151.8,130.8,156.2,130.8,156.2z"/>
	<g>
		<path class="st6" d="M437.8,26c-27.8-3.6-45.7,10.4-48.7,13.7c0,0-33.6-15.5-62.5-9.9c-28.9,5.6-54.7,26.4-54.9,34
			c-0.2,7.6,6.7,1,8.7-1.2c2-2.1,28.6-34.5,63.9-31.9s42.6,10.1,42.6,10.1s-20.4,27.7-23.1,34c0,0-19.6-10.7-31.9,15.2
			c-12.4,25.9-6.2,24.4-6.2,24.4s-4,7.3-9.1,6.6c-5.1-0.8-9.9,0.7-1.1-19.7c6.7-15.5,7.7-17.1,7.8-16.9c0.1-1.1,0.2-5.6-3.9-4.9
			c-4.6,0.8-23.2,48.9-26.5,48.4c-4.1-0.5-7.7,3.6,0.1-20.3c0,0,9.4-11.5-8.1-17.4c0,0,7.2-19.3-2.1-18.9
			c-9.3,0.4-11.7,13.7-8.9,16.8c2.8,3.2,7.3,5.6,7.3,5.6s-28.9,78.5-34.1,37.9c0,0,16.1-5.5,18.4-19.5c2.3-13.9-12.4-16.8-15.5-8.6
			c-3.1,8.2-17.8,67.7-23.6,45.3c0,0-0.4-16.3,7.6-36.2c0,0-5.4-8.5-11.3,6.9s-7.2,34.8-7.2,34.8s-3.2,7.8-8.2,7.6
			c-5-0.2-6.3-6.1,0-27.2c0,0-2.8-9.8-7.9-8.7c-5.1,1.1-9.5,3.4-8.7,6.5c0.2,0.6,2-0.1,2-0.1s4.5-3.6,6-2.7s4.7,2.1,2.1,8.2
			c-2.6,6-7.3,20.5-4.4,24.6c2.9,4.1,6.6,7.5,11.6,4.4c5-3.2,9.1-8.3,11.2-11.8c0,0,2.2,4.1,6.7,2.8c4.6-1.4,7.6-1.5,10.9-7.1
			c3.2-5.6,4.7-9.4,4.7-9.4s4.2,8.4,10.3,5.9c6.1-2.5,12.8-3.4,21.3-24.5c8.5-21.2,9.8-26.5,9.8-26.5s1.8-2.7,3.1-0.7
			c1.3,2,2.3,4,0.7,8.6c-1.5,4.6-10.7,25.7,0.2,27.7c10.9,2,17.6-12.8,17.6-12.8s3.9,4.8,11,5.4c7.1,0.6,10.8-4.2,11.8-6.1
			c1-1.9,1.1,0.4,6.7,2.2s15.6-4.2,18.6-10.4c0,0,1.5,4.8,7.2,6.6c5.7,1.8,12.2-2.8,14.4-6.3c0,0,2.4,5.5,12,3.8
			c9.6-1.8,10.7-6.3,10.7-6.3s4.8,7,13.4,5.6c8.6-1.4,10.5-6.5,13.1-10.2c2.6-3.8-0.2-3.2-1.4-2.2c-1.2,1-4.4,9.7-11.1,9.5
			s-11.2-0.3-8.8-7.2c2.4-6.8,11.4-23.9,14.3-26.1c2.9-2.2-1.1-5.8-5.4-6.1s-21-0.2-30.3,13.7c-9.3,13.9-9.6,20.4-8,23
			c1.7,2.6-3.2,7-7.5,6.7c-4.2-0.2-10.9-0.3-3-18.2c7.9-17.9,21-46.9,30.9-52.3c0,0,33.1,12.5,53.6,8.8
			C467.1,49.3,465.6,29.6,437.8,26z M257.2,102.9c3.8,1.6,6.6,13.8-8.9,25C248.3,127.9,253.4,101.2,257.2,102.9z M282.9,89.1
			c0,0-3.5-8.4-1.4-10.3C283.6,76.8,286.1,78,282.9,89.1z M389.8,83.5c9-14.4,21.1-8.8,21.1-8.8c-8.7,6.5-12.8,21.5-16.1,28.8
			c-3.3,7.3-10.4,9.6-15,7.5C375.1,108.9,380.8,97.9,389.8,83.5z M354.7,98.7c-8.6,28-31.8,24.2-17.6-3.1
			c14.2-27.3,24.5-16.2,24.5-16.2L354.7,98.7z M443.5,48.1c-14.7,1.7-38-0.4-48.8-5.5c0,0,23.5-20,43-14.6
			C457.2,33.4,458.2,46.4,443.5,48.1z"/>
		<path class="st6" d="M323.3,84.4c0,0.2,0,0.3,0,0.3S323.3,84.4,323.3,84.4z"/>
		<path class="st6" d="M328.6,71.3c2.7-3.6,0.7-10.1-2.4-9.5c-3.1,0.6-7.6,8.2-5,11.1C321.2,72.9,325.9,74.9,328.6,71.3z"/>
	</g>
	<path class="st6" d="M468.3,730.3c-22.9-10-83.1,26.1-106.4,38c0,0-65.4-16.7-51.4-109.6c0,0,26.4-13.9,14.7-29.6
		c0,0-3.2-5.5-10.3-1.1c-12.6,7.8-12.2,29.9-12.2,29.9c-1.7,2.3-3.9,4.1-6.5,5.4l-29.3,15c0,0,5.4-18.3-0.5-41
		c0,0,20.1-26.7,9.5-38.5c0,0-11.6-4.4-20.8,10.2c-9.2,14.7,3.4,35.3,3.4,35.3s-38.2,30.6-55.6,33.3c-17.4,2.7-39.8,1.8-45.1-9
		c-2.6-5.3,5.2-12.8,2.8-15.7c-2.3-2.7-10.2-4.5-9.4,10.8c0.8,15.3,35.1,29.6,68.6,11.7c33.4-17.9,38.9-28.8,38.9-28.8
		s-0.7,36.5-4,39.2c-3.2,2.7-18,11.6-16.9,15.1c1,3.5,9.6,11.7,15.6,3.7c6-7.9,11-18.2,12.9-24.2l34.6-17c0,0-21.4,74.9,56.2,106.9
		c0,0-31.6,11.7-46.9-0.5c0,0-3.5,1.2-1.9,2.5c1.7,1.3,21,11.9,56,1.1c0,0,46.2,11.8,77.7,1.1C473.4,763.8,491.2,740.2,468.3,730.3z
		 M321.5,631.4c2.3-1,12.2,6.7-10.1,23.9C310.5,656,319.2,632.4,321.5,631.4z M242.9,701.2c-1.2-1.3,10.2-10.7,10.2-10.7
		C247.8,701.8,244.2,702.6,242.9,701.2z M265.1,634c-0.5,0.5-12.4-21.3,3.1-30.1C283.7,595.1,272.1,627.3,265.1,634z M441,771.9
		c0,0-36.4,10.2-69.9-0.6c-1.1-0.3,55.4-28.3,76.5-36.8C468.6,726,501.7,745.6,441,771.9z"/>
	<path class="st6" d="M610.3,575.7c0,0-3.8,16.9-13.6,24.9c-9.8,8.1-15.4,13.5-67.2,6.9c-51.8-6.6-64.1,24.8-88.9,69.4
		c0,0-6.6-8.4-15.6-4.2c-9,4.2-30.2,17.1-35.3,47.8c0,0-13.5,9.1-20.3,2c-5.8-6,14.7-29.6,20.1-38.8c1-1.8,0.5-4.1-1.3-5.1
		c-5.3-3.2-18.9-8-39.7,7.9c-27.2,20.8-21.2,37-8.2,38.3c13,1.3,14.4-1.4,21.5-4.8c0,0,9.7,16.8,30.6,3.2c0,0,11.8,14.2,32-5.5
		c0,0,2.7,10.7,11.6,8.5c0,0,23.3-7.8,41.3-48.6c0,0,2.6-6.1,5.2,0.5c2.6,6.5-21.5,35.7-9.3,41.4c12.2,5.7,19.6-1.2,28.2-11.2
		c0,0,10.2,17.2,27.7-0.4c0,0,0.5-8.2-5-0.5c-5.5,7.7-17.8,6.3-13.6-10.5c0,0,40.9-13.4,20.9-36.5c0,0-5.7-4.7-11.8,1.9
		c-6.1,6.6-15.5,33.7-20.8,40.2c-5.3,6.6-13,14.7-17,13.6c-3-0.8-6.9,2.7,10.5-32.7c0,0,4.1-6.4-11-14.2c0,0,7.4-19.7,0-23.6
		c-7.2-3.8-18.9,16.9-5.9,26.3c0.4,0.3,0.8,0.5,1.2,0.8c0,0-23.5,45.9-42.1,48.9c0,0-4.2-0.9-1.4-8.2c2.8-7.4,37.1-94.2,61.7-100.4
		c24.6-6.3,30.5,1,59.4,4c28.8,3,54.6-13.4,57.6-40.4C611.7,576.7,611.7,576,610.3,575.7z M359.1,716.1c-11.5,12-21.4,3.9-21.6,1.3
		c-0.3-3.7-1-8.8,17.4-26.2c18.3-17.4,28.4-11.1,28.4-11.1s-10.5,11.5-13.5,15.7C366.6,700.1,359.1,716.1,359.1,716.1z M527.3,662.8
		c3.2,1.3,4.8,15.1-1.7,21.3c-6.5,6.2-13.9,8.9-13.9,8.9S524.1,661.4,527.3,662.8z M479.5,654c3.2-0.6,2.4,3.4-0.8,12.1
		C478.7,666.1,476.3,654.7,479.5,654z M421.7,716.4c-6.7,8.5-15.9,8.7-15.9,8.7c-4.3-0.9-16.1-4.5,3.2-31.2s29.9-13.2,29.9-13.2
		S428.4,707.9,421.7,716.4z"/>
</g>
</svg>
