<?xml version="1.0" encoding="utf-8"?>
<!-- Generator: Adobe Illustrator 25.2.3, SVG Export Plug-In . SVG Version: 6.00 Build 0)  -->
<svg version="1.1" id="Capa_1" xmlns="http://www.w3.org/2000/svg" xmlns:xlink="http://www.w3.org/1999/xlink" x="0px" y="0px"
	 viewBox="0 0 612 792" style="enable-background:new 0 0 612 792;" xml:space="preserve">
<style type="text/css">
	.st0{fill:#FFFFFF;stroke:#211915;stroke-miterlimit:10;}
	.st1{fill:#C0854B;}
	.st2{fill:none;stroke:#BD9B6D;stroke-width:0.5;stroke-miterlimit:10;}
	.st3{fill:none;stroke:#211915;stroke-miterlimit:10;}
	.st4{fill:none;stroke:#594E41;stroke-width:0.25;stroke-miterlimit:10;}
	.st5{fill:none;stroke:#211915;stroke-width:0.5;stroke-miterlimit:10;}
	.st6{fill:#FFFFFF;}
</style>
<g id="Fondo">
</g>
<g id="Ilustración">
	<path class="st0" d="M200.1,353c0,0-9.1-10.7-14-13.1s-14.7-6.1-31.5-9s-21.5-4-21.5-4s-11-5.4-15.6-0.5s-7,4-9.5,25.2
		c-2.6,21.3,19.9,31.2,19.9,31.2l17.9,4.6c0,0-2,3.8-2.1,11.1c0,0,0.2,2.3,3.2,9s3.4,21.7,6.6,27c3.2,5.3,10.9,23.6,16.4,27.3
		c0,0,0.2,2.4,1.3,5.4s1.7,4.5,5.7,7.6s1.5,0.4,4.6,3.7s0.6,6.1,7.7,7.5c7.1,1.5,7.9-8.7,6.4-10.1c-1.5-1.5,11.7-44.6,11.7-44.6
		l-8.2-28.4C199.2,402.7,212.9,383.2,200.1,353z"/>
	<path class="st0" d="M400.8,356.7c0,0,7.4-13.7,10.8-14.6s15.6-1.8,21.3-0.8c5.7,1,13.5,2,21.7,3.6l24.8,5c0,0,4.6,9,1.2,17.8
		s-7.7,17.9-8.5,19c-0.7,1-3.3,5.8-10.8,7.7c-7.5,1.9-10,2-10.3,3.5s1.1,6-3.9,10.1c0,0-2.2,1.6-4,9.1l-2.2,6.9l-0.7,3.6
		c0,0,0.2,4.9-0.8,7.3S432,448,432,448s-0.2,6-1.6,7.9c-1.3,1.9-4.1,5.6-6,9.5s-5.5,10.2-7,12.4c-1.5,2.2-3.9,4.4-4.6,4.4
		c-0.7,0.1-3,7-5.1,8.9s-3.1,3.5-10.4,0.4c0,0-3.3-1.9-3.1-7.3s7.4-14.5,7.4-14.5s0.4-51.3,3.5-56.3S397.7,357.5,400.8,356.7z"/>
	<path class="st0" d="M451.1,397c1.4-0.4,4.8-1.3,7.6-2c5.2-1.3,6-1.5,7.3-2.2c2.7-1.5,4.2-3.6,5.9-5.9c1.4-1.9,2.4-4,4.2-8
		c1.4-3,2.6-5.6,3.8-9.3c1.3-3.9,2-5.8,2.2-8c0.2-2.3,0.1-6.5-2.7-11.8l-8-1.6"/>
	<path class="st1" d="M423.1,411.5c-0.6-1.9-0.2-2.3-2.4-4.3c-2.5-2.4-3.3-2.6-4.3-3.8c-0.6-0.7-2.3-6.6-1.7-14.4
		c0.4-4.8,0.9-2.8,1-5.7c0.1-3.1-0.3-6.4-3.3-12c-1.4-2.8-3.2-6.3-5.6-9.6c-2.4-3.3-6-6.3-9.7-10.3c-1.1-1.2-5.3-4.8-6-5.4
		c-0.3,0.5-6.3-6.9-6.4-5.9c-0.1,1.1-8.7-7-8.6-6.6c0.1,0.3-0.7-1.1-4.1-3c0.4,0.2-1.2,0.1-1.7-1.2c-2.1-1.2-3.6-2.2-5.6-3.8
		c-2.3-1.8-3.3-1.2-5.7-2.9c0.1,0.9,0.3,0.4-1.7-0.7c-0.1,0-0.7-0.3-0.8-0.3c-1.3-0.5-1.9-0.7-2.2-0.8c-0.1,0-0.3-0.1-0.8-0.3
		c-4.3-1.6-0.8-0.8-4.3-1.6c-2.9-0.6,1.5,0.6-5-1.4c-6.3-1.2,0-0.8-10.7-2.5c-5.8-0.9-2.6-0.3-4.9-0.9c-3.6-0.5-0.5-0.1-3.6-0.5
		c-3.2-0.5,0.8,0.1-2.8-0.3c-3.2-0.4-0.5-0.1-4.2-0.4c-3.1-0.3-1-0.1-4.2-0.3c-3.2-0.2-0.6-0.3-4.4-0.3c-2.3,0-0.9,0-5.3,0
		c-6.6,0.3-1.7-0.7-10.8,0.4c-8.8,1-5.5,0.5-7.5,0.8c-5.2,1,1.4,0.3-9.8,1.7l-6.1,2.9c-2.6,1.2-6.7,3.5-7,3.3
		c-3.9,2.3-13.8,6.2-18.9,9.4c1.9,1.4,1.5,4.2,1.5,4.2c-3.7-2.5-17.1-2.7-17.5-3.1c-10.7,4.9-0.7,0.4-3.1,1.6
		c-5.8,2.8-0.9-0.5-8.4,4.4c-0.5-0.8-4.3,2.8-10.8,8.2c-2.5,2.1-3.5,4.1-5.7,6.9c-1.7,2-3.2,3.8-6.9,7.6
		c-0.4,0.4-8.4,13.1-11.2,17.7c1.2,3.8,4.3,5.2,4.2,14.7c-1.2,2-0.8,2.4-2.2,3.8c-0.3-0.2-2.6,2.2-2.9,2c-0.5-0.4-3,2-3.1,1.4
		l-3.2,0.8c-1-1-1.1,2-1,4c0.3,4.4,0,8.2,0,9.8c0,1,0,1.4,0,2.3c0,0.8,0,1,0,1.2c0,0.6,0,1.3,0,2.1c0,0,0,0.6,0.1,1.2
		c0.1,2.6,0.7,6.8,0.7,7.3c0.4,1.2,0.6,4.5,1.3,6.9c0.7,2.6,1.3,3.2,2,5.3c1.2,3.7,1.8,5.6,2,6c0.7,1.1,1,0.5,2.5,2.6
		c1.8,2.4,1.4,2.2,4.1,6.3c1.2,1.9,1.9,2.8,2.2,4.4c0.2,1.1,0.2,1.6,0,2.2c-0.2,0.5-0.8,1.2-0.7,1.8c0.1,0.4,0.6,0.3,0.7,0.5
		c0.6,0.8,1,1.7,1.5,2.5c1,1.4,2.1,3,2.7,3.8c1.7,2.6,1.6,3.2,2.9,4.7c1,1.1,1.9,1.9,2.6,2.4c0.9,0.8,1,0,1.9,0.9
		c0.4,0.2,1.9,1,2.3,1.2l6.8,3.5c2.2,0.6,4.1,2.2,5.4,2.6c3.7,1.1,5.6,2.5,7,3.1c2.1,0.8,2.8,0.9,3.4,1.2c0.9,0.5,1.3,0.5,2.3,1
		c1.1,0.6,1.4,0.7,2.6,1.1c0.9,0.3,2.3,0.7,3.8,1.4c2.1,0.7,3.6,1.4,4.6,1.5c0.4,0.1,0.9,0.2,2,0.6c0.7,0.3,1.2,0.3,1.7,0.5
		c1.2,0.5,1.7,0.8,3.3,1c1,0.1,1.6,0.6,3.2,0.9c1.4,0.3,3.1,0.5,6.1,1.6c3.4,1.2,3.6,0.8,4.9,1.1c1.5,0.4,1.9,0.4,4,0.8
		c1.6,0.4,2.8,0.4,4.3,0.8c4,1.1,4.6,0.4,7.9,1.3c1.9,0.5,3.2,0.5,4.5,0.8c2.3,0.5,4.5,0.4,6,0.6c1,0.2,3.1,0.1,4.8,0.2
		c1,0.1,3.1,0.2,5.2,0.3c2.2,0.1,2.4,0.3,3.8,0.2c1.2,0,2,0.1,2.7,0c1.7-0.1,4.1,0.1,5.2,0c5.9-0.4,5.9-0.5,9-0.7
		c2.3-0.1,6.6-0.4,10.2-0.8c3.1-0.3,2.9-0.4,7.8-0.8c1.6-0.2,3-0.3,4.9-0.6c1.5-0.2,2.6-0.4,3.6-0.6c2.7-0.5,4.1-0.8,5.1-1.1
		c1.5-0.5,2.9,0,5-1.1c1.6-0.2,3.2-0.9,5.2-1.5c3.4-1,3-1,4.2-1.3c0.9-0.2,1.4,0.1,2-0.3c1-0.5,1.6-0.8,2.1-0.7c0.8,0.2,2-0.7,5.6-2
		c1.8-0.7,4.2-2.1,6.5-2.6c2-0.4,2.6-1.2,3.7-1.7c1.8-0.8,4.3-2,5.4-2.7c1.3-0.5,1.8-0.8,3.3-1.8c1.4-0.9,2.2-1.8,2.4-2
		c0.9-0.8,0.9-0.8,1.9-2.3c0,0,1.6-1.5,3.2-3.2c0.7-0.8,2.5-3.1,3.6-4.6c0.8-1.2,1.6-2.8,2.7-5.7c0.5-1.3,1.4-4.1,1.7-5.1
		c3.6-11.9,6.6-21,9-26c2.3-4.8,2.7-6.5,4.8-11.3c0.1-0.2,1.1-3.5,1.8-7.3C423.3,415.9,423.8,413.4,423.1,411.5"/>
	<path class="st2" d="M423.1,411.5c-0.6-1.9-0.2-2.3-2.4-4.3c-2.5-2.4-3.3-2.6-4.3-3.8c-0.6-0.7-2.3-6.6-1.7-14.4
		c0.4-4.8,0.9-2.8,1-5.7c0.1-3.1-0.3-6.4-3.3-12c-1.4-2.8-3.2-6.3-5.6-9.6c-2.4-3.3-6-6.3-9.7-10.3c-1.1-1.2-5.3-4.8-6-5.4
		c-0.3,0.5-6.3-6.9-6.4-5.9c-0.1,1.1-8.7-7-8.6-6.6c0.1,0.3-0.7-1.1-4.1-3c0.4,0.2-1.2,0.1-1.7-1.2c-2.1-1.2-3.6-2.2-5.6-3.8
		c-2.3-1.8-3.3-1.2-5.7-2.9c0.1,0.9,0.3,0.4-1.7-0.7c-0.1,0-0.7-0.3-0.8-0.3c-1.3-0.5-1.9-0.7-2.2-0.8c-0.1,0-0.3-0.1-0.8-0.3
		c-4.3-1.6-0.8-0.8-4.3-1.6c-2.9-0.6,1.5,0.6-5-1.4c-6.3-1.2,0-0.8-10.7-2.5c-5.8-0.9-2.6-0.3-4.9-0.9c-3.6-0.5-0.5-0.1-3.6-0.5
		c-3.2-0.5,0.8,0.1-2.8-0.3c-3.2-0.4-0.5-0.1-4.2-0.4c-3.1-0.3-1-0.1-4.2-0.3c-3.2-0.2-0.6-0.3-4.4-0.3c-2.3,0-0.9,0-5.3,0
		c-6.6,0.3-1.7-0.7-10.8,0.4c-8.8,1-5.5,0.5-7.5,0.8c-5.2,1,1.4,0.3-9.8,1.7l-6.1,2.9c-2.6,1.2-6.7,3.5-7,3.3
		c-3.9,2.3-13.8,6.2-18.9,9.4c1.9,1.4,1.5,4.2,1.5,4.2c-3.7-2.5-17.1-2.7-17.5-3.1c-10.7,4.9-0.7,0.4-3.1,1.6
		c-5.8,2.8-0.9-0.5-8.4,4.4c-0.5-0.8-4.3,2.8-10.8,8.2c-2.5,2.1-3.5,4.1-5.7,6.9c-1.7,2-3.2,3.8-6.9,7.6
		c-0.4,0.4-8.4,13.1-11.2,17.7c1.2,3.8,4.3,5.2,4.2,14.7c-1.2,2-0.8,2.4-2.2,3.8c-0.3-0.2-2.6,2.2-2.9,2c-0.5-0.4-3,2-3.1,1.4
		l-3.2,0.8c-1-1-1.1,2-1,4c0.3,4.4,0,8.2,0,9.8c0,1,0,1.4,0,2.3c0,0.8,0,1,0,1.2c0,0.6,0,1.3,0,2.1c0,0,0,0.6,0.1,1.2
		c0.1,2.6,0.7,6.8,0.7,7.3c0.4,1.2,0.6,4.5,1.3,6.9c0.7,2.6,1.3,3.2,2,5.3c1.2,3.7,1.8,5.6,2,6c0.7,1.1,1,0.5,2.5,2.6
		c1.8,2.4,1.4,2.2,4.1,6.3c1.2,1.9,1.9,2.8,2.2,4.4c0.2,1.1,0.2,1.6,0,2.2c-0.2,0.5-0.8,1.2-0.7,1.8c0.1,0.4,0.6,0.3,0.7,0.5
		c0.6,0.8,1,1.7,1.5,2.5c1,1.4,2.1,3,2.7,3.8c1.7,2.6,1.6,3.2,2.9,4.7c1,1.1,1.9,1.9,2.6,2.4c0.9,0.8,1,0,1.9,0.9
		c0.4,0.2,1.9,1,2.3,1.2l6.8,3.5c2.2,0.6,4.1,2.2,5.4,2.6c3.7,1.1,5.6,2.5,7,3.1c2.1,0.8,2.8,0.9,3.4,1.2c0.9,0.5,1.3,0.5,2.3,1
		c1.1,0.6,1.4,0.7,2.6,1.1c0.9,0.3,2.3,0.7,3.8,1.4c2.1,0.7,3.6,1.4,4.6,1.5c0.4,0.1,0.9,0.2,2,0.6c0.7,0.3,1.2,0.3,1.7,0.5
		c1.2,0.5,1.7,0.8,3.3,1c1,0.1,1.6,0.6,3.2,0.9c1.4,0.3,3.1,0.5,6.1,1.6c3.4,1.2,3.6,0.8,4.9,1.1c1.5,0.4,1.9,0.4,4,0.8
		c1.6,0.4,2.8,0.4,4.3,0.8c4,1.1,4.6,0.4,7.9,1.3c1.9,0.5,3.2,0.5,4.5,0.8c2.3,0.5,4.5,0.4,6,0.6c1,0.2,3.1,0.1,4.8,0.2
		c1,0.1,3.1,0.2,5.2,0.3c2.2,0.1,2.4,0.3,3.8,0.2c1.2,0,2,0.1,2.7,0c1.7-0.1,4.1,0.1,5.2,0c5.9-0.4,5.9-0.5,9-0.7
		c2.3-0.1,6.6-0.4,10.2-0.8c3.1-0.3,2.9-0.4,7.8-0.8c1.6-0.2,3-0.3,4.9-0.6c1.5-0.2,2.6-0.4,3.6-0.6c2.7-0.5,4.1-0.8,5.1-1.1
		c1.5-0.5,2.9,0,5-1.1c1.6-0.2,3.2-0.9,5.2-1.5c3.4-1,3-1,4.2-1.3c0.9-0.2,1.4,0.1,2-0.3c1-0.5,1.6-0.8,2.1-0.7c0.8,0.2,2-0.7,5.6-2
		c1.8-0.7,4.2-2.1,6.5-2.6c2-0.4,2.6-1.2,3.7-1.7c1.8-0.8,4.3-2,5.4-2.7c1.3-0.5,1.8-0.8,3.3-1.8c1.4-0.9,2.2-1.8,2.4-2
		c0.9-0.8,0.9-0.8,1.9-2.3c0,0,1.6-1.5,3.2-3.2c0.7-0.8,2.5-3.1,3.6-4.6c0.8-1.2,1.6-2.8,2.7-5.7c0.5-1.3,1.4-4.1,1.7-5.1
		c3.6-11.9,6.6-21,9-26c2.3-4.8,2.7-6.5,4.8-11.3c0.1-0.2,1.1-3.5,1.8-7.3C423.3,415.9,423.8,413.4,423.1,411.5z"/>
	<path class="st3" d="M427.6,349.5c2,0,5.1,0.4,7.9,2.3c1.9,1.2,3.1,2.8,3.6,3.3c1.8,2.2,1.7,3.3,3.3,5.1c1.8,2,2.6,1.6,4.1,3.1
		c2.2,2.3,2.2,5.6,2.3,10.9c0,3.8-0.4,4.4-0.3,8.9c0.1,2.8,0.4,4.5,0.5,5.3c0.5,3.2,1.1,3.9,1.5,6.1c0.5,2.4,1.3,6.6-0.5,10.2
		c-1.5,3-3.7,3-5.3,6.9c-0.4,0.9-0.3,1-1,3.6c-1.9,7-2.6,7.5-3.3,11.2c-0.8,4.3,0,4.4-0.8,7.6c-0.5,2.1-1.2,3.2-4.3,8.4
		c-3.6,6.1-5.4,9.1-5.9,9.9c-2.9,5.3-3,6.3-5.1,8.9c-1.7,2-2.5,2.4-3.6,4.3c-1.7,3.1-1.3,4.8-2.8,6.4c-1.4,1.4-3.9,2.3-6.4,1.5
		c-2.6-0.9-5.4-7.2-5.6-7.5"/>
	<path class="st3" d="M159.2,405.7c0.8-0.1,1.9-0.1,3.3,0.3c2.1,0.6,3.4,1.7,4.3,2.5c1.5,1.3,2.3,2.6,3.6,4.8
		c0.7,1.2,1.9,3.3,2.8,5.4"/>
	<path class="st3" d="M443.6,365.9c-0.6,2.5-1.4,4.4-2,5.6c-0.9,1.7-1.4,2.4-1.9,4.1c-0.3,1.2-0.4,2.2-0.5,4.1c-0.2,3,0.1,3-0.1,4.8
		c-0.3,2.6-1.2,4.4-1.4,4.8c-0.8,1.6-1,1.2-2.2,3.4c-0.7,1.3-0.6,1.4-2.2,4.6c-0.8,1.6-0.9,1.7-1.1,2.4c-0.7,1.8-0.7,2.5-1.1,3.6
		c-0.7,1.7-2,3.2-3.2,3.9c-3.2,1.9-8.9-0.1-11.4-3.8c-1.5-2.2-1.5-5-1.7-10.7c-0.1-2.8-0.1-4.1,0.3-5.7c0.7-3.3,2-4.2,3.2-8.9
		c0.3-1.1,0.1-0.8,0.8-3.4c0.5-2,0.7-2.8,0.6-4.1c0-0.9-0.2-1.7-0.4-2.2"/>
	<path class="st3" d="M418.2,378.1c-0.4-2.4-2.1-6.5-2.5-7.6c-1.1-2.7-2-3.7-2.9-6.2c-0.7-2.1-0.9-3.9-1-5"/>
	<path class="st3" d="M479.4,349.9c-1.2-0.4-16.7-3.3-19-3.8c-2.8-0.7-4.9-1-5.9-1.1c-6.2-1-6.4-1.4-12.7-2.4
		c-3.6-0.6-8.6-1.3-14.5-1.7c-0.2,0-3.8-0.2-8.6,0c-4.8,0.2-6.3,0.7-7.5,1.4c-1.7,1-2.7,2.3-4.3,4.3c-1.6,2-4.7,8-5.3,9.4"/>
	<path class="st3" d="M432.3,447.4c-0.4,2.6-1.3,7.4-2,8.6c-0.6,1-1,1.4-2.4,3.4c-0.2,0.2-1.1,1.6-2,3.2c-2,3.4-2,4.1-3.8,7.3
		c-1.3,2.3-1.2,1.7-2.8,4.3c-2.2,3.7-2.1,4.4-3.6,5.9c-1.7,1.7-2.3,1.3-3.8,3.1c-1,1.1-0.9,1.6-2.4,4.6s-2.3,4.5-3.2,5.1
		c-2.4,1.6-5.6,0.5-6.6,0.1c-1-0.3-3.6-1.2-4.6-3.7c-0.3-0.7-1-4.4-1-4.8"/>
	<path class="st3" d="M363,324.4c14.7,9.4,37,26.5,47,41.5c3,5,5,11,6.3,17.5"/>
	<path class="st3" d="M420.9,445c-0.6-0.1-2.2-0.3-3.9,0.5c-1.4,0.6-5.3,4.6-5.7,5.1"/>
	<path class="st3" d="M432.3,428.9c-1.1-0.4-3.3-1-5.9-0.7c-1.9,0.2-6.7,2.7-7.6,3.2"/>
	<path class="st3" d="M430.7,408.8c-1,0.5-2.7,1.6-4.2,3.6c-1.2,1.7-3.1,4.6-3.4,5.6"/>
	<path class="st3" d="M174.3,433.7c0.9,0.6-1-6.8-0.8-7.9"/>
	<path class="st3" d="M413.2,444.4c0.2,1.9,0.2,1.9,0.3,3.8"/>
	<path class="st3" d="M172.3,416.9c0.2-0.9,0.8-4.7,1-5.6"/>
	<path class="st3" d="M420.3,430.6c0.1-1.1,0.2-2.2,0.2-3.3"/>
	<path class="st3" d="M146,387.4h-0.1c-11.1-1.9-23.9-4.8-31.5-13.8c-8.5-10.1-7.5-27.7-3-39.3c2.9-7.5,8.3-10.8,16.3-9"/>
	<path class="st3" d="M177.9,373.7c-1.2-1.2-2.5-2.1-3.6-2.9"/>
	<path class="st3" d="M157.4,367.6c-0.6,2.6-0.9,4.8-1,6.4c-0.2,2.5-0.3,3.8,0,5.6c0.2,1,0.6,3.1,2,5.3c1.1,1.7,1.5,1.4,3.8,4.1
		c0.4,0.5,1.2,1.3,2,2.5c0.4,0.5,0.8,1.1,1.3,1.8c1.6,2.5,1.4,2.9,2.5,4.1c0.5,0.6,2,2.1,4.3,2.8c3.4,1,6.4-0.5,7.4-1
		c1.1-0.6,3.7-1.9,5.1-5.1c1.1-2.6,0.6-5,0-7.9c-0.2-1.2-1-4.4-3.3-7.9c-0.4-0.6-0.8-1.1-1.2-1.7c-0.8-1-1.6-1.9-2.5-2.7"/>
	<path class="st3" d="M156.7,390.7c0.8-0.2,1.9-0.4,3.3-0.2c0.8,0.1,3.8,0.8,4.3,1"/>
	<path class="st3" d="M172.4,360.9c0.8,0.7,1.9,1.7,2.9,3.2c1.1,1.7,1.6,3.3,1.9,4.2c0.2,0.8,0.4,1.5,0.4,1.6v0.1
		c0.1,0.8,0.2,3.2,0.2,3.6l0,0"/>
	<path class="st3" d="M177.6,370.1L177.6,370.1c0.8,0.2,3.6,0.6,4.8,0.3c2-0.4,3.1-2,4.1-3.7c0.8-1.3,1.2-2.3,1.9-4.2
		c0.6-1.7,1.1-3.2,1.3-4.2"/>
	<path class="st3" d="M127.7,325.2c22.4,7.7,58.2,4.4,72.2,27.6"/>
	<path class="st3" d="M173.5,425.8c-0.6-8.5-0.3-16.9,0.2-25.4"/>
	<path class="st3" d="M200.8,351.8c7.5-10.4,15.7-14.9,27.2-19.9"/>
	<path class="st3" d="M181.7,378.1c1.8-3.2,4.3-7,7-10.9c3.6-5.2,7.8-10.4,11.1-14.4c0.3-0.4,0.6-0.7,0.9-1.1"/>
	<path class="st3" d="M169.6,341.9c-1.2,1.1-3,2.8-5.1,4.8c-5.4,5.2-6.2,6.3-6.6,6.9c-1.8,2.6-2.4,5.1-3.8,9.9
		c-0.6,2.1-0.7,2.8-1.3,5.1c-1.1,4.4-2,7.9-3.6,11.7c-1.5,3.6-2.5,5.2-3.4,7.1c-0.5,1.1-1,2.3-1.4,4.1c-0.4,1.8-0.9,3.5-0.8,5.8
		c0.2,4,1.7,6,3.3,10.2c0.8,2.1,0.5,1.8,2.5,11.2c1.7,7.7,2.6,11.5,3.3,13.7c1.5,4.5,3.2,7.7,6.1,13.2c2.4,4.6,3.6,6.9,4.8,8.7
		c1.3,1.8,2.9,4.5,5.8,7.1c0.1,0.1,0.2,0.2,0.4,0.3c1.6,1.4,5.8,4.9,10.6,4.8c0.7,0,5.4-0.1,7.1-3c2.4-4.1-3-10.9-6.1-14.8
		c-2.3-2.8-4.8-5.9-8.6-6.6c-3-0.5-6,0.3-6,0.3c-1,0.3-1.8,0.7-2.4,1"/>
	<path class="st3" d="M169.6,461.4c0,0,1.8,6.3,2.3,7.5c0.8,1.8,1.2,2.5,2,3.4c0.6,0.7,1.4,1.2,3.1,2.4c1.4,1,2,1.3,3.1,2.2
		c0.7,0.6,1.1,1,1.5,1.5c1.1,1.4,1,2.3,1.7,3.6c0.9,1.6,2.3,2.4,2.7,2.7c0.6,0.4,3.4,2.1,6.3,0.8c3.1-1.3,3.8-4.6,3.9-4.8
		c0.3-1.4,0-4.2-0.2-4.8"/>
	<path class="st3" d="M156.4,427.6c0.4-0.6,1.7-2.1,3.8-2.5c1.5-0.3,2.7,0.1,3.8,0.5c1.8,0.6,2.9,1.5,4.3,2.5c0.9,0.7,6.1,6,7.4,7.5
		"/>
	<path class="st3" d="M412.6,447c0.1,1.3,0.1,1.3,0.2,2.5"/>
	<path class="st4" d="M212.4,482.3c0.6-2.9,1.3-5.9,2-8.9"/>
	<path class="st3" d="M243.5,330.7c9.6-4.1,21.8-11.2,31.9-15c29.8-6.4,63.7-2.7,87.6,8.7"/>
	<path class="st3" d="M200.2,352.3c7.5-10.4,16.3-15.5,27.8-20.5"/>
	<path class="st3" d="M181.1,378.7c4.4-7.9,13.1-19.5,19.1-26.3l0,0"/>
	<path class="st3" d="M259.1,346.8c-5.8-11.4-19.3-14.6-31.1-14.9"/>
	<path class="st5" d="M259.1,346.8c0.1,0.8-0.1,3.3,0,4.5c0.1,0.9,0.1,1.5,0.2,2.5c0.1,1.9,0.1,2.9,0,4.1c-0.1,0.8-0.2,2.1-0.3,2.5"
		/>
	<path class="st5" d="M243.5,330.7c0.1,0,1.1,1,1.6,1.5c0.5,0.6,0.3,2.7,0.3,2.7"/>
	<path class="st5" d="M290.7,328.9c0,1,0.1,4.2-0.1,6c-0.1,1.7-0.2,1.8-0.3,2.9c-0.2,3.8,0.2,6.1-0.1,6.1c-0.2,0-0.6-1.6-1-3
		c-0.2-0.9-0.5-2-0.8-3.4c-0.2-1.3-0.3-2.4-0.5-4.7c0-0.4-0.1-0.8-0.1-1"/>
	<path class="st5" d="M306.7,344.6c-0.4,1.2-2.4,4.4-3,6.5c-0.8,3-1.2,4.6-1.3,6.7c-0.1,1.8,0.1,2.7-0.1,5.9c-0.1,1-0.1,1.9-0.2,2.5
		"/>
	<path class="st4" d="M307.2,348.6c-0.8,2.5-1.4,4.6-1.8,6.1c-0.8,2.9-0.9,3.7-0.9,4.2c-0.1,1.6,0,2.4,0,4.9c0,1.5-0.1,2.8-0.1,3.6"
		/>
	<path class="st4" d="M309.3,347.2c-0.3,0.5-1.2,4.4-1.4,5.4c-0.3,1.6,0,2.5,0,4.3c0,0.8,0,0.5-0.4,3.8c-0.2,1.6-0.4,3.7-0.5,6.1
		c-0.1,1.4-0.1,2.5-0.1,3.2"/>
	<path class="st4" d="M310.6,351.9c0.5,2.7,0.4,4.8,0.1,6.3c-0.3,1.8-0.6,2.2-1,4.7c-0.3,2.1-0.2,2.7-0.5,4.6
		c-0.3,1.8-0.7,3.3-1,4.2"/>
	<path class="st4" d="M312.7,351.4c0.1,2,0.2,4.6,0,5.7c-0.1,1-0.2,1.2-0.6,3.4c-0.4,2.4-0.4,2.4-0.6,3.8c-0.5,2.6-0.8,2.9-1.2,5
		c-0.2,1-0.4,2.4-0.5,4.2"/>
	<path class="st4" d="M314.6,353.9c0,1.9-0.2,3.5-0.4,4.6c-0.2,1.1-0.2,1.2-0.8,4c-0.2,1.2-0.5,2.6-0.8,4.2
		c-0.4,2.2-0.4,2.6-0.6,4.2c-0.2,1.2-0.5,2.9-1,5"/>
	<path class="st4" d="M316.9,353.5c-0.3,0.8-1,4.4-1.3,5.8c-0.3,1.5-0.2,1.8-0.5,3.2c-0.5,2.6-0.9,2.5-1.1,4.3
		c-0.3,2,0.1,2.1-0.3,4.3c-0.2,1.2-0.4,1.5-0.6,2.8c-0.3,1.7-0.4,3.1-0.4,4"/>
	<path class="st4" d="M317.8,357.4c0,1.7-0.2,3.1-0.4,4.1c-0.4,2.4-0.9,2.9-1.3,5.2c-0.3,2.1,0,2.1-0.4,4c-0.5,2.4-1,2.2-1.3,4.1
		c-0.2,1.1,0,1.3,0,5.4c0,0.8,0,1.4,0,1.8"/>
	<path class="st4" d="M319.2,356.5c-0.3,1.6-0.6,6.1-1,8.6c-0.4,2.7-0.8,5.2-1.1,8c-0.3,2.6-0.7,6-0.9,10.1"/>
	<path class="st4" d="M320.7,359.7c0,0.4,0,1.1,0,1.9c-0.1,2.7-0.7,4.3-1.1,6.1c-0.6,2.6-0.1,1.9-0.9,7.9c-0.3,2.2-0.5,3.1-0.8,5.5
		c-0.2,1.7-0.3,3.1-0.4,4.1"/>
	<path class="st4" d="M322.3,360.6c-0.3,2.5-0.6,6.9-0.8,8.3c-0.5,2.7-0.9,3.7-1.3,6.4c-0.3,2.2-0.1,2-0.4,3.8
		c-0.4,2.2-0.8,3.3-0.8,5.2c0,1,0.1,1.8,0.3,2.3"/>
	<path class="st4" d="M323.6,364.5c-0.3,3.7-0.8,6.7-1.1,8.7c-0.6,3-1,4.5-1.4,7.4c-0.4,2.8-0.4,5.1-0.4,6.6"/>
	<path class="st4" d="M325.9,366.2c-0.1,3.1-1.9,9.6-2.2,11.3c-0.4,2.5-0.8,3.6-1.1,6c-0.4,2.8-0.5,5.2-0.5,6.8"/>
	<path class="st4" d="M326.2,371.5c-0.3,2.8-0.6,5.2-0.9,7c-0.4,2.6-0.6,4.4-1,6.9c-0.4,2.3-0.8,4.2-1,5.5"/>
	<path class="st4" d="M327.7,371.7c-0.2,1.3-0.9,7-1.2,9.2c-0.7,4.6-1.2,8.7-1.1,8.7c0,0,0.3-2.2,0.4-2.2s-0.1,2-0.6,6.5"/>
	<path class="st4" d="M328.5,378.6c-0.6,2.8-1,5.9-1.4,9.2c-0.3,3-0.5,5.8-0.6,8.4"/>
	<path class="st4" d="M330.7,375.2c-0.3,2.3-0.5,7.1-0.8,9.5c-0.3,2.8-0.5,5.6-0.6,8.3"/>
	<path class="st4" d="M331.4,383.7c0.1,1.9,0.1,3.9,0,6c-0.1,4.5-0.6,8.6-1.1,12.4"/>
	<path class="st4" d="M334.6,387.2c-0.1,1.5-0.3,6.3-0.4,7.8c-0.2,4.3-0.2,4.9-0.4,9.2"/>
	<path class="st4" d="M335.8,393.9c-0.2,2.7-0.4,5.7-0.4,8.8c0,3.3-0.1,3.5,0.1,6.4"/>
	<path class="st4" d="M337.9,393.9c-0.1,2.6,0,9.2,0,11.9c0,2.9,0,5.7,0,8.6"/>
	<path class="st4" d="M332.5,388.7c-0.2,5.1-0.3,10.1-0.5,15.2"/>
	<path class="st4" d="M340.2,403c-0.4,2.3-0.7,5-0.8,8c0,2.3,0.1,4.4,0.3,6.3"/>
	<path class="st4" d="M342.7,405.2c-0.1,2.6-0.9,10.7-1,13.2c0.1,0.9,0.3,1.8,0.4,2.7"/>
	<path class="st4" d="M343.4,422.9c0.3-2.7,0.6-5.4,0.9-8"/>
	<line class="st4" x1="291.9" y1="332.4" x2="294.5" y2="329.1"/>
	<path class="st4" d="M296.8,329.5c-1.7,2-3.5,3.9-5.2,5.9"/>
	<path class="st4" d="M293.1,337c1.8-2.8,3.6-5.6,5.4-8.4"/>
	<path class="st4" d="M291.7,342.1c2.9-4.6,5.9-9.2,8.8-13.8"/>
	<path class="st4" d="M293.1,342.9c3.3-5,6.6-10,9.8-15.1"/>
	<path class="st4" d="M295.6,342.8c3.5-5.6,7.2-11.4,10.7-17"/>
	<path class="st4" d="M296.6,344.4c3.3-5.4,6.6-10.8,9.8-16.2"/>
	<path class="st4" d="M299,343.9c3.1-5.1,6.1-10.1,9.2-15.2"/>
	<path class="st4" d="M301.8,343.4c2.8-5,8.4-14.5,11.2-19.5"/>
	<path class="st4" d="M303.6,344.4c2.8-5.1,5.5-10.3,8.3-15.4"/>
	<path class="st4" d="M305.6,343.7c2.6-4.8,6.5-12,9-16.8"/>
	<path class="st4" d="M309.9,341.1c1.7-3.8,3.5-7.7,5.2-11.5"/>
	<path class="st4" d="M311.9,341.5c1.7-3.8,4.9-11.3,6.6-15.1"/>
	<path class="st4" d="M318.7,330c-1.4,3.9-2.8,7.7-4.2,11.6"/>
	<path class="st4" d="M322.3,325c-1.2,3.4-4.3,12.3-5.4,15.7"/>
	<path class="st4" d="M323.7,328.1c-1.4,3.1-4.2,9.7-5.6,12.9"/>
	<path class="st4" d="M326.5,326.8c-1.6,3.7-4.7,10.9-6.2,14.6"/>
	<path class="st4" d="M329.3,325.4c-1.6,3.7-5.2,12.2-6.8,15.9"/>
	<path class="st4" d="M329,330c-1.5,3.7-3,7.3-4.5,11"/>
	<path class="st4" d="M331.5,327.8c-1.5,3.7-3.9,9.7-5.4,13.4"/>
	<path class="st4" d="M332.1,330.5c-1.3,3.7-2.6,7.4-4,11.1"/>
	<line class="st4" x1="333.9" y1="330.9" x2="329.6" y2="342"/>
	<path class="st4" d="M337,328.2c-1.6,3.9-4.1,10.3-5.7,14.2"/>
	<path class="st4" d="M338.5,330.8c-1.7,3.7-3.3,7.5-5,11.2"/>
	<path class="st4" d="M341.3,329.6c-1.7,3.8-4,8.8-5.8,12.6"/>
	<path class="st4" d="M342.7,331c-1.9,3.7-3.7,7.5-5.6,11.2"/>
	<path class="st4" d="M345.5,330c-1.9,3.7-4.6,9-6.5,12.8"/>
	<path class="st4" d="M346.7,331.8c-1.9,3.5-3.7,7-5.6,10.5"/>
	<path class="st4" d="M349.1,332c-1.8,3.1-4.4,7.5-6.2,10.6"/>
	<path class="st4" d="M349.3,334.6c-1.9,3.4-2.8,5.1-4.7,8.4"/>
	<path class="st4" d="M350.9,335.4c-1.7,3.1-2.5,4.5-4.2,7.7"/>
	<path class="st4" d="M352.3,336.2c-1.6,2.5-2.3,3.5-3.9,6"/>
	<path class="st4" d="M353.7,336.7c-1.4,2.6-2.2,4.2-3.6,6.8"/>
	<path class="st4" d="M355.3,337.5c-1.4,2.5-1.9,3.4-3.3,5.9"/>
	<path class="st4" d="M357,337.2c-1.1,2.1-2.3,4.2-3.4,6.3"/>
	<path class="st4" d="M357.4,339.7c-1.1,1.8-1.1,1.8-2.2,3.7"/>
	<line class="st4" x1="360.5" y1="338.9" x2="357.2" y2="344"/>
	<path class="st4" d="M363.4,339c-0.5,0.6-2.1,1.9-2.6,2.6c-0.7,0.9-1.4,1.8-2,2.7"/>
	<line class="st4" x1="363.6" y1="341" x2="360.5" y2="344.7"/>
	<path class="st4" d="M365.5,340.8c-1,1.4-2,2.8-3.1,4.2"/>
	<path class="st4" d="M366.7,341.5c-0.6,1.2-1.2,2.4-1.8,3.6"/>
	<path class="st4" d="M368.3,341.7c-0.7,1.1-1.4,2.1-2.2,3.2"/>
	<path class="st4" d="M369.9,342.4c-0.9,1-1.7,2-2.6,2.9"/>
	<path class="st4" d="M371.6,342.9c-0.9,0.9-1.9,1.8-2.8,2.7"/>
	<path class="st4" d="M374.1,343.3c-1.1,0.8-2.2,1.6-3.3,2.4"/>
	<path class="st4" d="M375.3,343.9c-0.9,0.8-1.8,1.6-2.7,2.4"/>
	<path class="st4" d="M377.1,344.8c-1,0.6-2,1.3-3.1,1.9"/>
	<path class="st4" d="M378.8,345.7c-0.9,0.5-1.8,1-2.7,1.5"/>
	<path class="st4" d="M288.4,344c-0.9-2-1.8-4.9-2.2-8.5c-0.3-2.8-0.1-5.3,0.2-7.1"/>
	<path class="st4" d="M284.8,326.8c0,1.8,0,4.8,0.1,6.8c0.1,3.6,0.4,7,0.9,10.1"/>
	<path class="st4" d="M283.3,327.7c-0.3,1.7-0.4,3.2-0.5,4.5c-0.1,1-0.2,3.6,0.2,6.9c0.2,1.7,0.4,3.2,0.7,4.4"/>
	<path class="st4" d="M281,325.8c0.2,3.7,0.7,8.6,0.9,12.3c0.1,1.6,0.2,3.3,0.3,4.9"/>
	<path class="st4" d="M279.7,326.8c-0.1,2,0,4.2,0.1,6.5c0.2,3.2,0.5,6.1,0.9,8.8"/>
	<path class="st4" d="M278.2,326.3c-0.1,2.2-0.1,4.1-0.1,5.5c0,1.9,0,3.2,0.2,4.9c0.1,1.7,0.3,3.1,0.5,4.1"/>
	<path class="st4" d="M276.3,324.7c0.1,0.8,0.2,3.2,0.3,4.7c0.2,3,0.1,4.2,0.3,6.7c0.1,1.1,0.2,2.8,0.4,4.8"/>
	<path class="st4" d="M274.4,325.4c0,1.1,0.1,2.6,0.2,4.3c0.1,2.1,0.2,3.3,0.3,4.9c0.1,1.2,0.4,2.9,0.8,4.9"/>
	<path class="st4" d="M272.2,324.1c0.2,1.6,0.3,4.6,0.5,6.3c0.3,2.5,0.6,5,0.9,7.4"/>
	<path class="st4" d="M270.3,324.8c0.1,1.7,0.2,3,0.3,3.9c0.2,1.9,0.4,2.8,0.8,5.4c0.2,1.4,0.3,2.6,0.4,3.3"/>
	<path class="st4" d="M268.7,324.5c-0.2,2.4-0.1,4.2,0.1,5.5c0.1,1,0.3,1.8,0.8,4.9c0.1,1,0.3,1.8,0.3,2.3"/>
	<path class="st4" d="M266.9,324.8c0,1.8,0.1,3.7,0.3,5.7c0.2,1.9,0.5,3.8,0.8,5.4"/>
	<path class="st4" d="M265.2,325.8c0.3,1.2,0.5,2.2,0.6,2.9c0.4,2.1,0.6,3.8,0.8,5.1c0.1,0.9,0.2,1.7,0.3,2.2"/>
	<path class="st4" d="M263.3,325c0.3,2,0.6,3.6,0.8,4.7c0.2,1.3,0.5,2.6,0.8,4.6c0.1,0.7,0.1,1.2,0.2,1.6"/>
	<path class="st4" d="M262,326.1c0.3,1.9,0.6,4,1,6c0.3,1.3,0.6,2.7,0.9,3.9"/>
	<path class="st4" d="M260,325.7c0.2,1.5,0.5,3.2,0.9,4.9c0.4,2,1,3.8,1.5,5.4"/>
	<path class="st4" d="M258.3,326.2c0.1,1.3,0.3,2.4,0.5,3.2c0.3,1.2,0.5,1.8,0.9,3.3c0.3,1.3,0.5,2.3,0.7,3.1"/>
	<path class="st4" d="M256,327.4c0.3,1.2,0.5,2.2,0.8,2.9c0.5,1.6,1,2.4,1.5,4.3c0.2,0.7,0.3,1.3,0.4,1.6"/>
	<path class="st4" d="M254.7,328.1c0.3,1.2,0.6,2.4,0.9,3.7c0.4,1.4,0.8,2.8,1.2,4.1"/>
	<path class="st4" d="M252.9,329.3c0.2,0.9,0.5,1.8,0.9,2.8c0.4,1.3,0.9,2.4,1.4,3.5"/>
	<path class="st4" d="M251.5,329.6c0.2,0.7,0.4,1.5,0.6,2.3c0.4,1.3,0.9,2.5,1.4,3.6"/>
	<path class="st4" d="M250.5,330.9c0.1,0.7,0.3,1.5,0.7,2.4c0.3,0.8,0.7,1.5,1,2"/>
	<path class="st4" d="M248.6,330.3c0.2,0.8,0.4,1.8,0.9,2.9c0.3,0.8,0.7,1.5,1,2.1"/>
	<path class="st4" d="M247.5,331.5c0.3,0.6,0.6,1.3,0.9,2c0.3,0.7,0.6,1.4,0.9,2"/>
	<path class="st4" d="M246.2,331.9c0.5,0.9,0.9,1.8,1.4,2.7"/>
	<path class="st4" d="M257.9,349.2c0.1,1,0.3,2.3,0.3,3.8c0,0.6,0,1.4,0,2.4c-0.1,1.1-0.2,2.5-0.6,4.3"/>
	<path class="st4" d="M256.2,347.6c-0.1,1.7,0.3,5.4,0.2,6.6c-0.1,2.3-0.1,4.3-0.1,5.5c0,0.4,0,0.8,0,1"/>
	<path class="st4" d="M254.8,350.8c0,1.9-0.1,3.9-0.3,6c-0.1,1.6-0.3,3.1-0.4,4.5"/>
	<path class="st4" d="M253,348.6c0,1.6,0,6.4-0.2,8.3s-0.5,3.8-0.8,5.4"/>
	<path class="st4" d="M251.1,353.8c-0.2,2-0.4,4.1-0.7,6.3c-0.2,1.3-0.4,2.6-0.6,3.9"/>
	<path class="st4" d="M250.5,351c-0.6,2-2.1,6.9-2.3,9.8c-0.1,1.4-0.1,2.7,0,3.8"/>
	<path class="st4" d="M247.3,354.8c-0.1,2.3-0.2,4.7-0.3,7.1c-0.1,1.2-0.2,2.5-0.3,3.7"/>
	<path class="st4" d="M246.2,353.5c-0.1,2.3-0.9,6.9-0.9,8.1c0,0.9-0.1,1.9-0.2,3.2c-0.1,1.2-0.2,2.2-0.3,2.9"/>
	<path class="st4" d="M243.3,357.1c-0.1,2-0.1,4-0.3,6c-0.1,1.8-0.2,3.7-0.3,5.4"/>
	<path class="st4" d="M241.7,355.5c0.1,1.8,0,6.6-0.3,8.9c-0.2,1.8-0.5,3.5-0.9,4.9"/>
	<path class="st4" d="M239.8,358.6c0.4,2.4,0.3,4.2,0.1,5.5s-0.5,2-0.9,3.9c-0.3,1.7-0.5,3.2-0.5,4.2"/>
	<path class="st4" d="M237.8,355.5c0.2,3.1,0.2,8.8,0,10.3s-0.4,3.1-0.5,3.6c-0.2,1.2-0.4,2.3-0.6,3.1"/>
	<path class="st4" d="M236.6,359.9c0.2,3.1-0.1,5.4-0.4,7c-0.1,0.7-0.4,2-0.8,4.1c-0.2,1.2-0.3,2.2-0.4,2.8"/>
	<path class="st4" d="M235,358c0.4,2.7-0.1,7.7-0.5,9c-0.6,1.8-1.4,3-1.6,5.3c-0.1,1.3,0,2.4,0.2,3.1"/>
	<path class="st4" d="M231.6,376.1c-0.1-0.8-0.1-2.1,0-3.7c0.1-1.5,0.3-2.5,0.5-3.5c0.3-1.5,0.6-3.6,0.9-6.3"/>
	<path class="st4" d="M231.5,360.8c-0.6,2-1.1,7.5-1.3,8.7c-0.2,1.4-0.2,2.6-0.3,5.1c0,1.1-0.1,2.1-0.1,2.7"/>
	<path class="st4" d="M228.1,378.3c-0.3-2.2-0.2-4,0-5.3c0.2-1.5,0.5-2.9,0.9-4.3c0.2-1,0.4-1.7,0.6-2.3"/>
	<path class="st4" d="M227.2,367.8c-0.3,1.2-0.7,4.9-0.9,6.6c-0.2,2.1-0.2,3.9-0.1,5.4"/>
	<path class="st4" d="M225.1,372.5c0,1.3,0,2.3-0.1,3c-0.1,1.2-0.3,2-0.4,3.7c0,0.6-0.1,1.1-0.1,1.4"/>
	<path class="st4" d="M223.1,373.5c0,1.1,0.3,3.6,0.2,5c-0.1,1.3-0.3,2.5-0.5,3.6"/>
	<path class="st4" d="M221.9,375.9c0.2,1.3,0.1,2.3,0,3.1c-0.1,0.7-0.2,1.3-0.3,2.4c-0.1,0.6-0.1,1.2-0.1,1.5"/>
	<path class="st4" d="M220.6,376.6c-0.2,0.9-0.4,3.3-0.5,4.6c-0.1,0.9,0,1.7,0,2.4"/>
	<path class="st4" d="M218.8,379.4c0,0.8,0,1.7,0,2.6s-0.1,1.8-0.2,2.6"/>
	<path class="st4" d="M217.4,380.1c-0.2,0.9-0.3,3.2-0.4,4.2c-0.1,0.8-0.2,1.7-0.3,2.5"/>
	<path class="st4" d="M215.8,383c-0.1,0.8-0.2,1.5-0.3,2.3c-0.1,0.9-0.2,1.7-0.3,2.6"/>
	<path class="st4" d="M213.7,385.7c-0.2,0.9-0.4,1.8-0.5,2.9c0,0.5-0.1,0.9-0.1,1.4"/>
	<path class="st5" d="M267.4,385.5c-0.6-0.5-7.8,4.6-12.9,12.9c-3.4,5.5-4.6,10.3-5.8,15.3c-3.4,14-2.4,25.8-2,25.8
		c0.3,0,0.6-7.9,3.1-21.2c0.8-4.4,1.4-7,2.8-10.2c1.2-2.8,2.4-4.6,6.6-10.6C266.8,386.7,267.6,385.7,267.4,385.5z"/>
	<path class="st5" d="M351.4,364.4c0.1-0.2,2.2,0.4,5.9,1.6c2.1,0.7,4.2,1.4,5.6,1.9c6.5,2.5,13,5,19.1,10.4
		c1.5,1.4,7.3,6.8,10.9,15.8c3.3,8.3,2.7,16.2,2.8,17c0.4,2.9-1.4-5.7-4.6-13.2c-4.4-10.2-4.1-11.8-7.7-15.6c-2-2-5.9-4.7-13.4-9
		C360.3,368.2,351.2,364.8,351.4,364.4z"/>
	<path class="st4" d="M179.4,405.2c-1.2,1-2.5,2-3.7,3.1"/>
	<path class="st4" d="M181.4,407.3c-0.8,0.3-1.9,0.9-2.9,1.8c-1.9,1.6-2.8,3.4-3.3,4.5"/>
	<path class="st4" d="M175.2,419.2c0.3-0.8,0.9-2,1.8-3.1c1-1.3,2-2.2,2.8-2.8"/>
	<path class="st4" d="M174.5,428.8c0.2-1.2,1.9-6.6,2.9-8.3c2.3-4.2,6.3-5.8,7.6-6.3"/>
	<path class="st4" d="M177.5,430.2c0.6-1.4,1.5-3.4,2.9-5.6c0-0.1,0.4-0.6,0.8-1.3c1-1.5,2.7-3.8,5.5-6.8"/>
	<path class="st4" d="M178.3,435.5c0.6-1.8,1.4-3.8,2.6-6c2.8-4.9,6.4-7.9,8.9-9.7"/>
	<path class="st4" d="M179.2,445.1c1-3.3,3.3-9.5,4.4-11c1.5-2.2,3-3.8,5.4-6.2c1.5-1.5,2.9-2.8,3.8-3.6"/>
	<path class="st4" d="M186,452.5c0.3-3.2,1.4-6.2,2.3-7.5c1.6-2.2,1.1-4.1,4.6-7.2c1.9-1.7,5.4-2,6.3-3.1"/>
	<path class="st4" d="M183,447.3c0.2-1.6,0.8-4,2.3-6.4c1.4-2.4,1.4-4.9,4.5-8c1.3-1.3,3.1-3,7-4.5"/>
	<path class="st4" d="M190.3,456.6c0.6-2.2,1.6-5,3.2-8c2.4-4.4,5.3-7.5,7.5-9.5"/>
	<path class="st4" d="M192.8,471.1c-0.1-5.3,2.1-12.1,3.3-14.3c0.6-1.1,1.2-1.8,4.6-6.1c2.1-2.6,3.8-4.8,5.3-6.6"/>
	<path class="st4" d="M199.7,479c0-2.7,0.1-10.8,1.6-14.9c0.7-1.8,1.9-5.2,4.9-8.7c1.5-1.8,3.1-3.1,4.2-3.9"/>
	<path class="st4" d="M204.7,480c0.3-3.4,1-7.7,2.7-12.6c1.9-5.4,4.3-9.6,6.3-12.6"/>
	<path class="st4" d="M218,486.4c1.9-4.8,5.3-13.8,6.4-20.5c0.5-3,0.8-5.8,1-8.5"/>
	<path class="st4" d="M229.7,476.2c0.8-3.2,2-10.3,2.7-13.7"/>
	<path class="st4" d="M233,489.5c0.9-4,1.8-8,2.7-12c1.2-5.5,2.3-10.9,3.4-16.3"/>
	<path class="st4" d="M238.4,494.6c1.3-3.3,2.4-9.4,3.5-13.2c1.9-6.8,1.4-2.8,2.1-8.5"/>
	<path class="st4" d="M250.9,463.5c-1.1,6.6-2.6,13.5-4.4,20.7c-0.9,3.3-1.8,6.5-2.7,9.7"/>
	<path class="st4" d="M258,466.5c-0.4,5-0.8,7.5-2.3,13.8c-1.3,5.9-4.2,13.5-5.9,18"/>
	<path class="st4" d="M266.5,464.7c-1.1,5.7-2.2,11.4-3.4,17.1c-1.1,5.1-2.1,10.2-3.2,15.3"/>
	<path class="st4" d="M272.7,471.7c-0.5,4.1-0.1,0.6-0.7,4.9c-1.1,7.5-4.1,19-5.4,26.2"/>
	<path class="st4" d="M280.5,465.9c-0.1,5.5-0.3,11.4-1,17.8c-0.7,6.7-1.7,12.9-2.9,18.5"/>
	<path class="st4" d="M289.7,472.9c0.4,5.2,0.1,5.4-0.5,12.2c-0.6,6.7-3.4,15.3-4.7,20.3"/>
	<path class="st4" d="M298.3,467.1c-0.4,4.6-0.9,9.3-1.5,14.1c-1,7.6-2.1,14.8-3.4,21.7"/>
	<path class="st4" d="M306.4,472.4c0.1,3.5,0,2.6-0.2,6.5c-0.6,9.4-3.5,20.9-5.5,27.5"/>
	<path class="st4" d="M312.8,467.4c0.7,4.4,1.2,9.6,1.2,15.4c-0.1,7.7-1.1,14.4-2.4,19.7"/>
	<path class="st4" d="M321.1,473.4c0.7,3.7,0.1,0.1,0.3,4.7c0.4,9.4-0.9,17.4-2.4,23.4"/>
	<path class="st4" d="M327.4,463.7c0.8,4.3,1.4,9.3,1.5,14.9c0.1,9.4-2.3,20.7-3.8,26.6"/>
	<path class="st4" d="M338.9,467.8c1.5,3.7,1,3.3,1.6,9.5c1,8.9-0.4,16.3-1.7,21"/>
	<path class="st4" d="M345.3,460.2c1.3,5.5,2.5,11.8,3.2,18.8c0.7,6.4,0.2,17.7,0.1,22.9"/>
	<path class="st4" d="M356,464.7c0.8,4.1,0.1,2.1,1.2,7.1c1.9,8.9,1.9,16.7,1.4,22.4"/>
	<path class="st4" d="M361.6,454.4c1.8,3.6,3.7,8.2,4.9,13.9c2,9.2,0,23-0.8,28.2"/>
	<path class="st4" d="M371.6,453.9c2.1,3.5,3.4,6.3,4.9,13.4c1.9,8.5,1.1,15.7,0.3,20"/>
	<path class="st4" d="M374.8,449c2.3,3.9,5,9.5,7,16.5c2,7.4,2.4,13.9,2.4,18.7"/>
	<path class="st4" d="M386.2,460.8c1.9,7.1,5.4,20.3,4.1,26"/>
	<path class="st4" d="M387.4,443c1.1,3.6,2.2,7.4,3.2,11.4c2.1,8.2,3.6,16.1,4.8,23.4"/>
	<path class="st4" d="M395.4,446.6c1.5,3.6,1.5,6.2,2.4,13.6c0.2,1.9,1.4,13.6,2,17.3"/>
	<path class="st4" d="M395.5,438.1c2.8,2.8,4.2,5.4,4.9,7.3c0.2,0.6,0.7,2,1.9,9.2c0.4,2.3,0.7,4.2,0.8,5.6"/>
	<path class="st4" d="M401.8,436.1c1.1,1.4,2.4,3.3,3.4,5.8c1.6,3.8,1.9,7.2,1.9,9.3"/>
	<path class="st4" d="M405,433.2c0.9,1.2,2.2,3.1,3.1,5.8c0.6,2,0.8,3.8,0.8,5.1"/>
	<path class="st4" d="M411.5,427.1c0.4,0.2,1.5,0.6,2.2,1.7c1.2,1.7,0.8,3.6,0.7,3.9"/>
	<path class="st4" d="M413.9,424.5c0.7,0.9,1.4,1.8,2,2.7"/>
	<path class="st4" d="M203.2,469.5c-2.5,0.9-5.1,1.8-7.6,2.7"/>
	<path class="st4" d="M190.4,467.5c2.8-1.1,5.5-2.2,8.3-3.3"/>
	<path class="st4" d="M191,461.2c3.4-1.4,6.8-2.8,10.2-4.2"/>
	<path class="st4" d="M187.6,453.9c3.8-1.4,7.7-2.8,11.5-4.2"/>
	<path class="st4" d="M182.9,444.4c2-0.5,4.1-1,6.1-1.5"/>
	<path class="st4" d="M184.4,436.9c2.5-1,5-1.9,7.5-2.9"/>
	<line class="st4" x1="177.6" y1="432.5" x2="182.5" y2="430.8"/>
	<path class="st4" d="M184.9,426.9c3.6-1,7.1-1.9,10.7-2.9"/>
	<path class="st4" d="M181.3,418.9c2.8-0.6,5.5-1.2,8.3-1.9"/>
	<path class="st4" d="M175.4,414.8c2.1-0.3,4.2-0.7,6.3-1"/>
	<path class="st4" d="M179.2,410.5c1.5-0.3,3-0.7,4.5-1"/>
	<path class="st4" d="M280.6,499.3c3.9-1.7,7.8-5.1,11.7-6.8"/>
	<path class="st4" d="M298.8,497.1c2.9-2,6.6-3.6,9.5-5.6"/>
	<path class="st4" d="M305.4,501.3c6.6-4.1,15.3-10.4,21.9-14.5"/>
	<path class="st4" d="M327.5,497.4c5-4,13.7-7.9,18.8-11.9"/>
	<path class="st4" d="M353.7,478.3c5.8-4.4,11.7-8.7,17.5-13.1"/>
	<path class="st4" d="M352.9,491.3c4.3-3.2,14.5-10.7,18.8-13.8"/>
	<path class="st4" d="M373.4,472.1c3.2-2.8,10.2-7.2,13.4-10"/>
	<path class="st4" d="M382.3,458.9c4.2-3,8.4-6,12.6-9"/>
	<path class="st4" d="M373.1,485.5c4.7-3.5,9.4-7,14.1-10.6"/>
	<line class="st4" x1="395.6" y1="465.6" x2="406" y2="455.5"/>
	<path class="st4" d="M391.7,446.4c3.2-2.6,6.4-5.1,9.5-7.7"/>
	<path class="st4" d="M399.4,450.6c2.8-2.7,5.6-5.3,8.3-8"/>
	<path class="st4" d="M409.1,435.8c1.3-1.6,2.6-3.2,3.9-4.8"/>
	<path class="st4" d="M266.7,365.9c-0.2,5.8,1.3,5.8,4.3,7.9"/>
	<path class="st4" d="M261.1,366.9c0.5,3.5,0.9,8.9,5.6,11.7"/>
	<path class="st4" d="M249.8,372.8c0.7,3.8,0,7,6.4,10.7"/>
	<path class="st4" d="M238.1,378.9c0.9,5.6,2.4,10.9,9.2,14"/>
	<path class="st4" d="M228.1,388.9c1.7,4.2,0.6,7.4,11.2,12.8"/>
	<path class="st4" d="M329.7,351.4c0.5,2.8-0.4,4.6-2,5.9"/>
	<path class="st4" d="M338.9,359.3c0,6.4-1,6.1-3.6,8.2"/>
	<path class="st4" d="M342.5,365.7c-0.9,6.1-2.3,6.8-5.4,8.9"/>
	<path class="st4" d="M353,369.8c-2.1,9.2-3.9,10.2-7.4,12.5"/>
	<path class="st4" d="M362.4,375.9c-1.3,12.8-2.3,11.1-10,18.4"/>
	<path class="st4" d="M371.4,385.8c-4.1,13.5-4.7,12.5-11.2,17.9"/>
	<path class="st4" d="M382.3,398.4c-4.6,10.7-7.5,10.8-15.1,14.8"/>
	<path class="st4" d="M245,339.9c-2,2-2,3.6-2,5.6"/>
	<path class="st4" d="M233.2,339.9c-3.4,3-2.6,7.3-2.6,10.5"/>
	<path class="st4" d="M221.2,342.9c-3.8,6.3-2.5,11-2.4,15.4"/>
	<path class="st4" d="M209,352.4c-5.2,6.5-2.8,12.4-2.3,17.1"/>
	<path class="st4" d="M279.2,381c2.4,1,4,0.9,7.9-1"/>
	<path class="st4" d="M275.9,394.5c5.1,0.8,11.3,0.8,16.6-3.6"/>
	<path class="st4" d="M274.9,407.8c5.7,1.4,11.8,2.1,22-3.1"/>
	<path class="st4" d="M276.6,421.3c7,1.6,13,1.6,19.4-3.6"/>
	<path class="st4" d="M349.1,350.1c0.9,2.3,0.1,2.4-0.5,3.8"/>
	<path class="st4" d="M362.4,352.1c1.6,5.1,0.5,4.3-1.3,7.4"/>
	<path class="st4" d="M373.9,356.5c0.2,3.3,0.9,5.1-2.3,8.9"/>
	<path class="st4" d="M385.9,358.8c0.2,3.6,1.6,7.1-1.5,10.7"/>
	<path class="st3" d="M360.4,347c8.9-0.3,18.2,1.8,27.2,4.8c0-5-6-6-9-8c-9-4-17.3-4.1-25.3-9.1c-2-1-2.4-3.6-13.8-6.3
		c-13.6-3.3-11-5.7-26.5-4.5c-5,0.4-18.4,5.9-23.4,4.9c-10-4-21-7-31-3c-5,1-10,4-15,4.9"/>
	<path class="st3" d="M209.3,394.5c-0.2-1.5,1.8-5.6,2.8-7.8c0.7-1.6,0.7-1.1,2.3-2.7c0.1-0.1,0.2-1.7,4.3-6.9
		c5.6-7,5.6-6.4,6.7-7.7c3.9-4.8,1.1-6.1,3.4-8.5c2.3-2.4,6.5-6.3,11-8c2.3-0.9,3.6-0.9,6.4-2.1c8.9-3.5,11.9-3.1,12.9-4"/>
	<path class="st3" d="M209.3,394.5c3.3-2.7,5.3-5.7,8.3-7.7c13-8,24-18,38-24c9-3,18-5,28-4c3,1,8,1,9,7c1,8,3.1,8.6,9.1,13.6
		c1,1,12.2,10,13.4,10.8c12.4,7.8,2.2,0.7,13,10.3c6.5,5.7,12.4,21.3,15.4,25.3l2-1c2-14-5-27-11-40c-1-2,0-3-1-5c-3-6-6-12-9-18
		c-4-8-11-11-17-16c-1-1,0-3,1-3c17-1,35,1,51.8,4.2"/>
	<path class="st3" d="M422.1,407.5c4.1,11.4-2,20.2-6.2,30.4c-4.5,10.8-7.2,22.2-11.4,33.1c-2,5.2-8,10.4-11.7,14.7"/>
	<path class="st3" d="M196.9,477.2c-3.4-4.4-6.4-9-9.2-13.7"/>
	<path class="st3" d="M179.9,446.6c-2.1-4.3-5.7-16.1-6.4-20.8"/>
	<path class="st4" d="M157.9,404.4c1.2-0.3,3.4-0.6,5.9,0.2c2.7,0.8,4.4,2.4,5.4,3.4c1.7,1.8,2.7,3.6,3.2,4.9"/>
	<path class="st4" d="M157.8,402.7c1-0.1,2.7-0.3,4.4-0.1c1.1,0.1,2.8,0.3,4.7,1.1c2.3,1,3.8,2.6,4.7,3.7"/>
	<path class="st4" d="M157.2,400.8c0.9,0,2.5,0,4,0.2s3.4,0.4,5.4,1.1c1.4,0.5,3.5,1.4,5.7,3.4"/>
	<path class="st4" d="M156.2,399c1.4-0.1,3.9,0,6.2,0.2c1.3,0.2,2.6,0.3,4.1,0.8c1.4,0.4,3.5,1.2,5.8,3"/>
	<path class="st4" d="M155.1,397.3c2.1-0.2,5.9-0.5,9.1,0.4c1.1,0.3,2,0.6,2.9,1"/>
	<path class="st4" d="M155.4,395.5c2.2-0.4,5.7-0.5,9,0.6c0.6,0.2,1.2,0.5,1.8,0.7"/>
	<path class="st4" d="M156,394c1.4-0.2,4.2-0.4,6.5,0.1c1,0.2,1.9,0.5,2.6,0.9"/>
	<path class="st4" d="M156.2,392.8c0.8-0.1,2.8-0.5,3.9-0.4c1.6,0.1,3,0.5,4.1,0.9"/>
	<path class="st4" d="M154.3,389.6c1-0.3,3.2-0.7,4.8-0.7c0.8,0,1.6,0.2,2.2,0.3"/>
	<path class="st4" d="M156,387.6c0.4-0.1,1.5-0.2,2-0.2c0.6,0,1.1,0,1.5,0.1"/>
	<line class="st4" x1="156.7" y1="386" x2="158.2" y2="386"/>
	<path class="st4" d="M160.1,423.6c2.4-0.3,5.1,0,6,0.4c2.7,1,4.4,3,5.4,4.2c0.5,0.6,0.9,1.1,1.1,1.5"/>
	<path class="st4" d="M160.5,422c1.1-0.1,4.2-0.2,6.2,0.6c3.2,1.2,4.9,3.4,5.7,4.4"/>
	<path class="st4" d="M161.2,419.8c1.4,0,4.8,0.1,7.6,1.7c1.6,0.9,2.8,2,3.5,2.9"/>
	<path class="st4" d="M161.3,418c1.7,0.4,4.5,0.4,6.5,1.1c1.6,0.6,3,1.2,4.3,1.8"/>
	<path class="st4" d="M161.1,416.2c0.9-0.1,4,0,5.6,0.3c2.9,0.7,4,1.9,4.7,2.7"/>
	<path class="st4" d="M160.7,413.9c1.1,0,3.6,0.1,5.2,0.6c2.1,0.5,3.7,1.3,4.8,2"/>
	<path class="st4" d="M160.4,411.8c1.1,0,3.2,0.1,4.9,0.5c1.8,0.4,3.2,1.1,4.3,1.6"/>
	<path class="st4" d="M159.7,409.8c1,0,3.1-0.3,4.6,0.1c1.2,0.3,2.3,0.7,3.1,1"/>
	<path class="st4" d="M158.8,407.4c1.4,0.2,3.7,0.5,5.2,0.7"/>
	<path class="st4" d="M166.8,440.8c1.1-0.2,3.2-0.7,5-0.6c2.1,0.2,3.7,0.7,4.8,1.2"/>
	<path class="st4" d="M166.4,438.9c1.1-0.1,2.8-0.6,4.2-0.4c2,0.2,3.8,0.6,5.2,1"/>
	<path class="st4" d="M165.9,436.8c1-0.1,2.8-0.4,4-0.3c2.3,0.3,4.2,0.9,5.5,1.4"/>
	<path class="st4" d="M165.3,434.9c1.1-0.1,2.9-0.3,4.4-0.1c1.9,0.2,3.5,0.8,4.6,1.2"/>
	<path class="st4" d="M164.7,432.9c1,0,2.6,0,3.9,0.1c1.4,0.1,2.7,0.4,3.8,0.7"/>
	<path class="st4" d="M164.2,431.2c0.5-0.1,1.4-0.4,2-0.4c1.7,0,3.1,0.4,4,0.7"/>
	<path class="st4" d="M163.7,429.6c0.6-0.1,1.7-0.2,2.4-0.2c1,0.1,1.9,0.2,2.6,0.4"/>
	<path class="st4" d="M163.2,428.4c0.4-0.1,1.4-0.4,2.1-0.3c0.8,0,1.4,0.2,1.9,0.3"/>
	<path class="st4" d="M161.9,427c0.7,0,1.8,0,2.5,0"/>
	<path class="st4" d="M178.7,465.2c0.7,0.1,3,0.2,4.6-0.5c2.6-1,3.7-3.2,3.9-3.7"/>
	<path class="st4" d="M177.8,463.3c0.7,0.1,3.4,0.4,5.3-0.5c2.3-1.1,3.3-3.1,3.6-3.7"/>
	<path class="st4" d="M177.4,461.9c0.8-0.1,3.2-0.3,4.5-0.9c2.3-1,3.6-2.7,4.3-3.5"/>
	<path class="st4" d="M176.9,460.4c1.4-0.2,4-0.6,6.2-1.9c1.1-0.6,1.9-1.3,2.6-1.9"/>
	<path class="st4" d="M176.6,458.7c1.4-0.5,3.5-1.4,5-1.9c1.2-0.4,2.4-0.9,3.5-1.3"/>
	<path class="st4" d="M176.4,456.9c1-0.6,3.4-1.6,4.9-2.1c1-0.3,2-0.5,2.8-0.6"/>
	<path class="st4" d="M175.5,455.2c0.8-0.5,2.3-1.5,3.7-1.9c1.5-0.5,2.8-0.6,3.8-0.7"/>
	<path class="st4" d="M174.4,453.7c0.9-0.4,2.3-1.5,3.5-1.8c1.5-0.4,2.9-0.6,4.1-0.7"/>
	<path class="st4" d="M173.4,451.5c0.6-0.4,2.4-1.2,3.9-1.1c0.4,0,0.7,0.1,1,0.2"/>
	<line class="st4" x1="180.6" y1="449.9" x2="181.3" y2="449.9"/>
	<path class="st4" d="M173.6,443.2c3,1.3,5.1,3,6.6,5.6"/>
	<path class="st4" d="M186.4,483.3c0.5,0.2,1.9,0.7,3,0.8c0.7,0,2,0.1,3.2-0.6c1.2-0.8,1.6-2.1,2-3.2c0.6-2,0.4-3.9,0.1-5"/>
	<path class="st4" d="M186.4,481.7c0.6,0.1,1.7,0.5,2.7,0.3c0.4-0.1,2-0.4,3.1-1.4c1.5-1.4,2-3.9,1.3-6.3"/>
	<path class="st4" d="M186.5,479.8c0.7-0.3,2-0.7,3-1.4c2.4-1.8,3.2-4.4,3.4-5.4"/>
	<path class="st4" d="M186.1,477.7c0.7-0.3,2.3-0.8,3.3-1.7c1.7-1.6,2.3-3.4,2.6-4.3"/>
	<path class="st4" d="M185.7,475.5c0.9-0.6,2.5-1.4,3.5-2.4c0.7-0.7,1.3-1.3,1.8-1.9"/>
	<path class="st4" d="M185.4,472.9c0.7-0.4,2.1-1.1,2.9-1.8c0.7-0.6,1.4-1.2,1.8-1.7"/>
	<path class="st4" d="M185,470.8c0.6-0.2,2.1-1.1,2.9-2.1c0.4-0.5,0.7-1.1,0.9-1.5"/>
	<path class="st4" d="M184.1,468.4c0.5-0.2,2.2-0.5,3-1.4c0.5-0.5,0.8-1,1-1.4"/>
	<path class="st4" d="M177.9,337.7c2.2,0.9,5.3,2.3,7.8,3.9c5.6,3.6,9.5,7.8,12.1,11.1"/>
	<path class="st4" d="M177.9,339.1c2.4,1.3,4.9,2.9,7.6,4.9c4.7,3.5,8.3,7.1,11,10.3"/>
	<path class="st4" d="M176.1,340.5c2.3,1,5.5,2.7,8.2,4.6c5.2,3.7,8.6,7.9,10.7,11.1"/>
	<path class="st4" d="M174.8,341.6c2.4,1.6,5.7,3.8,8.4,6.2c4.2,3.8,7.4,7.5,9.8,10.8"/>
	<path class="st4" d="M173.7,342.5c-0.2-0.2,4.6,3.2,7,5.3c3.5,3.2,5.8,6.5,7.3,9.1"/>
	<path class="st4" d="M172,344.7c2,1.1,5.1,2.6,7.5,4.7c3.9,3.4,6.5,6.9,8.2,9.6"/>
	<path class="st4" d="M170.8,347c2.1,1,5.6,2.8,8.1,4.8c4.1,3.3,6.8,7,8.3,9.6"/>
	<path class="st4" d="M169.1,348.3c2.4,1.2,6,3.3,9,5.8c3.9,3.2,6.6,6.5,8.4,9.1"/>
	<path class="st4" d="M167.4,349.8c2.4,1.3,5.5,3,8.2,5.2c4.4,3.5,7.6,7.3,9.8,10.3"/>
	<path class="st4" d="M167.2,351.7c2.4,1.2,6.1,3.3,9.2,6.1c3.8,3.4,6.2,6.9,7.7,9.4"/>
	<path class="st4" d="M167.8,355.1c2.3,1.5,6.2,3.6,9,6.4c2.6,2.6,4.6,5.2,6,7.4"/>
	<path class="st4" d="M180.6,369c-1.2-1.6-2.4-3.2-3.6-4.9"/>
	<path class="st4" d="M167.7,360c1.2,0.7,3.8,2,5.4,3.9c2,2.5,2.9,5.1,3.2,6.6"/>
	<path class="st4" d="M166.8,362c1.1,0.5,3.7,1.7,5.2,3.3c1.4,1.4,2.2,2.8,2.7,3.8"/>
	<path class="st4" d="M166,363.5c2.2,1.7,5,3.9,7.1,5.6"/>
	<path class="st4" d="M165.5,366.3c2.1,1.2,5.2,3.1,7.3,4.3"/>
	<path class="st4" d="M165.6,368.6c2.7,1.2,6,2.6,8.7,3.8"/>
	<path class="st4" d="M176.7,399.1c1.8-1.2,4.6-3.3,6.3-4.5"/>
	<path class="st4" d="M176.6,397.1c2-1.3,5.3-3.5,7.3-4.7"/>
	<path class="st4" d="M177.9,394.3c1.6-0.9,5-2.7,6.5-3.6"/>
	<path class="st4" d="M179.1,392.2c1.4-0.9,3.7-2.3,5.1-3.2"/>
	<path class="st4" d="M179.4,390.1c1.3-0.7,3.3-2,4.6-2.7"/>
	<path class="st4" d="M178.8,388.5c1.1-0.8,3.1-2.1,4.2-2.9"/>
	<path class="st4" d="M177.9,386.9c1.4-0.7,3.7-1.8,5.1-2.5"/>
	<path class="st4" d="M177,385.7c1.3-0.6,4.1-1.7,5.4-2.3"/>
	<path class="st4" d="M176.1,384.6c1.5-0.6,4.2-2,5.7-2.6"/>
	<path class="st4" d="M175.2,384c0.4-0.5,2-2.5,3.7-3.1c1-0.4,2-0.4,2.6-0.3"/>
	<path class="st4" d="M173.1,382.8c0.6-0.6,2.2-2.5,4.2-3.1c1.1-0.3,2.1-0.4,2.8-0.3"/>
	<path class="st4" d="M168.9,384.7c0.5-0.9,2.4-3.6,4.3-4.9c2.5-1.6,4.9-1.8,6-1.8"/>
	<path class="st4" d="M168.8,382c0.5-0.6,2.2-2.7,3.1-3.3c2.3-1.6,4.7-1.9,6-2"/>
	<path class="st4" d="M167.7,380.1c0.6-0.5,1.7-1.8,2.5-2.4c2.7-1.8,5.4-2.2,7.1-2.4"/>
	<path class="st4" d="M165.5,378.7c0.9-0.5,2.7-1.5,3.8-2c2.2-1,4.2-1.9,6.2-2.6"/>
	<path class="st4" d="M164.8,376.7c0.7-0.7,2.9-1.9,4.4-2.6c2.4-1.1,4.6-1,5.7-0.9"/>
	<path class="st4" d="M164.7,373.9c1.8-0.4,4.9-1.2,6.7-1.6"/>
	<path class="st4" d="M165.3,370.9c0.9,0.1,2.9,0.4,3.9,0.5"/>
	<path class="st4" d="M171.5,360.1c-0.8-0.6-2.2-1.8-2.9-2.4"/>
	<path class="st4" d="M179.5,373.2c0.7,0.6,1.5,1.2,2.2,1.8"/>
	<path class="st4" d="M180.1,371.9c0.9,0.6,1.7,1.2,2.6,1.8"/>
	<path class="st4" d="M182.7,371.6c0.3,0.2,0.5,0.5,0.8,0.7"/>
	<path class="st4" d="M191,358.9c0.3,0.5,0.6,0.9,0.9,1.4"/>
	<path class="st4" d="M190.5,360.2c0.3,0.4,0.6,0.8,0.9,1.2"/>
	<path class="st4" d="M190,361.6c0.1,0.3,0.3,0.6,0.4,0.9"/>
	<path class="st4" d="M189.4,362.9c0.1,0.2,0.2,0.5,0.3,0.7"/>
	<path class="st4" d="M183.4,397.5c0.2,0.1,0.4,0.3,0.6,0.4"/>
	<path class="st4" d="M184.3,396.7c0.2,0.1,0.8,0.5,1,0.6"/>
	<path class="st4" d="M185,395.7c0.4,0.2,1.1,0.5,1.5,0.7"/>
	<path class="st4" d="M185.7,394.6c0.5,0.1,1.4,0.4,1.9,0.6"/>
	<path class="st4" d="M186.3,393.3c0.2,0,0.4,0,0.7,0.1c0.5,0.2,0.8,0.5,1,0.6"/>
	<path class="st4" d="M186.5,392.1c0.2,0,0.5,0,0.9,0c0.3,0,0.6,0.1,0.9,0.2"/>
	<path class="st4" d="M186.4,391.1c0.2-0.1,0.6-0.2,1.1-0.2c0.4,0,1.1,0.1,1.3,0.2"/>
	<path class="st4" d="M186.3,389.9c0.2-0.1,0.6-0.3,1.1-0.3c0.5-0.1,1.2,0.1,1.5,0.2"/>
	<path class="st4" d="M186.2,388.4c0.2-0.1,0.6-0.3,1.1-0.3c0.7-0.1,1.5-0.1,1.8,0"/>
	<path class="st4" d="M186,386.9c0.2-0.2,0.7-0.4,1.2-0.5s1.4-0.1,1.7-0.1"/>
	<path class="st4" d="M185.6,385.3c0.2-0.2,0.5-0.4,0.9-0.6c0.9-0.4,2-0.3,2.4-0.3"/>
	<path class="st4" d="M185.4,383.8c0.2-0.2,0.5-0.3,0.9-0.5c1-0.4,2.3-0.5,2.7-0.4"/>
	<path class="st4" d="M184.9,382.6c0.3-0.2,0.8-0.5,1.3-0.7c1.1-0.4,2.4-0.5,3-0.4"/>
	<path class="st4" d="M184.6,381.4c0.3-0.3,1-0.8,1.8-1.1c1.2-0.4,2.6-0.2,3.1-0.1"/>
	<path class="st4" d="M184.1,380.2c0.5-0.4,1.3-0.9,2.4-1.3c1.2-0.4,2.7-0.3,3.4-0.2"/>
	<path class="st4" d="M183.5,379c0.6-0.4,1.5-0.9,2.6-1.3c1.5-0.5,3.3-0.5,4.1-0.4"/>
	<path class="st4" d="M183.3,377.5c0.6-0.3,1.3-0.5,2-0.8c1.3-0.4,3.1-0.6,4.1-0.7"/>
	<path class="st4" d="M184.4,375.6c0.6-0.2,1.3-0.5,2.2-0.6c0.7-0.1,1.8-0.4,2.3-0.3"/>
	<path class="st4" d="M185.4,373.7c0.4-0.2,1-0.4,1.7-0.5c0.6,0,1.4,0.2,1.7,0.2"/>
	<path class="st4" d="M186.6,371.9c0.2-0.1,0.5-0.2,0.9-0.2s1.2,0.2,1.4,0.3"/>
	<path class="st4" d="M187.6,370.6c0.1,0,0.4-0.1,0.7,0c0.2,0.1,0.7,0.3,0.8,0.3"/>
	<path class="st4" d="M188.3,369.2c0.3,0.1,0.8,0.3,1,0.4"/>
	<path class="st4" d="M189,368.2c0.2,0.1,0.5,0.4,0.7,0.4"/>
	<path class="st4" d="M189.7,367.4c0.1,0.1,0.4,0.1,0.5,0.2"/>
	<path class="st4" d="M173.2,335.5c-0.2,0.1-0.6,0.8-0.8,0.9"/>
	<path class="st4" d="M171.7,335.2c-0.1,0.1-0.3,0.2-0.5,0.4c-0.3,0.3-0.4,0.8-0.5,0.9"/>
	<path class="st4" d="M169.8,334.7c-0.2,0.2-0.3,0.4-0.5,0.6c-0.2,0.4-0.5,1.1-0.6,1.4"/>
	<path class="st4" d="M167.5,334.3c-0.2,0.1-0.7,0.3-1,0.8c-0.4,0.6-0.5,1.5-0.5,1.7"/>
	<path class="st4" d="M165.1,333.8c-0.2,0.2-0.5,0.4-0.7,0.7c-0.7,0.9-0.8,2.3-0.9,2.8"/>
	<path class="st4" d="M162.1,333.4c-0.3,0.3-0.5,0.7-0.8,1.2c-0.5,1-0.7,2.3-0.7,2.9"/>
	<path class="st4" d="M160,332.6c-0.2,0.4-0.4,0.9-0.6,1.4c-0.4,1.1-0.7,2.5-0.8,3.3"/>
	<path class="st4" d="M157.5,332.4c-0.3,0.4-0.6,0.9-0.8,1.5c-0.5,1.2-0.7,2.7-0.7,3.4"/>
	<path class="st4" d="M155.4,331.8c-0.3,0.5-0.5,1.1-0.8,1.8c-0.5,1.4-0.9,3.1-1.1,4.2"/>
	<path class="st4" d="M152.5,331.4c-0.4,0.7-0.8,1.5-1.1,2.6c-0.5,1.7-0.6,3.6-0.6,4.6"/>
	<path class="st4" d="M149.6,331.1c-0.2,0.4-0.5,1-0.9,1.7c-0.6,1.2-0.9,1.9-1.1,2.9c-0.1,0.6-0.3,1.9-0.2,3.1"/>
	<path class="st4" d="M146.8,330.6c-0.3,0.4-0.6,1-0.9,1.8c-0.4,1-0.5,1.8-0.6,2.6c-0.1,0.7-0.1,2.1-0.1,3.1"/>
	<path class="st4" d="M143.9,330.1c-0.3,0.8-0.7,1.7-1,2.7c-0.4,1.7-0.5,3.7-0.5,4.9"/>
	<path class="st4" d="M141.2,329.5c-0.4,1-0.9,2.3-1.2,4c-0.3,1.6-0.3,3.6-0.3,4.6"/>
	<path class="st4" d="M138.2,329.1c-0.3,0.5-0.7,1.2-1,2.1c-0.2,0.5-0.4,1.2-0.5,2.2c-0.3,2.3,0.1,5.1,0.3,6.3"/>
	<path class="st4" d="M135.6,328.3c-0.2,0.5-0.5,1.2-0.8,2c-0.5,1.4-0.8,2.3-1,3.6c-0.3,1.9-0.2,3.5-0.2,4.7
		c0.1,1.1,0.2,2.5,0.3,3.1"/>
	<path class="st4" d="M132.6,327.9c-0.3,0.7-0.7,1.7-1,2.9c-0.3,1.3-0.4,2.3-0.5,3.4c-0.3,2.6-0.1,4.7-0.1,5.3
		c0.1,1.1,0.2,2.6,0.3,3.3"/>
	<path class="st4" d="M130.1,327.1c-0.4,0.8-0.8,1.7-1.1,2.9c-0.6,1.8-0.8,3.2-0.9,3.7c-0.2,1.5-0.2,2.5-0.2,4.2
		c0,1.3,0.3,3.4,0.5,5.4"/>
	<path class="st4" d="M127.2,326.3c-0.5,1.2-1.1,3-1.6,5.1c-0.4,1.9-0.5,3.4-0.6,4.7c-0.1,1.8-0.2,5.1,0.1,8"/>
	<path class="st4" d="M123.9,325.9c-1.2,1.8-1.8,3.4-2,4.4c-0.2,0.6-0.6,2.5,0.2,8.7c0.2,1.9,0.7,4.1,0.9,5.2"/>
	<path class="st4" d="M119.8,326.4c-0.2,0.7-0.5,1.7-0.7,2.8c-0.3,1.7-0.3,2.9-0.3,4.9c0,1.6,0,3,0.2,4.9c0.1,1.5,0.7,4,1.2,6.2"/>
	<path class="st4" d="M115.8,328.8c0,2.4,0.1,4.3,0.3,5.8c0.2,2.5,0.3,4.1,0.7,6.2c0.4,1.9,1,3.9,1.3,4.9"/>
	<path class="st4" d="M113.5,332.4c-0.2,1.8-0.2,3.3-0.1,4.3c0.1,2.1,0.4,3.7,0.7,5.6c0.3,1.5,0.7,3.4,1,4.3"/>
	<path class="st4" d="M110.9,338.7c0,1.1,0.1,2.2,0.2,3.5c0.2,1.8,0.8,3.8,1.2,5.1"/>
	<path class="st4" d="M109.3,345c0.1,0.5,0.2,1,0.3,1.6c0.1,0.3,0.4,1.1,0.4,1.4"/>
	<path class="st4" d="M470.1,367.9c0.4-6.7-0.8-13.5-4.3-19.3"/>
	<path class="st4" d="M469.4,349.2c2.8,6.4,3.6,13.6,3.1,20.5"/>
	<path class="st4" d="M472.1,349.5c3.1,6.5,3.5,13.9,2.7,21"/>
	<path class="st4" d="M475.1,350.4c2.6,6.8,2.9,14.3,1.7,21.4"/>
	<path class="st4" d="M477.5,350.6c0.7,1.8,1.3,4.1,1.7,6.7c0.6,4.1,0.4,7.6,0.1,10.2"/>
	<path class="st4" d="M465.7,355c1.5,3.3,2,7,1.9,10.7"/>
	<path class="st4" d="M462.7,348.1c0.9,1.7,2,4,3,6.9"/>
	<path class="st4" d="M459.4,348.5c2.1,5.4,3.4,11,4,16.8"/>
	<path class="st4" d="M455.3,346.8c3,5.1,4.7,10.8,5.4,16.7"/>
	<path class="st4" d="M451.6,345.8c3.2,5.3,5,11.4,5.9,17.5"/>
	<path class="st4" d="M447.9,345.3c2.6,4.7,4.5,9.8,5.7,15.1"/>
	<path class="st4" d="M443.7,344.4c2.5,4,4.5,8.4,5.9,12.9"/>
	<path class="st4" d="M440.9,344.1c3,4.2,5,9,6,14.1"/>
	<path class="st4" d="M438.2,343.5c2,3.3,3.6,6.9,4.7,10.6"/>
	<path class="st4" d="M435.9,343.3c1.2,2.7,2.4,5.4,3.5,8.1"/>
	<path class="st4" d="M432.8,342.7c0.6,0.7,1.2,1.7,1.8,2.7c1,1.9,1.6,3.6,1.9,5"/>
	<path class="st4" d="M429.8,342.1c0.6,0.5,1.2,1.2,1.9,2.1c1.1,1.7,1.5,3.4,1.7,4.4"/>
	<path class="st4" d="M427.3,341.8c0.7,0.8,1.4,1.8,2.1,3.1c0.6,1,0.9,2,1.2,2.8"/>
	<path class="st4" d="M424.8,341.9c0.5,0.6,1,1.3,1.4,2.1c0.7,1.3,1.2,2.5,1.5,3.5"/>
	<path class="st4" d="M395.6,484.8c0,0.6-0.1,2.3,1,4c0.3,0.5,1.1,1.7,2.5,2.5c2.1,1.3,4.3,0.9,4.9,0.8"/>
	<path class="st4" d="M405.6,491.3c-0.7,0-1.9,0-3.3-0.5c-1.7-0.6-2.8-1.7-3.3-2.2c-1.8-1.8-2.4-3.9-2.6-5"/>
	<path class="st4" d="M406.7,490.2c-0.6-0.1-1.5-0.3-2.4-0.6c-0.1,0-1.5-0.6-2.7-1.5c-2.6-1.9-3.7-4.8-4-5.7"/>
	<path class="st4" d="M407.3,489.1c-0.8-0.2-1.9-0.6-3.1-1.3c-1.3-0.8-2.1-1.7-2.7-2.3c-0.8-0.8-1.8-2.2-2.7-4.1"/>
	<path class="st4" d="M408,487.6c-0.9-0.3-2.3-0.9-3.6-2c-0.6-0.5-1.6-1.3-2.4-2.6c-0.9-1.3-1.3-2.5-1.6-3.4"/>
	<path class="st4" d="M408.8,486c-0.7-0.1-1.8-0.5-2.9-1.2c-1-0.7-1.6-1.5-2.1-2c-0.7-0.8-1.7-2.3-2.3-4.5"/>
	<path class="st4" d="M408.1,484.1c-0.7-0.4-2.5-1.4-3.3-2.3c-1.5-1.8-2-3.7-2.2-4.7"/>
	<path class="st4" d="M408.3,481.7c-0.7-0.5-2.3-1.5-3.3-2.7s-1.6-2.5-1.9-3.3"/>
	<path class="st4" d="M408.8,480.1c-0.6-0.4-2.1-1.2-2.9-2.3c-1.1-1.3-1.5-2.7-1.7-3.4"/>
	<path class="st4" d="M409.7,478.2c-0.6-0.3-2.5-1.3-3.3-2.3c-1-1.2-1.4-2.4-1.5-3.1"/>
	<path class="st4" d="M410.4,476.7c-0.7-0.4-2.3-1.3-3.1-2.2c-0.9-1-1.5-2-1.9-2.7"/>
	<path class="st4" d="M411.5,475.5c-0.6-0.2-2.2-1-3.1-1.9c-1.5-1.4-2-3.2-2.2-3.9"/>
	<path class="st4" d="M414.6,472.5c-0.8-0.2-2.1-0.7-3-1.3c-2.5-1.6-3.6-3.9-4.1-5"/>
	<path class="st4" d="M414.3,471.3c-2.7-1.5-4.9-3.7-6.2-6.5"/>
	<path class="st4" d="M414.2,469.3c-2.4-1.5-4.3-3.7-5.6-6.1"/>
	<path class="st4" d="M414.8,467.7c-2.5-1.6-4.4-3.9-5.6-6.6"/>
	<path class="st4" d="M412.1,451.5c2.4-2.7,6-4.7,9.6-4.6"/>
	<path class="st4" d="M411.9,452.8c3-2.4,6.1-4.1,10-3.8"/>
	<path class="st4" d="M411.8,453.7c2.9-1.9,6.3-2.9,9.8-2.8"/>
	<path class="st4" d="M411.7,454.7c3-1.4,6.2-1.9,9.5-1.8"/>
	<path class="st4" d="M411,455.9c1.2-0.5,2.8-1,4.7-1.3c2.1-0.3,4.5-0.2,5.9-0.1"/>
	<path class="st4" d="M410.6,457.1c1.4-0.3,2.9-0.6,4.6-0.8c1.9-0.2,4-0.2,5.5-0.2"/>
	<path class="st4" d="M410.3,458.1c1.5-0.4,3.6-0.6,6-0.5c1.3,0.1,2.7,0.4,3.7,0.7"/>
	<path class="st4" d="M409.8,460.4c1.8,1.9,3.8,3.7,5.9,5.2"/>
	<path class="st4" d="M410.2,459.6c1.8,1.4,3.8,2.7,5.9,3.7"/>
	<path class="st4" d="M410.7,458.8c1.7,1.3,3.6,2.3,5.7,2.9"/>
	<path class="st4" d="M412.8,458.9c1.3,0.2,2.7,0.5,4,0.7"/>
	<path class="st4" d="M414.4,445.6c2.6-2.1,6-2.6,9.1-1.8"/>
	<path class="st4" d="M414.7,444c2.8-1.7,6.1-2.1,9.3-1.4"/>
	<path class="st4" d="M415.6,442c3.1-1.4,6.5-1.5,9.8-0.5"/>
	<path class="st4" d="M416.4,440.3c3.3-1.3,6.7-1.1,10,0.2"/>
	<path class="st4" d="M417.1,438.4c0.8-0.2,2-0.5,3.4-0.7c1-0.1,1.7-0.2,2.6-0.2c0.9,0.1,2.9,0.5,4.6,1.5"/>
	<path class="st4" d="M417.8,436.9c1.7-0.1,3-0.3,3.8-0.3c1.9-0.2,2.6-0.3,3.6,0c1.1,0.3,2.4,1.1,3,1.5"/>
	<path class="st4" d="M418.6,434.9c1.1-0.1,2.3-0.2,3.7-0.3c2.5-0.1,3.5-0.1,4.6,0.4c0.5,0.3,1.8,1,2,1.2"/>
	<path class="st4" d="M419.4,433.8c1.1-0.4,2.8-1,5-1c2.1,0,4.6,0.8,5.6,1.2"/>
	<path class="st4" d="M419.9,432.4c1-0.4,2.4-0.9,4.1-1.1c2.8-0.3,5.8,0.7,7.1,1.1"/>
	<path class="st4" d="M425,430.3c0.6-0.3,1.9-0.7,3.6-0.5c1.2,0.1,2.7,0.9,3.3,1.2"/>
	<path class="st4" d="M422,428.4c2.8-1.5,5.9-2.1,9.1-1.7"/>
	<path class="st4" d="M422.2,426.6c2.6-1.5,5.6-2,8.7-1.6"/>
	<path class="st4" d="M422.7,424.9c2.9-1.2,6.2-1.8,9.2-1.2"/>
	<path class="st4" d="M423.4,423.2c2.6-1.1,5.4-1.4,8.2-1"/>
	<path class="st4" d="M424.1,421.5c2.7-0.9,5.5-1.1,8.3-0.6"/>
	<path class="st4" d="M424.2,420.1c2.8-0.9,5.7-1,8.6-0.5"/>
	<path class="st4" d="M424.2,418.8c3-1.2,6.3-1.5,9.5-0.8"/>
	<path class="st4" d="M424.5,417.2c2.9-1.4,6.7-2.2,9.8-1.2"/>
	<path class="st4" d="M425.9,415.2c3-0.5,5.9-1.2,8.9-0.6"/>
	<path class="st4" d="M427.4,413.7c2.8-1.1,5.8-1.1,8.7-0.4"/>
	<path class="st4" d="M428.7,411.9c2.7-0.5,5.3-0.4,8,0.2"/>
	<path class="st4" d="M430.7,410.1c2.2-0.5,4.5-0.4,6.6,0.3"/>
	<path class="st4" d="M432,407.9c0.7-0.2,1.5-0.3,2.5-0.3c1.6-0.1,3.5,0.4,4.5,0.7"/>
	<path class="st4" d="M424.6,411.6c3.5-4.1,8.1-6.2,13.5-5.6"/>
	<path class="st4" d="M431.8,405.1c2.4-1.1,4.9-1.1,7.4-0.3"/>
	<path class="st4" d="M432.9,402.6c0.9-0.2,2-0.3,3.3-0.3c1.5,0,3.4,0.4,4.4,0.7"/>
	<path class="st4" d="M433.7,400.8c0.7-0.3,1.7-0.6,2.9-0.6c1.8-0.1,4.1,0.7,4.9,1"/>
	<path class="st4" d="M434.8,398.8c1.2-0.3,3.1-0.7,5.4-0.3c0.8,0.2,2.4,0.9,3,1.1"/>
	<path class="st4" d="M435.5,397.2c2.9-0.5,6.2-0.6,9.1,0.1"/>
	<path class="st4" d="M435.7,395.8c2.9-0.6,6-1.1,8.9-0.5"/>
	<path class="st4" d="M436.9,393.5c2.7-0.7,5.6-1,8.4-0.4"/>
	<path class="st4" d="M438,391.5c0.8-0.2,1.8-0.5,2.9-0.6s2.1-0.1,2.9-0.1"/>
	<path class="st4" d="M439.2,389c1.9-0.8,4-1.1,6-0.7"/>
	<path class="st4" d="M439.8,386.7c1.7-0.4,3.5-0.5,5.2-0.3"/>
	<path class="st4" d="M440.6,385.1c0.7-0.2,1.5-0.3,2.5-0.4c1.6-0.1,3,0.2,3.9,0.5"/>
	<path class="st4" d="M440.6,383.2c0.7-0.2,1.7-0.4,2.8-0.5c1.4-0.1,2.6,0.1,3.4,0.3"/>
	<path class="st4" d="M440.4,381.2c0.7-0.2,1.7-0.4,2.7-0.5c1.6-0.1,2.9,0.1,3.8,0.3"/>
	<path class="st4" d="M440.5,379.5c0.7-0.2,1.5-0.4,2.5-0.5c1.6-0.2,3,0,4,0.3"/>
	<path class="st4" d="M441,377.5c0.8-0.2,1.8-0.5,3.1-0.5c1.1,0,2.1,0.1,2.8,0.3"/>
	<path class="st4" d="M441.4,375.3c0.7-0.2,1.7-0.4,2.9-0.4c1.3,0,2.3,0.3,3,0.6"/>
	<path class="st4" d="M442.2,373.3c0.5-0.2,1.3-0.5,2.4-0.6s2,0.2,2.6,0.4"/>
	<path class="st4" d="M443.3,371.3c0.4-0.1,0.9-0.3,1.6-0.3c0.9-0.1,1.7,0.1,2.2,0.3"/>
	<path class="st4" d="M444,369.8c0.9-0.1,1.8-0.2,2.7-0.3"/>
	<path class="st4" d="M444.9,368.2c0.6,0,1.3,0,1.9-0.1"/>
	<path class="st4" d="M444.9,366.8c0.6-0.2,1.1-0.3,1.7-0.5"/>
	<path class="st4" d="M428.1,405.3c-0.6,0.4-2,1.5-3.3,1.5c-1.4,0-2.4-0.5-3.7-1.3c-1.1-0.6-2.6-1.6-4.1-3.2"/>
	<path class="st4" d="M426.7,405.1c-0.5,0.2-1.7,0.7-2.8,0.5c-1.1-0.1-1.9-0.6-2.6-1.2c-2.2-1.6-3.9-3.6-5-4.9"/>
	<path class="st4" d="M425.3,404.2c-0.9-0.2-2.6-0.4-3.8-1.1c-3.4-1.9-4.9-5.1-5.4-6.3"/>
	<path class="st4" d="M423.9,402.5c-1.1-0.7-3.1-1.5-4.3-2.9c-2.3-2.6-3.4-5.3-3.9-7"/>
	<path class="st4" d="M420.7,398.6c-0.9-1.4-2.3-3.5-3.3-5.3c-0.6-1.1-1.1-2.3-1.5-3.3"/>
	<path class="st4" d="M422.1,397.3c-0.6-1.2-1.6-2.9-2.5-4.3c-1.2-1.8-2.4-3.2-3.5-4.4"/>
	<path class="st4" d="M422.7,394.6c-0.4-1-1.5-3.1-2.6-4.5c-1.4-1.7-2.9-2.7-4-3.4"/>
	<path class="st4" d="M423.5,391.7c-0.5-0.9-2-2.9-3.4-4.1c-1.3-1.1-2.6-1.7-3.5-2.1"/>
	<path class="st4" d="M425.3,390.2c-0.7-0.8-2.5-2.6-3.9-3.5c-1.8-1.2-3.5-1.8-4.6-2"/>
	<path class="st4" d="M427.7,389.3c-0.8-0.8-2.4-2.5-3.9-3.4c-2.4-1.4-4.7-1.9-6.2-2.1"/>
	<path class="st4" d="M429.5,386.6c-1-0.7-3-2-4.7-2.6c-2.6-1-5-1.2-6.6-1.2"/>
	<path class="st4" d="M430.2,384.4c-1-0.7-3.4-2.3-5.8-2.8c-2.3-0.6-4.3-0.5-5.5-0.3"/>
	<path class="st4" d="M431.8,383.7c-0.7-0.8-3.5-4.1-7.1-4.7c-2.2-0.4-4.1,0-5.1,0.3"/>
	<path class="st4" d="M434.2,382.7c-0.9-1-2.5-3-4.4-4c-4.1-2.1-8.1-1.7-9.7-1.4"/>
	<path class="st4" d="M435.5,381.8c-0.6-1-2.4-3.7-4.4-5c-2.7-1.7-5.2-1.9-6.3-2c-1.8-0.1-3.3,0.1-4.2,0.4"/>
	<path class="st4" d="M436.7,378.1c-0.7-1.1-3-3.8-6-5.1c-4.4-1.9-8.4-0.8-9.4-0.5"/>
	<path class="st4" d="M438.3,376.6c-1-1.1-3.4-4-5.8-5.1c-4.8-2.3-9.3-1.6-11-1.3"/>
	<path class="st4" d="M438.9,372.9c-1.2-1.2-3.7-3.2-7.5-4.3c-4.5-1.3-8.3-0.5-10-0.1"/>
	<path class="st4" d="M440.5,370.6c-1.1-1.1-3-2.9-5.8-4c-3.4-1.3-6.4-1.1-8.9-0.9c-2.1,0.2-5.3,0.7-9,2.4"/>
	<path class="st4" d="M441.9,367.6c-1.3-0.9-3.1-2.1-5.6-3.1c-1.3-0.5-4.4-1.7-8.3-1.7c-5.7,0-10,2.5-12,3.8"/>
	<path class="st4" d="M442.2,364.4c-1-0.5-2.4-1.3-4.2-2c-3.4-1.4-7.8-3.1-12.9-2.5c-1.9,0.2-5.6,0.9-9.6,4"/>
	<path class="st4" d="M441.4,362c-1.7-1.3-5.7-4-11.5-4.6c-8-0.9-13.9,2.9-15.5,4"/>
	<path class="st4" d="M438.7,357.6c-2.1-0.9-4.9-1.7-8.2-2c-7.4-0.8-13.3,1.5-16.3,2.9"/>
	<path class="st4" d="M436,354c-2.2-0.6-5.3-1.1-9-1c-5,0.2-8.9,1.5-11.4,2.6"/>
	<path class="st4" d="M431,351.4c-1.6-0.4-4.1-0.7-7.2-0.3c-2.8,0.4-5,1.3-6.5,2"/>
	<path class="st4" d="M422.5,341.8c0.5,0.5,1.2,1.3,1.7,2.3c1,1.7,1.4,3.4,1.5,4.5"/>
	<path class="st4" d="M420.1,342c0.6,0.4,1.4,1,2.1,1.8c1.6,1.9,2,4,2.1,5"/>
	<path class="st4" d="M417.9,342.2c0.5,0.5,1.1,1,1.6,1.7c1.6,2,2.3,4,2.6,5.4"/>
	<path class="st4" d="M415.1,342.3c0.7,0.4,1.7,1,2.6,2c1.9,2,2.4,4.3,2.5,5.4"/>
	<path class="st4" d="M412.8,342.9c0.9,0.5,2.1,1.4,3.2,2.7c1.5,1.7,2.3,3.5,2.6,4.6"/>
	<path class="st4" d="M411.3,343.5c0.6,0.4,1.3,0.8,2,1.4c2.4,2.1,3.3,4.7,3.7,6.2"/>
	<path class="st4" d="M409.7,345.1c0.6,0.3,1.6,0.7,2.4,1.7c0.3,0.4,0.6,0.8,1.3,2.3c0.4,0.9,0.9,2,1.4,3.4"/>
	<path class="st4" d="M408.2,346.9c0.7,0.3,1.7,0.8,2.7,1.7c2.1,2,2.6,4.6,2.7,5.4"/>
	<path class="st4" d="M407,348.5c0.8,0.4,2,1.1,3.1,2.4c1.6,1.8,2.1,3.8,2.3,4.8"/>
	<path class="st4" d="M405.7,350.5c0.8,0.3,2.4,1,3.9,2.6c1.2,1.3,1.8,2.7,2.1,3.5"/>
	<path class="st4" d="M405,352.9c1.1,0.7,2.2,1.6,3.3,2.4c0.9,0.7,1.8,1.4,2.6,2.1"/>
	<path class="st4" d="M403.9,354.5c0.9,0.4,1.9,1,3,1.8c1.3,1,2.4,2,3.1,2.9"/>
	<path class="st4" d="M403.4,355.5c2.2,1.7,4.5,3.7,6.6,6.2c0.4,0.5,0.8,0.9,1.1,1.4"/>
	<path class="st4" d="M410.5,364.1c1,1.4,2,2.9,2.9,4.8c1.9,3.7,3,7.1,3.6,9.9"/>
	<path class="st4" d="M410.3,377.9c0.9-0.3,2.3-0.7,3.2-1"/>
	<path class="st4" d="M410.6,379.7c1-0.4,2.3-0.9,3.3-1.3"/>
	<path class="st4" d="M410.7,380.8c0.9-0.2,2.6-0.5,3.5-0.7"/>
	<path class="st4" d="M411.2,382.6c1-0.3,2.5-0.6,3.5-0.9"/>
	<path class="st4" d="M411.1,383.8c1.1-0.3,2.9-0.5,4-0.8"/>
	<path class="st4" d="M411.2,385.5c0.7-0.3,2.3-0.6,3-0.9"/>
	<path class="st4" d="M411.2,387.2c0.7-0.2,2.1-0.4,2.8-0.6"/>
	<path class="st4" d="M411.4,388.6c0.6-0.1,1.6-0.2,2.2-0.3"/>
	<path class="st4" d="M411.4,390.2c0.5-0.1,1.7-0.3,2.2-0.4"/>
	<path class="st4" d="M411.4,391.7c0.5-0.2,1.8-0.4,2.3-0.7"/>
	<path class="st4" d="M411.5,393.8c0.6-0.2,1.6-0.4,2.2-0.6"/>
	<path class="st4" d="M411.5,396.2c0.6-0.1,1.8-0.4,2.4-0.5"/>
	<path class="st4" d="M411.5,398.1c0.7-0.2,1.8-0.6,2.6-0.8"/>
	<path class="st4" d="M411.7,400.1c0.5-0.2,1.6-1.1,2.1-1.3"/>
	<path class="st4" d="M412.1,401.4c0.4-0.2,1.6-0.7,2-0.9"/>
	<path class="st4" d="M412.7,402.8c0.4-0.1,1.3-0.5,1.7-0.6"/>
	<path class="st4" d="M413.4,404c0.4-0.1,1.3-0.5,1.6-0.6"/>
	<path class="st4" d="M414.3,405.2c0.3-0.2,1.2-0.7,1.4-0.9"/>
	<path class="st4" d="M415.5,406.3c0.2-0.2,0.8-0.9,1-1"/>
	<path class="st4" d="M416.9,407c0.1-0.2,0.5-0.8,0.6-1"/>
	<path class="st4" d="M410,376.4c0.8-0.3,2-0.7,2.8-1"/>
	<path class="st4" d="M409.7,374.4c0.7-0.2,1.7-0.5,2.3-0.7"/>
	<path class="st4" d="M409.7,372.5c0.4-0.2,1.4-0.6,1.9-0.8"/>
	<path class="st4" d="M409.5,371.1c0.3-0.2,1.1-0.7,1.4-0.9"/>
	<path class="st4" d="M409.2,369.4c0.2-0.1,0.9-0.4,1.2-0.5"/>
	<path class="st4" d="M408.6,368.1c0.3-0.1,0.9-0.4,1.2-0.5"/>
	<path class="st4" d="M407.9,367c0.2-0.2,0.8-0.7,1-0.9"/>
	<path class="st4" d="M406.9,366c0.3-0.2,0.9-0.9,1.2-1.1"/>
	<path class="st4" d="M405.9,364.6c0.3-0.3,0.8-0.8,1.1-1.1"/>
	<path class="st4" d="M404.9,362.7c0.2-0.2,0.7-0.7,0.9-0.9"/>
	<path class="st4" d="M404.3,361.3c0.2,0,0.7-0.2,0.9-0.3"/>
	<line class="st4" x1="421.5" y1="408.1" x2="421.1" y2="408.1"/>
	<line class="st4" x1="421.7" y1="410.1" x2="422" y2="410.1"/>
	<line class="st4" x1="421.6" y1="410.9" x2="422.2" y2="410.9"/>
	<path class="st4" d="M421.4,411.8c0.3,0,0.5,0,0.8,0"/>
	<path class="st4" d="M421.5,412.6c0.3,0,0.6,0,1,0.1"/>
	<path class="st4" d="M421.3,413.5c0.4,0.1,0.8,0.1,1.2,0.2"/>
	<path class="st4" d="M421.1,414.8c0.5,0,0.9,0.1,1.4,0.1"/>
	<path class="st4" d="M421,415.6c0.5,0.2,1,0.3,1.5,0.5"/>
	<path class="st4" d="M420.8,416.7c0.5,0,1,0.1,1.4,0.1"/>
	<path class="st4" d="M420.7,417.8c0.6,0.1,1.1,0.1,1.7,0.2"/>
	<path class="st4" d="M420.4,418.6c0.6,0.1,1.2,0.2,1.8,0.4"/>
	<path class="st4" d="M420.4,419.6c0.5,0.1,1,0.2,1.6,0.3"/>
	<path class="st4" d="M420.2,420.5c0.5,0.1,1,0.1,1.5,0.2"/>
	<path class="st4" d="M420,421.4c0.5,0.1,1,0.1,1.5,0.2"/>
	<path class="st4" d="M419.7,422.4c0.5,0.1,1,0.1,1.6,0.2"/>
	<path class="st4" d="M419.5,423.4c0.5,0.1,1,0.3,1.4,0.4"/>
	<path class="st4" d="M419.3,424.2c0.4,0.2,0.8,0.3,1.2,0.5"/>
	<path class="st4" d="M419,425.2c0.5,0.1,0.9,0.3,1.4,0.4"/>
	<path class="st4" d="M418.6,426.1c0.4,0.1,0.9,0.3,1.3,0.4"/>
	<path class="st4" d="M418.3,426.9c0.5,0.1,0.9,0.2,1.4,0.4"/>
	<path class="st4" d="M417.9,427.7c0.5,0.1,0.9,0.2,1.4,0.4"/>
	<path class="st4" d="M417.6,428.7c0.4,0.1,0.8,0.2,1.2,0.4"/>
	<path class="st4" d="M417.2,429.5c0.4,0.1,0.8,0.2,1.2,0.3"/>
	<path class="st4" d="M416.9,430.3c0.4,0.2,0.8,0.5,1.2,0.7"/>
	<line class="st4" x1="416.7" y1="431" x2="417.6" y2="431.6"/>
	<path class="st4" d="M416.3,432.1c0.4,0.1,0.7,0.2,1.1,0.3"/>
	<path class="st4" d="M416,433c0.4,0.1,0.8,0.2,1.3,0.3"/>
	<path class="st4" d="M415.7,433.7c0.2,0.1,0.5,0.1,0.7,0.2"/>
	<path class="st4" d="M415.4,434.8c0.2,0.1,0.5,0.1,0.7,0.2"/>
	<path class="st4" d="M415.1,435.6c0.2,0.1,0.5,0.2,0.7,0.3"/>
	<path class="st4" d="M415,436.4c0.1,0.1,0.3,0.1,0.4,0.2"/>
	<path class="st4" d="M414.6,437.4c0.2,0.1,0.3,0.1,0.5,0.2"/>
	<line class="st4" x1="414.2" y1="438.1" x2="414.8" y2="438.4"/>
	<path class="st4" d="M413.8,438.9c0.2,0.1,0.4,0.2,0.7,0.3"/>
	<path class="st4" d="M413,439.7c0.4,0.1,0.7,0.2,1.1,0.4"/>
	<path class="st4" d="M412.7,440.3c0.3,0.1,0.7,0.3,1,0.4"/>
	<path class="st4" d="M412.4,441.1c0.4,0.2,0.7,0.4,1.1,0.6"/>
	<line class="st4" x1="412.3" y1="442.1" x2="413.2" y2="442.5"/>
	<path class="st4" d="M412.1,443c0.2,0.1,0.5,0.2,0.7,0.3"/>
	<path class="st4" d="M412,443.8c0.2,0.1,0.4,0.1,0.6,0.2"/>
	<path class="st4" d="M411.9,444.8c0.2,0.1,0.3,0.1,0.5,0.2"/>
	<path class="st4" d="M411.7,445.5c0.1,0.1,0.3,0.1,0.4,0.2"/>
	<path class="st3" d="M196.9,477.2c63.9,37.4,144.8,37.6,195.8,8.5"/>
</g>
<g id="Letras">
	<path class="st6" d="M442.8,305.9c2.7-1.2,2.4-1.1,5.9-2.1s7.3-1.7,7.3-2.8s-0.2-2-0.7-2s-1.1-2.7-4.4-4s-5.7-2.1-10.4-2.5
		c-4.6-0.4-8.9,1.7-10.6,3.1c-1.6,1.4-3.4,3.6-3.4,3.6s-2.4,1.3-3.9,0.6c-1.5-0.6-3.3-3.1-3.3-3.1s3.8-0.9,4.8-2.6s1.8-4.8,0.4-8.5
		s-0.9-3.8-0.9-3.8s1.9-0.2,2.4-1.6s0.7-2.6-0.9-3.7c-1.5-1-3.1-0.7-4,0.2c-1.9,1.7-1.1,4.5-1.1,4.5l-14.6,7.4c0,0-2.9,0.2-4.3-0.8
		s-2.7-2.2-1-4c1.7-1.9,8.2-6.1,12.1-8.3c3.9-2.1,1.7-3.8,1.2-3.7s-2.8-2.6-6.4-3.3c-3.6-0.8-8.8-0.2-11.8,1
		c-3.4,1.4-7.4,5.9-8.9,7.3s-3.2,2.3-4.7,2.2s-5.2-0.3-5.2-2s0.5-2.3,5-5.2c4.6-2.9,7.9-4.2,8.8-5.7c0.9-1.4,0.7-3.6-1.4-5.3
		c-1.3-1.1-2.9-2.3-9.6,0.2c0,0,0.5-2.1-0.6-2.9s-2.3-2-5.2-1.8s-4.9,0.7-4.9,0.7s0.7-2.4,1-3.1c0,0,3.3-1.9,8.6-2.1
		c5.3-0.3,9.7,0.5,13,2.4c5.1,2.9,8.6,6.7,9.9,7.9c1.2,1.2,2.1,2.5,3.4,1.8s-2.6-6.3-6.9-9c-3.4-2.1-6.1-3.7-12.3-4.3
		c-5.8-0.5-10.3-0.1-14.8,0.9c0,0,0.5-1.6-0.3-3.6s-2-7.8-10.4-9.2s-13.9,0.3-15.9,2.4c-2,2.1-4.1,4.7-3.1,8.9s6,7.8,11.9,7.8
		s12.9-2.3,12.9-2.3s-9.3,9.8-13.8,11.8c-4.5,2.1-3.6,2.7-3,3s3,1.4,5.8-0.5s11.8-9.3,11.8-9.3s4-2.6,6-2.6s4.3-0.1,4.9,0.9
		s-0.9,2.2-4,4.5c-3.1,2.2-12.5,9.2-12.5,9.2s-0.7,1.3,1.2,1.3s12.2-7.9,15.1-9.5s7.1-3.1,8.6-2.8s3.3,1.5,2.3,2.3
		s-13.5,9.2-13.5,9.2s-1.9,1.8-1.5,3.1s0.9,2.3,3.8,3.2c2.8,0.9,5.2,1.5,6.7,1.1c1.4-0.4,2.8-1.1,2.8-1.1s-0.1,2.2,1,3.1
		c1,0.9,3.7,2.3,5.8,2.4c1.7,0.1,4.2-0.7,4.2-0.7s-0.3,1.3,0.4,2.3c0.8,1.1,2.4,3.4,4.8,3.7c2.3,0.3,5,0.1,7.6-1.2
		s10.5-5.3,10.5-5.3s1.5,5.1,1.6,6.9s-0.6,4.4-3.1,4.9s-4.9,0.3-6.3-1.6c-1-1.4-0.9-2.6-1.2-3.1c-0.1-0.3-0.7-0.8-0.9-0.7l-1.1,0.2
		c-0.3,0.1-0.7,1-0.6,1.3c0.1,0.4,0.4,0.8,0.8,1.5c0.9,1.5,4.3,3.4,5.9,3.6s2.4,0.5,2.4,0.5s-1-0.1,0.7,1.4s3.1,2.4,4.3,2.5
		c1.2,0.1,3.6-0.1,3.6-0.1s-0.4,0.4,0,1.6s2.8,4.5,5.8,4.8s4.4,0.3,4.4,0.3s-0.4,2.2,0.5,3.7c0.9,1.4,2.3,2.7,4.6,3.8
		c2.3,1.2,6.2,1.6,7.5-0.3c1.5-2.2-1.8-1.1-2.9-0.6s-2.5,0.4-4.5-0.8c-1.7-1-3-2.9-2.9-3.9C439.2,308.1,440.9,306.8,442.8,305.9z
		 M366.9,252.3c-3,2.8-11.8,4.3-17.4,3.5c-5.6-0.8-7.8-7.8-3.9-12.5c3.6-4.3,11.1-4.2,15.1-3.2s6.2,3.8,6.6,5.6
		S367.9,251.4,366.9,252.3z M392.5,283.1c-3.6,0.2-5.4-2.7-3.2-5.7c2.2-3.1,10.8-6.9,15.2-7.4c4.4-0.6,6.7,1.9,6.7,1.9
		s-6,2.9-8.9,4.8C399.4,278.5,396.1,283,392.5,283.1z M422.8,277.6c0.5-0.5,1.4-0.5,1.8,0c0.8,0.9,0,2.5-1.9,3
		C422.6,280.6,422.1,278.4,422.8,277.6z M432.5,305.6c-3.5-0.7-4.6-3.8-1.8-6.3c2.8-2.5,12.1-4.2,16.5-3.8s6.1,3.4,6.1,3.4
		s-6.5,1.5-9.8,2.6S436,306.3,432.5,305.6z"/>
	<path class="st6" d="M173,303.2c6.3-3.3,17.4-3.6,27.3-3.7c9.9-0.1,18-0.1,25.3-2.6s17.1-8.2,20.3-12.4s3.4-3.1,3.6-3
		s-2.1,4.6-7.7,8.9s-11.3,9-20.3,10.3s-13,1.7-18,1.4s-13.4-0.6-18.2,0s-10.9,2-12.8,2.9c-1.6,0.7-5.6,5.7-5.9,5.4
		C166.2,310.2,169.9,304.9,173,303.2z"/>
	<path class="st6" d="M182.7,273.2c-4.1-11.8-12-11.5-18.3-9.2c-6.3,2.2-17.2,13.4-17.5,20.5s6.1,6.7,6.1,6.7s-0.6,7.2,0.5,12.2
		c1,5,7.2,12,12.3,12.5s12.6-11.5,15-16C183.2,295.3,186.8,285,182.7,273.2z M175.6,304.2c-2,4.4-7.5,13.9-14.8,7
		s-4.5-20.8-4.5-20.8s1.9-1.4,4.3-4.7c2.4-3.3,0.5-6.1,0.5-6.1l4.2-6.1c0,0-1.6,0.1-3.1,1.1s-2.7,3-2.7,3s-2-1-2.8-0.8
		c-0.8,0.3,1.9,2,1.9,2s-0.8,1.1-2.1,3.2s-3,6.6-3,6.6c-2.7-1.7-3.6-3.8-0.8-9.8s11.4-14.8,16.1-14.4s7.3,0.1,10.7,10
		C183.1,284.3,177.7,299.8,175.6,304.2z M157.1,288.2c0,0,2.4-6.5,3.3-7s0,2.9-0.4,3.8C159.5,285.9,157.1,288.2,157.1,288.2z"/>
	<g>
		<path class="st6" d="M314.3,221.5c-14.3-1.8-23.4,5.3-24.9,7c0,0-17.2-7.9-32-5.1c-14.8,2.9-28,13.5-28.1,17.4s3.4,0.5,4.4-0.6
			s14.6-17.7,32.7-16.3s21.8,5.2,21.8,5.2s-10.5,14.2-11.8,17.4c0,0-10-5.5-16.4,7.8c-6.3,13.3-3.2,12.5-3.2,12.5s-2.1,3.8-4.7,3.4
			c-2.6-0.4-5.1,0.4-0.5-10.1c3.4-8,4-8.7,4-8.7c0-0.6,0.1-2.9-2-2.5c-2.4,0.4-11.9,25-13.5,24.8c-2.1-0.3-3.9,1.8,0.1-10.4
			c0,0,4.8-5.9-4.1-8.9c0,0,3.7-9.9-1.1-9.7s-6,7-4.6,8.6s3.7,2.8,3.7,2.8s-14.8,40.2-17.5,19.4c0,0,8.2-2.8,9.4-10
			c1.2-7.1-6.4-8.6-7.9-4.4c-1.6,4.2-9.1,34.7-12.1,23.2c0,0-0.2-8.3,3.9-18.6c0,0-2.8-4.3-5.8,3.5s-3.7,17.8-3.7,17.8
			s-1.6,4-4.2,3.9s-3.2-3.1,0-13.9c0,0-1.4-5-4-4.5s-4.9,1.7-4.5,3.3c0.1,0.3,1-0.1,1-0.1s2.3-1.8,3.1-1.4s2.4,1.1,1.1,4.2
			c-1.3,3.1-3.7,10.5-2.2,12.6s3.4,3.9,5.9,2.2c2.5-1.6,4.7-4.2,5.7-6c0,0,1.1,2.1,3.4,1.4s3.9-0.8,5.6-3.6c1.7-2.9,2.4-4.8,2.4-4.8
			s2.2,4.3,5.3,3s6.6-1.7,10.9-12.6c4.3-10.8,5-13.6,5-13.6s0.9-1.4,1.6-0.4c0.7,1,1.2,2.1,0.4,4.4s-5.5,13.2,0.1,14.2s9-6.5,9-6.5
			s2,2.5,5.6,2.8c3.7,0.3,5.5-2.2,6-3.1s0.6,0.2,3.5,1.1s8-2.1,9.5-5.3c0,0,0.8,2.5,3.7,3.4s6.3-1.4,7.4-3.2c0,0,1.2,2.8,6.1,1.9
			s5.5-3.2,5.5-3.2s2.4,3.6,6.9,2.9c4.4-0.7,5.4-3.3,6.7-5.2c1.4-1.9-0.1-1.6-0.7-1.1s-2.3,4.9-5.7,4.9s-5.8-0.2-4.5-3.7
			c1.2-3.5,5.8-12.2,7.3-13.4c1.5-1.1-0.6-3-2.8-3.1s-10.8-0.1-15.5,7c-4.7,7.1-4.9,10.5-4.1,11.8s-1.7,3.6-3.8,3.4
			s-5.6-0.2-1.5-9.3c4-9.2,10.8-24,15.8-26.8c0,0,17,6.4,27.5,4.5C329.3,233.4,328.6,223.3,314.3,221.5z M221.8,260.9
			c2,0.8,3.4,7-4.6,12.8C217.3,273.7,219.9,260,221.8,260.9z M235,253.8c0,0-1.8-4.3-0.7-5.3C235.3,247.5,236.6,248.1,235,253.8z
			 M289.7,251c4.6-7.4,10.8-4.5,10.8-4.5c-4.5,3.3-6.6,11-8.2,14.8c-1.7,3.7-5.3,4.9-7.7,3.8C282.2,263.9,285.1,258.3,289.7,251z
			 M271.8,258.8c-4.4,14.4-16.3,12.4-9-1.6c7.3-14,12.6-8.3,12.6-8.3L271.8,258.8z M317.2,232.8c-7.5,0.9-19.5-0.2-25-2.8
			c0,0,12-10.2,22-7.5C324.3,225.3,324.8,231.9,317.2,232.8z"/>
		<path class="st6" d="M255.7,251.4c0,0.1,0,0.1,0,0.1V251.4z"/>
		<path class="st6" d="M258.4,244.7c1.4-1.8,0.4-5.2-1.2-4.9s-3.9,4.2-2.6,5.7C254.6,245.5,257,246.5,258.4,244.7z"/>
	</g>
	<path class="st6" d="M329.9,582.2c-11.7-5.1-42.6,13.4-54.5,19.5c0,0-33.5-8.5-26.3-56.1c0,0,13.5-7.1,7.5-15.1
		c0,0-1.7-2.8-5.3-0.6c-6.5,4-6.2,15.3-6.2,15.3c-0.9,1.2-2,2.1-3.3,2.8l-15,7.7c0,0,2.8-9.4-0.3-21c0,0,10.3-13.7,4.8-19.7
		c0,0-6-2.3-10.6,5.2s1.7,18.1,1.7,18.1s-19.6,15.7-28.5,17c-8.9,1.4-20.4,0.9-23.1-4.6c-1.3-2.7,2.7-6.6,1.4-8
		c-1.2-1.4-5.2-2.3-4.8,5.5s18,15.2,35.1,6s19.9-14.8,19.9-14.8s-0.4,18.7-2,20.1s-9.2,6-8.7,7.7c0.5,1.8,4.9,6,8,1.9
		s5.6-9.3,6.6-12.4L244,548c0,0-10.9,38.4,28.8,54.8c0,0-16.2,6-24-0.3c0,0-1.8,0.6-1,1.3c0.9,0.7,10.8,6.1,28.7,0.6
		c0,0,23.7,6,39.8,0.5C332.5,599.4,341.6,587.3,329.9,582.2z M254.8,531.6c1.2-0.5,6.2,3.4-5.2,12.2
		C249.1,544.2,253.6,532.1,254.8,531.6z M214.5,567.3c-0.6-0.7,5.2-5.5,5.2-5.5C217,567.7,215.1,568,214.5,567.3z M225.8,532.9
		c-0.3,0.3-6.3-10.9,1.6-15.4C235.4,513,229.4,529.5,225.8,532.9z M316,603.5c0,0-18.6,5.2-35.8-0.3c-0.5-0.2,28.4-14.5,39.2-18.9
		C330.1,580,347,590.1,316,603.5z"/>
	<path class="st6" d="M402.7,503c0,0-1.9,8.6-7,12.8c-5,4.1-7.9,6.9-34.4,3.5s-32.8,12.7-45.5,35.6c0,0-3.4-4.3-8-2.1
		s-15.5,8.8-18.1,24.5c0,0-6.9,4.6-10.4,1c-3-3.1,7.5-15.2,10.3-19.9c0.5-0.9,0.3-2.1-0.6-2.6c-2.7-1.6-9.7-4.1-20.3,4.1
		c-13.9,10.7-10.9,18.9-4.2,19.6c6.7,0.7,7.4-0.7,11-2.4c0,0,5,8.6,15.7,1.7c0,0,6,7.3,16.4-2.8c0,0,1.4,5.5,5.9,4.3
		c0,0,12-4,21.2-24.9c0,0,1.3-3.1,2.7,0.2c1.3,3.3-11,18.3-4.8,21.2s10-0.6,14.5-5.7c0,0,5.2,8.8,14.2-0.2c0,0,0.2-4.2-2.6-0.3
		c-2.8,3.9-9.1,3.2-7-5.4c0,0,21-6.8,10.7-18.7c0,0-2.9-2.4-6.1,1s-7.9,17.3-10.7,20.6c-2.7,3.4-6.7,7.5-8.7,7
		c-1.6-0.4-3.5,1.4,5.4-16.8c0,0,2.1-3.3-5.6-7.3c0,0,3.8-10.1,0-12.1c-3.7-1.9-9.7,8.7-3,13.5c0.2,0.1,0.4,0.3,0.6,0.4
		c0,0-12.1,23.5-21.5,25c0,0-2.2-0.4-0.7-4.2s19-48.2,31.6-51.4s15.6,0.5,30.4,2s28-6.8,29.5-20.7
		C403.4,503.5,403.4,503.2,402.7,503z M274,575c-5.9,6.2-11,2-11.1,0.7c-0.1-1.9-0.5-4.5,8.9-13.4s14.5-5.7,14.5-5.7
		s-5.4,5.9-6.9,8.1C277.8,566.8,274,575,274,575z M360.1,547.6c1.6,0.7,2.5,7.7-0.8,10.9s-7.1,4.6-7.1,4.6S358.5,547,360.1,547.6z
		 M335.6,543.2c1.6-0.3,1.2,1.7-0.4,6.2C335.2,549.4,334,543.5,335.6,543.2z M306.1,575.1c-3.4,4.3-8.2,4.5-8.2,4.5
		c-2.2-0.5-8.2-2.3,1.6-16s15.3-6.8,15.3-6.8S309.5,570.7,306.1,575.1z"/>
</g>
</svg>
